{"glyphs":{"0":{"ha":695,"x_min":55,"x_max":661,"o":"m 404 542 q 347 529 373 542 q 300 493 321 516 q 263 441 279 471 q 237 377 248 411 q 221 307 227 342 q 216 236 216 271 q 239 147 216 180 q 312 115 261 115 q 370 127 344 115 q 417 163 396 140 q 453 216 438 186 q 479 280 469 245 q 494 350 489 314 q 499 421 499 387 q 477 509 499 477 q 404 542 454 542 m 414 673 q 598 609 535 673 q 661 424 661 545 q 636 257 661 337 q 566 117 612 178 q 453 19 519 56 q 301 -17 386 -17 q 118 46 180 -17 q 55 233 55 109 q 79 399 55 319 q 150 540 104 479 q 263 637 196 601 q 414 673 330 673 z "},"1":{"ha":669,"x_min":34,"x_max":617,"o":"m 262 136 l 334 487 l 85 417 l 115 565 l 402 657 l 529 657 l 422 136 l 617 136 l 589 0 l 34 0 l 62 136 l 262 136 z "},"2":{"ha":693,"x_min":20,"x_max":618,"o":"m 618 494 q 597 392 618 440 q 536 301 575 345 q 441 217 496 258 q 320 136 387 176 l 320 133 q 359 135 334 134 q 414 136 385 136 l 608 136 l 581 0 l 20 0 l 40 99 q 204 204 128 154 q 337 301 281 255 q 426 389 393 347 q 458 468 458 431 q 436 517 458 498 q 364 535 414 535 q 255 522 313 535 q 123 477 197 508 l 151 617 q 263 657 203 642 q 393 673 323 673 q 488 660 446 673 q 558 624 530 647 q 603 567 587 600 q 618 494 618 534 z "},"3":{"ha":637,"x_min":-68,"x_max":585,"o":"m 423 441 q 395 510 423 484 q 300 536 366 536 q 204 526 255 536 q 87 493 153 515 l 116 631 q 213 661 159 649 q 330 673 267 673 q 444 657 395 673 q 523 612 492 641 q 569 545 554 584 q 585 461 585 507 q 543 309 585 375 q 419 210 502 243 l 419 208 q 501 150 473 190 q 529 51 529 109 q 500 -85 529 -24 q 420 -190 471 -146 q 300 -257 369 -233 q 152 -280 231 -280 q 24 -265 83 -280 q -68 -227 -34 -250 l -41 -96 q 47 -131 0 -119 q 142 -142 94 -142 q 240 -127 198 -142 q 311 -87 282 -113 q 353 -30 339 -62 q 368 39 368 3 q 337 113 368 85 q 241 141 306 141 l 112 141 l 140 277 l 222 277 q 317 292 279 277 q 379 329 355 306 q 413 382 402 353 q 423 441 423 411 z "},"4":{"ha":718,"x_min":20,"x_max":679,"o":"m 366 0 l 20 0 l 44 115 l 378 657 l 547 657 l 227 134 l 228 132 q 247 134 235 133 q 270 135 258 134 q 295 136 283 136 q 318 136 308 136 l 394 136 l 429 304 l 591 304 l 555 136 l 679 136 l 650 0 l 528 0 l 473 -262 l 312 -262 l 366 0 z "},"5":{"ha":677,"x_min":-20,"x_max":677,"o":"m 272 301 q 288 302 280 302 q 303 302 296 302 q 410 287 360 302 q 498 241 460 272 q 557 164 535 211 q 578 56 578 118 q 557 -68 578 -7 q 491 -175 536 -128 q 378 -251 447 -222 q 216 -280 310 -280 q 84 -266 142 -280 q -20 -226 26 -251 l 7 -92 q 51 -114 26 -104 q 102 -130 75 -123 q 155 -139 128 -136 q 208 -142 182 -142 q 303 -127 263 -142 q 368 -85 342 -111 q 405 -26 393 -60 q 417 42 417 7 q 371 141 417 109 q 233 174 324 174 q 153 170 191 174 q 77 161 115 166 l 218 657 l 677 657 l 647 511 l 330 511 l 272 301 z "},"6":{"ha":753,"x_min":81,"x_max":745,"o":"m 414 429 q 345 415 376 429 q 289 378 313 402 q 253 319 266 353 q 240 243 240 286 q 249 188 240 212 q 273 148 258 164 q 310 123 288 132 q 356 115 331 115 q 432 133 400 115 q 485 179 464 151 q 516 242 506 207 q 526 312 526 277 q 518 365 526 342 q 494 401 509 387 q 459 422 479 415 q 414 429 438 429 m 688 330 q 678 249 688 290 q 650 169 669 208 q 604 97 631 130 q 538 38 576 63 q 454 -2 501 13 q 352 -16 408 -16 q 243 2 293 -16 q 158 57 194 20 q 101 150 121 94 q 81 281 81 206 q 96 436 81 359 q 137 585 110 514 q 205 719 165 656 q 296 826 245 781 q 410 898 348 872 q 545 924 473 924 q 664 910 612 924 q 745 881 715 896 l 718 754 q 642 782 680 770 q 557 793 604 793 q 457 769 504 793 q 372 704 410 745 q 306 607 334 663 q 259 488 277 551 l 262 487 q 347 542 298 522 q 454 563 395 563 q 538 550 496 563 q 613 508 580 536 q 667 435 646 479 q 688 330 688 391 z "},"7":{"ha":629,"x_min":-38,"x_max":656,"o":"m 66 511 l 98 657 l 656 657 l 633 547 l 135 -262 l -38 -262 l 437 511 l 66 511 z "},"8":{"ha":758,"x_min":64,"x_max":750,"o":"m 590 695 q 582 739 590 720 q 558 769 573 757 q 522 787 543 781 q 477 793 501 793 q 423 784 449 793 q 377 756 397 774 q 345 710 357 738 q 333 646 333 683 q 358 571 333 599 q 430 530 383 543 q 495 551 465 536 q 545 588 524 566 q 578 636 566 609 q 590 695 590 663 m 520 283 q 489 366 520 336 q 407 403 458 395 q 335 384 368 399 q 277 345 302 369 q 238 290 252 321 q 224 222 224 258 q 254 144 224 174 q 345 115 283 115 q 413 125 381 115 q 468 158 444 136 q 506 211 492 179 q 520 283 520 242 m 172 650 q 197 763 172 713 q 263 850 221 814 q 362 905 306 886 q 484 924 419 924 q 597 909 548 924 q 681 866 647 894 q 732 799 715 838 q 750 712 750 760 q 737 631 750 669 q 700 562 724 593 q 642 505 675 530 q 568 461 608 479 l 568 459 q 649 394 618 437 q 680 286 680 351 q 653 159 680 215 q 578 63 626 102 q 467 4 531 24 q 330 -17 403 -17 q 211 0 261 -17 q 128 47 161 17 q 80 118 96 77 q 64 207 64 159 q 79 297 64 255 q 121 374 94 339 q 186 434 149 408 q 271 475 224 460 l 271 478 q 199 548 225 506 q 172 650 172 591 z "},"9":{"ha":760,"x_min":4,"x_max":689,"o":"m 355 228 q 429 242 396 228 q 484 281 461 256 q 518 341 507 307 q 530 416 530 376 q 500 507 530 473 q 414 542 470 542 q 346 525 377 542 q 293 479 315 507 q 259 414 271 450 q 247 340 247 378 q 355 228 247 228 m 689 375 q 673 208 689 290 q 628 53 658 126 q 554 -81 597 -20 q 456 -186 511 -142 q 336 -255 401 -231 q 195 -280 271 -280 q 85 -267 134 -280 q 4 -236 35 -254 l 35 -109 q 68 -124 52 -117 q 104 -136 85 -131 q 143 -145 122 -142 q 186 -149 163 -149 q 296 -125 245 -149 q 389 -61 347 -102 q 462 37 431 -20 q 510 160 493 94 l 508 161 q 420 111 469 129 q 313 94 371 94 q 229 107 270 94 q 156 148 189 120 q 105 221 124 176 q 85 327 85 265 q 109 459 85 396 q 176 569 133 522 q 279 645 219 617 q 412 673 339 673 q 517 657 467 673 q 605 606 567 642 q 666 513 644 570 q 689 375 689 456 z "},"\u0000":{"ha":0,"x_min":0,"x_max":0,"o":""},"\r":{"ha":286,"x_min":0,"x_max":0,"o":""}," ":{"ha":286,"x_min":0,"x_max":0,"o":""},"A":{"ha":899,"x_min":-41,"x_max":804,"o":"m 591 231 l 269 231 l 144 0 l -41 0 l 465 907 l 620 907 l 804 0 l 635 0 l 591 231 m 345 370 l 566 370 l 547 468 q 511 686 525 585 l 507 686 q 403 476 459 578 l 345 370 z "},"B":{"ha":845,"x_min":41,"x_max":804,"o":"m 437 534 q 505 537 477 534 q 551 549 532 541 q 616 598 593 566 q 638 675 638 630 q 625 722 638 701 q 578 756 611 744 q 538 766 562 762 q 481 769 513 769 l 366 769 l 317 534 l 437 534 m 288 395 l 235 139 l 321 139 q 494 162 435 139 q 578 223 553 184 q 604 304 604 261 q 589 354 604 333 q 541 385 574 374 q 504 393 525 391 q 450 395 482 395 l 288 395 m 804 688 q 763 553 804 607 q 644 467 721 499 l 644 464 q 698 440 674 456 q 738 402 722 424 q 762 355 754 381 q 770 300 770 328 q 715 139 770 209 q 550 32 660 68 q 439 8 501 16 q 298 0 377 0 l 41 0 l 229 907 l 481 907 q 578 901 536 907 q 654 884 621 895 q 766 806 727 858 q 804 688 804 755 z "},"C":{"ha":804,"x_min":85,"x_max":831,"o":"m 613 784 q 504 767 555 784 q 413 720 453 750 q 342 650 372 690 q 292 561 312 609 q 261 461 271 513 q 251 355 251 408 q 270 241 251 286 q 321 171 288 197 q 397 134 353 144 q 490 123 441 123 q 602 133 545 123 q 717 163 659 144 l 687 17 q 569 -9 632 -2 q 455 -17 506 -17 q 305 4 373 -17 q 188 68 237 24 q 112 179 139 111 q 85 340 85 247 q 98 476 85 407 q 139 610 111 545 q 208 732 166 675 q 307 832 250 789 q 441 900 365 875 q 605 924 517 924 q 715 916 653 924 q 831 889 777 907 l 803 753 q 707 776 752 768 q 613 784 663 784 z "},"D":{"ha":937,"x_min":41,"x_max":909,"o":"m 235 139 l 337 139 q 449 150 401 139 q 536 182 497 161 q 626 248 588 208 q 690 337 664 288 q 729 441 715 386 q 743 554 742 497 q 720 676 745 629 q 640 747 694 724 q 578 763 613 758 q 492 768 543 768 l 366 768 l 235 139 m 499 907 q 621 899 569 907 q 715 873 673 890 q 802 823 766 853 q 863 753 839 792 q 898 666 886 713 q 909 566 909 619 q 904 489 909 533 q 884 396 898 445 q 845 297 869 347 q 784 199 821 246 q 696 113 747 153 q 576 45 645 73 q 456 12 523 24 q 300 0 390 0 l 41 0 l 229 907 l 499 907 z "},"E":{"ha":757,"x_min":41,"x_max":798,"o":"m 235 139 l 663 139 l 634 0 l 41 0 l 229 907 l 798 907 l 768 768 l 366 768 l 317 534 l 663 534 l 634 395 l 288 395 l 235 139 z "},"F":{"ha":696,"x_min":41,"x_max":784,"o":"m 41 0 l 229 907 l 784 907 l 755 768 l 366 768 l 317 534 l 656 534 l 627 395 l 288 395 l 206 0 l 41 0 z "},"G":{"ha":942,"x_min":85,"x_max":884,"o":"m 631 924 q 767 912 703 924 q 882 880 831 899 l 853 743 q 745 774 796 764 q 643 784 694 784 q 522 767 578 784 q 422 720 465 750 q 346 649 378 690 q 293 559 314 608 q 261 458 272 511 q 251 352 251 406 q 300 181 251 239 q 446 123 349 123 q 530 133 491 123 q 599 164 569 143 q 650 220 629 186 q 681 301 671 254 l 690 347 l 487 347 l 515 486 l 884 486 l 842 283 q 785 138 824 195 q 691 46 745 80 q 570 -3 636 12 q 431 -17 503 -17 q 292 6 355 -17 q 182 74 229 29 q 111 186 136 119 q 85 340 85 253 q 101 496 85 421 q 150 636 118 571 q 230 754 182 701 q 337 845 277 807 q 472 904 398 883 q 631 924 546 924 z "},"H":{"ha":924,"x_min":41,"x_max":947,"o":"m 317 534 l 704 534 l 781 907 l 947 907 l 759 0 l 593 0 l 675 395 l 288 395 l 206 0 l 41 0 l 229 907 l 394 907 l 317 534 z "},"I":{"ha":374,"x_min":41,"x_max":394,"o":"m 41 0 l 229 907 l 394 907 l 206 0 l 41 0 z "},"J":{"ha":542,"x_min":-14,"x_max":562,"o":"m 397 907 l 562 907 l 414 196 q 393 123 406 153 q 361 71 380 94 q 268 5 325 28 q 132 -17 210 -17 q 52 -10 87 -17 q -14 9 17 -3 l 15 146 q 66 130 41 136 q 123 123 92 123 q 169 129 147 123 q 208 148 190 135 q 238 181 225 161 q 257 231 251 202 l 397 907 z "},"K":{"ha":812,"x_min":41,"x_max":894,"o":"m 41 0 l 229 907 l 394 907 l 311 504 l 313 504 l 689 907 l 894 907 l 460 451 l 749 0 l 558 0 l 296 419 l 293 419 l 206 0 l 41 0 z "},"L":{"ha":747,"x_min":41,"x_max":663,"o":"m 235 139 l 663 139 l 634 0 l 41 0 l 229 907 l 394 907 l 235 139 z "},"M":{"ha":1107,"x_min":41,"x_max":1128,"o":"m 539 245 q 747 632 587 349 l 903 907 l 1128 907 l 940 0 l 774 0 l 871 433 q 933 690 896 541 l 928 690 q 667 206 861 547 l 548 0 l 437 0 l 365 490 q 338 690 350 589 l 333 690 q 298 452 324 590 l 206 0 l 41 0 l 229 907 l 442 907 l 483 654 q 535 245 508 495 l 539 245 z "},"N":{"ha":962,"x_min":41,"x_max":982,"o":"m 633 0 l 447 402 q 338 663 378 549 l 334 663 q 290 405 321 551 l 206 0 l 41 0 l 229 907 l 389 907 l 576 505 q 685 244 644 359 l 689 244 q 732 503 698 333 l 817 907 l 982 907 l 794 0 l 633 0 z "},"O":{"ha":979,"x_min":85,"x_max":952,"o":"m 589 784 q 488 765 534 784 q 405 713 442 746 q 338 636 367 680 q 290 542 309 592 q 261 438 271 492 q 251 332 251 384 q 264 242 251 281 q 303 176 278 203 q 366 137 329 150 q 448 123 402 123 q 549 142 503 123 q 632 194 595 161 q 699 271 670 227 q 747 366 728 315 q 776 470 766 416 q 786 575 786 524 q 733 731 786 678 q 589 784 681 784 m 601 924 q 745 902 680 924 q 856 837 810 880 q 927 728 902 793 q 952 578 952 663 q 941 461 952 526 q 905 331 930 397 q 840 202 880 264 q 742 91 800 139 q 609 13 685 42 q 436 -17 533 -17 q 292 5 357 -17 q 181 71 227 27 q 110 179 135 115 q 85 329 85 244 q 96 446 85 382 q 132 577 107 511 q 197 706 157 643 q 295 817 237 768 q 428 895 352 865 q 601 924 504 924 z "},"P":{"ha":814,"x_min":41,"x_max":808,"o":"m 206 0 l 41 0 l 229 907 l 456 907 q 653 884 584 907 q 771 802 734 857 q 808 674 808 747 q 780 544 808 603 q 697 441 751 484 q 564 375 644 399 q 382 351 485 351 q 281 358 330 351 l 206 0 m 309 496 q 389 490 344 490 q 500 503 453 490 q 579 539 548 516 q 626 595 610 562 q 642 667 642 628 q 625 721 642 699 q 579 754 608 743 q 534 765 562 762 q 467 768 507 768 l 366 768 l 309 496 z "},"Q":{"ha":986,"x_min":85,"x_max":952,"o":"m 730 113 q 931 137 869 137 l 901 -8 q 705 0 795 0 q 631 -2 670 0 q 562 -7 592 -5 q 496 -12 532 -9 q 435 -14 460 -14 q 293 7 357 -14 q 182 72 228 29 q 110 180 136 115 q 85 329 85 244 q 99 465 85 395 q 141 601 113 534 q 211 726 169 667 q 311 829 254 785 q 441 899 368 873 q 601 924 513 924 q 746 902 681 924 q 857 837 811 880 q 927 728 903 793 q 952 578 952 663 q 937 440 952 508 q 892 312 921 372 q 821 201 863 251 q 729 115 780 151 l 730 113 m 583 784 q 485 765 530 784 q 402 713 439 746 q 337 636 366 680 q 290 542 309 592 q 261 438 271 492 q 251 332 251 385 q 304 176 251 229 q 454 123 357 123 q 552 142 507 123 q 634 194 597 161 q 700 271 671 227 q 747 366 728 315 q 776 470 766 416 q 786 575 786 524 q 733 731 786 678 q 583 784 680 784 z "},"R":{"ha":829,"x_min":41,"x_max":823,"o":"m 206 0 l 41 0 l 229 907 l 474 907 q 575 903 533 907 q 650 890 618 899 q 781 808 739 864 q 823 677 823 753 q 807 574 823 623 q 759 488 792 526 q 675 420 726 449 q 552 376 624 392 l 552 373 l 753 0 l 570 0 l 389 351 l 279 351 l 206 0 m 308 490 l 372 490 q 453 493 417 490 q 517 505 489 496 q 619 562 582 522 q 656 665 656 602 q 642 722 656 697 q 593 758 627 746 q 551 766 576 763 q 486 768 525 768 l 366 768 l 308 490 z "},"S":{"ha":782,"x_min":22,"x_max":762,"o":"m 530 283 q 513 334 530 315 q 470 367 496 354 q 408 390 443 380 q 336 410 373 399 q 257 442 294 424 q 193 487 220 460 q 150 552 165 514 q 134 640 134 590 q 158 756 134 704 q 224 846 181 809 q 328 904 267 884 q 465 924 389 924 q 623 907 545 924 q 762 864 702 890 l 732 726 q 596 770 656 757 q 475 784 536 784 q 349 750 395 784 q 304 659 304 716 q 316 607 304 629 q 349 571 328 586 q 396 546 369 557 q 454 526 424 536 q 543 497 498 513 q 622 457 587 481 q 679 393 657 432 q 701 298 701 355 q 672 165 701 224 q 592 66 644 107 q 467 4 541 26 q 302 -17 393 -17 q 211 -11 254 -17 q 131 4 167 -5 q 66 25 94 14 q 22 46 39 36 l 51 183 q 167 141 102 158 q 303 123 231 123 q 396 134 355 123 q 468 165 438 145 q 513 215 497 185 q 530 283 530 245 z "},"T":{"ha":787,"x_min":119,"x_max":882,"o":"m 410 0 l 244 0 l 404 768 l 119 768 l 146 907 l 882 907 l 854 768 l 569 768 l 410 0 z "},"U":{"ha":915,"x_min":88,"x_max":942,"o":"m 415 123 q 538 153 486 123 q 625 248 591 182 q 647 302 637 271 q 667 376 657 332 l 777 907 l 942 907 l 825 343 q 803 256 814 292 q 777 190 792 220 q 722 106 755 144 q 644 41 690 68 q 538 -2 598 14 q 399 -17 477 -17 q 255 5 314 -17 q 158 66 195 28 q 105 154 121 104 q 88 260 88 204 q 93 323 88 292 q 104 386 97 354 l 212 907 l 377 907 l 266 368 q 258 322 260 344 q 255 281 255 300 q 263 220 255 248 q 290 170 271 191 q 339 136 309 149 q 415 123 370 123 z "},"V":{"ha":864,"x_min":146,"x_max":959,"o":"m 776 907 l 959 907 l 458 0 l 317 0 l 146 907 l 310 907 l 378 521 q 424 243 408 347 l 428 243 q 572 521 483 352 l 776 907 z "},"W":{"ha":1257,"x_min":146,"x_max":1352,"o":"m 649 907 l 826 907 l 838 543 q 842 237 844 359 l 847 237 q 1004 581 918 408 l 1169 907 l 1352 907 l 880 0 l 709 0 l 700 321 q 696 660 696 486 l 692 660 q 570 325 648 520 l 439 0 l 271 0 l 146 907 l 315 907 l 355 578 q 388 237 379 367 l 392 237 q 507 559 429 363 l 649 907 z "},"X":{"ha":880,"x_min":-41,"x_max":989,"o":"m 500 587 l 503 587 l 786 907 l 989 907 l 577 447 l 790 0 l 612 0 l 458 336 l 455 336 l 161 0 l -41 0 l 380 475 l 175 907 l 352 907 l 500 587 z "},"Y":{"ha":788,"x_min":132,"x_max":897,"o":"m 273 0 l 349 367 l 132 907 l 302 907 l 452 526 l 708 907 l 897 907 l 514 363 l 439 0 l 273 0 z "},"Z":{"ha":833,"x_min":0,"x_max":867,"o":"m 21 92 l 614 768 l 163 768 l 191 907 l 867 907 l 848 815 l 255 139 l 728 139 l 699 0 l 0 0 l 21 92 z "},"À":{"ha":899,"x_min":-41,"x_max":804,"o":"m 591 231 l 269 231 l 144 0 l -41 0 l 465 907 l 620 907 l 804 0 l 635 0 l 591 231 m 345 370 l 566 370 l 547 468 q 511 686 525 585 l 507 686 q 403 476 459 578 l 345 370 m 560 1123 l 619 956 l 496 956 l 401 1123 l 560 1123 m 187 907 z "},"Á":{"ha":899,"x_min":-41,"x_max":804,"o":"m 591 231 l 269 231 l 144 0 l -41 0 l 465 907 l 620 907 l 804 0 l 635 0 l 591 231 m 345 370 l 566 370 l 547 468 q 511 686 525 585 l 507 686 q 403 476 459 578 l 345 370 m 783 1123 l 619 956 l 488 956 l 616 1123 l 783 1123 m 300 907 z "},"Â":{"ha":899,"x_min":-41,"x_max":804,"o":"m 591 231 l 269 231 l 144 0 l -41 0 l 465 907 l 620 907 l 804 0 l 635 0 l 591 231 m 345 370 l 566 370 l 547 468 q 511 686 525 585 l 507 686 q 403 476 459 578 l 345 370 m 513 1123 l 653 1123 l 765 956 l 629 956 l 572 1041 l 570 1041 l 477 956 l 332 956 l 513 1123 m 210 907 z "},"Ã":{"ha":899,"x_min":-41,"x_max":810,"o":"m 591 231 l 269 231 l 144 0 l -41 0 l 465 907 l 620 907 l 804 0 l 635 0 l 591 231 m 345 370 l 566 370 l 547 468 q 511 686 525 585 l 507 686 q 403 476 459 578 l 345 370 m 810 1118 q 794 1050 806 1080 q 762 997 781 1019 q 715 963 742 975 q 657 951 689 951 q 604 962 629 951 q 557 985 579 972 q 520 1005 538 996 q 488 1014 503 1014 q 458 1001 469 1014 q 441 957 448 988 l 328 957 q 345 1025 332 994 q 377 1077 357 1055 q 423 1111 397 1099 q 481 1123 450 1123 q 535 1113 509 1123 q 583 1089 561 1102 q 619 1069 602 1078 q 651 1061 636 1061 q 681 1074 670 1061 q 697 1118 691 1086 l 810 1118 m 210 907 z "},"Ä":{"ha":899,"x_min":-41,"x_max":804,"o":"m 591 231 l 269 231 l 144 0 l -41 0 l 465 907 l 620 907 l 804 0 l 635 0 l 591 231 m 345 370 l 566 370 l 547 468 q 511 686 525 585 l 507 686 q 403 476 459 578 l 345 370 m 371 1135 l 523 1135 l 491 982 l 339 982 l 371 1135 m 650 1135 l 802 1135 l 770 982 l 618 982 l 650 1135 m 215 907 z "},"Ā":{"ha":899,"x_min":-41,"x_max":804,"o":"m 591 231 l 269 231 l 144 0 l -41 0 l 465 907 l 620 907 l 804 0 l 635 0 l 591 231 m 345 370 l 566 370 l 547 468 q 511 686 525 585 l 507 686 q 403 476 459 578 l 345 370 m 384 1097 l 764 1097 l 740 982 l 360 982 l 384 1097 m 206 907 z "},"Ă":{"ha":899,"x_min":-41,"x_max":812,"o":"m 591 231 l 269 231 l 144 0 l -41 0 l 465 907 l 620 907 l 804 0 l 635 0 l 591 231 m 345 370 l 566 370 l 547 468 q 511 686 525 585 l 507 686 q 403 476 459 578 l 345 370 m 561 1063 q 622 1081 594 1063 q 665 1139 650 1099 l 812 1139 q 773 1060 798 1095 q 716 1001 749 1025 q 640 964 682 977 q 547 951 597 951 q 458 964 496 951 q 396 1001 420 977 q 363 1055 372 1025 q 355 1112 355 1084 q 356 1139 355 1125 l 489 1139 q 489 1133 489 1136 q 508 1080 489 1097 q 561 1063 528 1063 m 208 907 z "},"Å":{"ha":899,"x_min":-41,"x_max":804,"o":"m 591 231 l 269 231 l 144 0 l -41 0 l 465 907 l 620 907 l 804 0 l 635 0 l 591 231 m 345 370 l 566 370 l 547 468 q 511 686 525 585 l 507 686 q 403 476 459 578 l 345 370 m 583 1193 q 695 1162 656 1193 q 734 1078 734 1131 q 722 1024 734 1051 q 687 976 710 998 q 628 941 663 954 q 547 927 593 927 q 435 958 474 927 q 396 1042 396 989 q 408 1096 396 1069 q 443 1144 420 1122 q 502 1179 467 1166 q 583 1193 536 1193 m 578 1118 q 517 1097 538 1118 q 495 1046 495 1076 q 509 1014 495 1026 q 552 1002 523 1002 q 613 1023 591 1002 q 635 1074 635 1044 q 621 1106 635 1094 q 578 1118 607 1118 m 212 907 z "},"Ǻ":{"ha":899,"x_min":-41,"x_max":806,"o":"m 806 1318 l 650 1183 l 544 1183 l 664 1318 l 806 1318 m 727 1063 q 716 1014 727 1039 q 682 969 705 989 q 625 937 659 949 q 546 924 591 924 q 435 951 473 924 q 398 1025 398 978 q 409 1075 398 1050 q 443 1120 420 1100 q 500 1152 466 1139 q 579 1164 534 1164 q 690 1138 652 1164 q 727 1063 727 1111 m 631 1053 q 615 1083 631 1074 q 572 1093 600 1093 q 514 1076 534 1093 q 494 1036 494 1059 q 510 1006 494 1015 q 553 996 525 996 q 611 1013 591 996 q 631 1053 631 1029 m 591 231 l 269 231 l 144 0 l -41 0 l 465 907 l 620 907 l 804 0 l 635 0 l 591 231 m 345 370 l 566 370 l 547 468 q 511 686 525 585 l 507 686 q 403 476 459 578 l 345 370 z "},"Ą":{"ha":899,"x_min":-41,"x_max":804,"o":"m 804 0 q 732 -42 766 -20 q 675 -86 699 -64 q 638 -134 652 -109 q 625 -181 625 -159 q 636 -211 625 -201 q 669 -220 648 -220 q 705 -216 685 -220 q 739 -205 724 -212 l 717 -315 q 673 -327 699 -322 q 623 -332 648 -332 q 569 -325 594 -332 q 527 -303 545 -317 q 499 -267 509 -288 q 489 -218 489 -245 q 500 -157 489 -187 q 531 -98 511 -126 q 577 -45 551 -70 q 635 0 604 -20 l 591 231 l 269 231 l 144 0 l -41 0 l 465 907 l 620 907 l 804 0 m 345 370 l 566 370 l 547 468 q 511 686 525 585 l 507 686 q 403 476 459 578 l 345 370 z "},"Æ":{"ha":1274,"x_min":-43,"x_max":1263,"o":"m 753 139 l 1190 139 l 1162 0 l 581 0 l 604 231 l 298 231 l 144 0 l -43 0 l 566 907 l 1263 907 l 1234 768 l 819 768 l 794 534 l 1151 534 l 1122 395 l 780 395 l 753 139 m 390 370 l 618 370 l 660 768 l 655 768 l 390 370 z "},"Ǽ":{"ha":1274,"x_min":-43,"x_max":1263,"o":"m 753 139 l 1190 139 l 1162 0 l 581 0 l 604 231 l 298 231 l 144 0 l -43 0 l 566 907 l 1263 907 l 1234 768 l 819 768 l 794 534 l 1151 534 l 1122 395 l 780 395 l 753 139 m 390 370 l 618 370 l 660 768 l 655 768 l 390 370 m 1115 1123 l 951 956 l 820 956 l 948 1123 l 1115 1123 m 632 907 z "},"Ć":{"ha":804,"x_min":85,"x_max":831,"o":"m 613 784 q 504 767 555 784 q 413 720 453 750 q 342 650 372 690 q 292 561 312 609 q 261 461 271 513 q 251 355 251 408 q 270 241 251 286 q 321 171 288 197 q 397 134 353 144 q 490 123 441 123 q 602 133 545 123 q 717 163 659 144 l 687 17 q 569 -9 632 -2 q 455 -17 506 -17 q 305 4 373 -17 q 188 68 237 24 q 112 179 139 111 q 85 340 85 247 q 98 476 85 407 q 139 610 111 545 q 208 732 166 675 q 307 832 250 789 q 441 900 365 875 q 605 924 517 924 q 715 916 653 924 q 831 889 777 907 l 803 753 q 707 776 752 768 q 613 784 663 784 m 829 1123 l 666 956 l 534 956 l 663 1123 l 829 1123 m 347 907 z "},"Ĉ":{"ha":804,"x_min":85,"x_max":831,"o":"m 613 784 q 504 767 555 784 q 413 720 453 750 q 342 650 372 690 q 292 561 312 609 q 261 461 271 513 q 251 355 251 408 q 270 241 251 286 q 321 171 288 197 q 397 134 353 144 q 490 123 441 123 q 602 133 545 123 q 717 163 659 144 l 687 17 q 569 -9 632 -2 q 455 -17 506 -17 q 305 4 373 -17 q 188 68 237 24 q 112 179 139 111 q 85 340 85 247 q 98 476 85 407 q 139 610 111 545 q 208 732 166 675 q 307 832 250 789 q 441 900 365 875 q 605 924 517 924 q 715 916 653 924 q 831 889 777 907 l 803 753 q 707 776 752 768 q 613 784 663 784 m 555 1123 l 694 1123 l 806 956 l 671 956 l 614 1041 l 611 1041 l 518 956 l 374 956 l 555 1123 m 252 907 z "},"Č":{"ha":804,"x_min":85,"x_max":848,"o":"m 613 784 q 504 767 555 784 q 413 720 453 750 q 342 650 372 690 q 292 561 312 609 q 261 461 271 513 q 251 355 251 408 q 270 241 251 286 q 321 171 288 197 q 397 134 353 144 q 490 123 441 123 q 602 133 545 123 q 717 163 659 144 l 687 17 q 569 -9 632 -2 q 455 -17 506 -17 q 305 4 373 -17 q 188 68 237 24 q 112 179 139 111 q 85 340 85 247 q 98 476 85 407 q 139 610 111 545 q 208 732 166 675 q 307 832 250 789 q 441 900 365 875 q 605 924 517 924 q 715 916 653 924 q 831 889 777 907 l 803 753 q 707 776 752 768 q 613 784 663 784 m 667 956 l 527 956 l 415 1124 l 549 1124 l 606 1038 l 609 1038 l 702 1124 l 848 1124 l 667 956 m 258 907 z "},"Ċ":{"ha":804,"x_min":85,"x_max":831,"o":"m 613 784 q 504 767 555 784 q 413 720 453 750 q 342 650 372 690 q 292 561 312 609 q 261 461 271 513 q 251 355 251 408 q 270 241 251 286 q 321 171 288 197 q 397 134 353 144 q 490 123 441 123 q 602 133 545 123 q 717 163 659 144 l 687 17 q 569 -9 632 -2 q 455 -17 506 -17 q 305 4 373 -17 q 188 68 237 24 q 112 179 139 111 q 85 340 85 247 q 98 476 85 407 q 139 610 111 545 q 208 732 166 675 q 307 832 250 789 q 441 900 365 875 q 605 924 517 924 q 715 916 653 924 q 831 889 777 907 l 803 753 q 707 776 752 768 q 613 784 663 784 m 518 982 l 553 1156 l 722 1156 l 686 982 l 518 982 m 266 907 z "},"Ç":{"ha":804,"x_min":85,"x_max":831,"o":"m 613 784 q 503 767 553 784 q 413 720 453 750 q 342 650 372 690 q 292 561 312 609 q 261 460 271 513 q 251 355 251 408 q 270 241 251 286 q 321 171 288 197 q 397 134 353 144 q 490 123 441 123 q 603 134 547 123 q 717 163 659 144 l 687 17 q 467 -17 598 -14 l 443 -80 q 498 -92 475 -83 q 534 -115 520 -101 q 554 -146 548 -129 q 561 -184 561 -164 q 545 -243 561 -216 q 500 -290 529 -271 q 430 -321 471 -310 q 338 -332 389 -332 q 284 -328 312 -332 q 243 -318 257 -324 l 262 -222 q 336 -232 292 -232 q 408 -218 382 -232 q 433 -183 433 -203 q 318 -146 434 -145 l 368 -11 q 252 24 304 -1 q 162 93 199 50 q 105 198 125 136 q 85 340 85 259 q 98 476 85 407 q 139 610 111 545 q 208 732 166 675 q 307 832 250 789 q 439 900 365 875 q 604 924 513 924 q 663 922 632 924 q 724 914 694 919 q 781 903 753 909 q 831 889 808 897 l 803 753 q 713 775 760 766 q 613 784 667 784 z "},"Ď":{"ha":937,"x_min":41,"x_max":909,"o":"m 235 139 l 337 139 q 449 150 401 139 q 536 182 497 161 q 626 248 588 208 q 690 337 664 288 q 729 441 715 386 q 743 554 742 497 q 720 676 745 629 q 640 747 694 724 q 578 763 613 758 q 492 768 543 768 l 366 768 l 235 139 m 499 907 q 621 899 569 907 q 715 873 673 890 q 802 823 766 853 q 863 753 839 792 q 898 666 886 713 q 909 566 909 619 q 904 489 909 533 q 884 396 898 445 q 845 297 869 347 q 784 199 821 246 q 696 113 747 153 q 576 45 645 73 q 456 12 523 24 q 300 0 390 0 l 41 0 l 229 907 l 499 907 m 604 956 l 465 956 l 353 1124 l 487 1124 l 544 1038 l 547 1038 l 640 1124 l 785 1124 l 604 956 m 196 907 z "},"Đ":{"ha":972,"x_min":47,"x_max":945,"o":"m 77 534 l 186 534 l 264 907 l 534 907 q 656 899 604 907 q 751 873 709 890 q 838 823 801 853 q 898 753 874 792 q 933 666 922 713 q 945 566 945 619 q 939 489 945 533 q 919 396 933 445 q 881 297 905 347 q 820 199 857 246 q 731 113 783 153 q 612 45 680 73 q 492 12 558 24 q 335 0 425 0 l 76 0 l 157 395 l 47 395 l 77 534 m 352 534 l 577 534 l 549 395 l 323 395 l 270 139 l 372 139 q 484 150 436 139 q 572 182 532 161 q 661 248 623 208 q 725 337 699 288 q 764 441 751 386 q 779 554 777 497 q 755 676 780 629 q 675 747 730 724 q 613 763 648 758 q 527 768 578 768 l 401 768 l 352 534 z "},"È":{"ha":757,"x_min":41,"x_max":798,"o":"m 235 139 l 663 139 l 634 0 l 41 0 l 229 907 l 798 907 l 768 768 l 366 768 l 317 534 l 663 534 l 634 395 l 288 395 l 235 139 m 521 1123 l 580 956 l 456 956 l 362 1123 l 521 1123 m 148 907 z "},"É":{"ha":757,"x_min":41,"x_max":798,"o":"m 235 139 l 663 139 l 634 0 l 41 0 l 229 907 l 798 907 l 768 768 l 366 768 l 317 534 l 663 534 l 634 395 l 288 395 l 235 139 m 727 1123 l 564 956 l 432 956 l 560 1123 l 727 1123 m 244 907 z "},"Ê":{"ha":757,"x_min":41,"x_max":798,"o":"m 235 139 l 663 139 l 634 0 l 41 0 l 229 907 l 798 907 l 768 768 l 366 768 l 317 534 l 663 534 l 634 395 l 288 395 l 235 139 m 479 1123 l 618 1123 l 730 956 l 595 956 l 538 1041 l 535 1041 l 442 956 l 298 956 l 479 1123 m 176 907 z "},"Ě":{"ha":757,"x_min":41,"x_max":798,"o":"m 235 139 l 663 139 l 634 0 l 41 0 l 229 907 l 798 907 l 768 768 l 366 768 l 317 534 l 663 534 l 634 395 l 288 395 l 235 139 m 584 956 l 444 956 l 332 1124 l 467 1124 l 524 1038 l 526 1038 l 619 1124 l 765 1124 l 584 956 m 176 907 z "},"Ë":{"ha":757,"x_min":41,"x_max":798,"o":"m 235 139 l 663 139 l 634 0 l 41 0 l 229 907 l 798 907 l 768 768 l 366 768 l 317 534 l 663 534 l 634 395 l 288 395 l 235 139 m 330 1135 l 481 1135 l 450 982 l 298 982 l 330 1135 m 609 1135 l 761 1135 l 729 982 l 577 982 l 609 1135 m 174 907 z "},"Ē":{"ha":757,"x_min":41,"x_max":798,"o":"m 235 139 l 663 139 l 634 0 l 41 0 l 229 907 l 798 907 l 768 768 l 366 768 l 317 534 l 663 534 l 634 395 l 288 395 l 235 139 m 351 1097 l 730 1097 l 707 982 l 327 982 l 351 1097 m 173 907 z "},"Ĕ":{"ha":757,"x_min":41,"x_max":798,"o":"m 235 139 l 663 139 l 634 0 l 41 0 l 229 907 l 798 907 l 768 768 l 366 768 l 317 534 l 663 534 l 634 395 l 288 395 l 235 139 m 527 1063 q 588 1081 560 1063 q 631 1139 616 1099 l 778 1139 q 740 1060 764 1095 q 682 1001 715 1025 q 606 964 648 977 q 513 951 564 951 q 424 964 462 951 q 362 1001 387 977 q 330 1055 338 1025 q 321 1112 321 1084 q 322 1139 321 1125 l 455 1139 q 455 1133 455 1136 q 474 1080 455 1097 q 527 1063 494 1063 m 174 907 z "},"Ė":{"ha":757,"x_min":41,"x_max":798,"o":"m 235 139 l 663 139 l 634 0 l 41 0 l 229 907 l 798 907 l 768 768 l 366 768 l 317 534 l 663 534 l 634 395 l 288 395 l 235 139 m 429 982 l 464 1156 l 632 1156 l 597 982 l 429 982 m 176 907 z "},"Ę":{"ha":757,"x_min":41,"x_max":798,"o":"m 634 0 q 574 -44 603 -22 q 525 -89 546 -66 q 490 -134 503 -111 q 477 -181 477 -158 q 489 -211 477 -201 q 522 -220 500 -220 q 557 -216 538 -220 q 592 -205 577 -212 l 570 -315 q 526 -327 552 -322 q 476 -332 500 -332 q 422 -325 447 -332 q 380 -303 397 -317 q 352 -267 362 -288 q 342 -218 342 -245 q 353 -157 342 -187 q 384 -99 364 -127 q 430 -47 404 -72 q 488 -3 457 -22 l 488 0 l 41 0 l 229 907 l 798 907 l 768 768 l 366 768 l 317 534 l 663 534 l 634 395 l 288 395 l 235 139 l 663 139 l 634 0 z "},"Ĝ":{"ha":942,"x_min":85,"x_max":884,"o":"m 631 924 q 767 912 703 924 q 882 880 831 899 l 853 743 q 745 774 796 764 q 643 784 694 784 q 522 767 578 784 q 422 720 465 750 q 346 649 378 690 q 293 559 314 608 q 261 458 272 511 q 251 352 251 406 q 300 181 251 239 q 446 123 349 123 q 530 133 491 123 q 599 164 569 143 q 650 220 629 186 q 681 301 671 254 l 690 347 l 487 347 l 515 486 l 884 486 l 842 283 q 785 138 824 195 q 691 46 745 80 q 570 -3 636 12 q 431 -17 503 -17 q 292 6 355 -17 q 182 74 229 29 q 111 186 136 119 q 85 340 85 253 q 101 496 85 421 q 150 636 118 571 q 230 754 182 701 q 337 845 277 807 q 472 904 398 883 q 631 924 546 924 m 577 1123 l 717 1123 l 829 956 l 693 956 l 636 1041 l 633 1041 l 541 956 l 396 956 l 577 1123 m 274 907 z "},"Ğ":{"ha":942,"x_min":85,"x_max":884,"o":"m 631 924 q 767 912 703 924 q 882 880 831 899 l 853 743 q 745 774 796 764 q 643 784 694 784 q 522 767 578 784 q 422 720 465 750 q 346 649 378 690 q 293 559 314 608 q 261 458 272 511 q 251 352 251 406 q 300 181 251 239 q 446 123 349 123 q 530 133 491 123 q 599 164 569 143 q 650 220 629 186 q 681 301 671 254 l 690 347 l 487 347 l 515 486 l 884 486 l 842 283 q 785 138 824 195 q 691 46 745 80 q 570 -3 636 12 q 431 -17 503 -17 q 292 6 355 -17 q 182 74 229 29 q 111 186 136 119 q 85 340 85 253 q 101 496 85 421 q 150 636 118 571 q 230 754 182 701 q 337 845 277 807 q 472 904 398 883 q 631 924 546 924 m 599 1063 q 660 1081 632 1063 q 703 1139 688 1099 l 850 1139 q 811 1060 836 1095 q 754 1001 787 1025 q 678 964 720 977 q 585 951 635 951 q 496 964 534 951 q 434 1001 458 977 q 401 1055 410 1025 q 393 1112 393 1084 q 394 1139 393 1125 l 527 1139 q 527 1133 527 1136 q 546 1080 527 1097 q 599 1063 566 1063 m 246 907 z "},"Ġ":{"ha":942,"x_min":85,"x_max":884,"o":"m 631 924 q 767 912 703 924 q 882 880 831 899 l 853 743 q 745 774 796 764 q 643 784 694 784 q 522 767 578 784 q 422 720 465 750 q 346 649 378 690 q 293 559 314 608 q 261 458 272 511 q 251 352 251 406 q 300 181 251 239 q 446 123 349 123 q 530 133 491 123 q 599 164 569 143 q 650 220 629 186 q 681 301 671 254 l 690 347 l 487 347 l 515 486 l 884 486 l 842 283 q 785 138 824 195 q 691 46 745 80 q 570 -3 636 12 q 431 -17 503 -17 q 292 6 355 -17 q 182 74 229 29 q 111 186 136 119 q 85 340 85 253 q 101 496 85 421 q 150 636 118 571 q 230 754 182 701 q 337 845 277 807 q 472 904 398 883 q 631 924 546 924 m 515 982 l 551 1156 l 719 1156 l 684 982 l 515 982 m 263 907 z "},"Ģ":{"ha":942,"x_min":85,"x_max":884,"o":"m 631 924 q 767 912 703 924 q 882 880 831 899 l 853 743 q 745 774 796 764 q 643 784 694 784 q 522 767 578 784 q 422 720 465 750 q 346 649 378 690 q 293 559 314 608 q 261 458 272 511 q 251 352 251 406 q 300 181 251 239 q 446 123 349 123 q 530 133 491 123 q 599 164 569 143 q 650 220 629 186 q 681 301 671 254 l 690 347 l 487 347 l 515 486 l 884 486 l 842 283 q 785 138 824 195 q 691 46 745 80 q 570 -3 636 12 q 431 -17 503 -17 q 292 6 355 -17 q 182 74 229 29 q 111 186 136 119 q 85 340 85 253 q 101 496 85 421 q 150 636 118 571 q 230 754 182 701 q 337 845 277 807 q 472 904 398 883 q 631 924 546 924 m 390 -225 q 345 -189 390 -189 l 368 -74 q 390 -73 380 -73 q 451 -81 426 -73 q 493 -103 477 -89 q 517 -137 509 -117 q 524 -179 524 -156 q 504 -257 524 -220 q 450 -332 484 -294 l 325 -332 q 349 -304 338 -318 q 370 -276 361 -290 q 385 -250 379 -262 q 390 -225 390 -237 z "},"Ĥ":{"ha":924,"x_min":41,"x_max":947,"o":"m 317 534 l 704 534 l 781 907 l 947 907 l 759 0 l 593 0 l 675 395 l 288 395 l 206 0 l 41 0 l 229 907 l 394 907 l 317 534 m 554 1123 l 694 1123 l 806 956 l 670 956 l 613 1041 l 610 1041 l 517 956 l 373 956 l 554 1123 m 251 907 z "},"Ħ":{"ha":924,"x_min":41,"x_max":1023,"o":"m 105 797 l 205 797 l 229 907 l 394 907 l 371 797 l 758 797 l 781 907 l 947 907 l 924 797 l 1023 797 l 996 663 l 896 663 l 759 0 l 593 0 l 675 395 l 288 395 l 206 0 l 41 0 l 178 663 l 77 663 l 105 797 m 704 534 l 730 663 l 343 663 l 317 534 l 704 534 z "},"Ì":{"ha":374,"x_min":-26,"x_max":406,"o":"m 41 0 l 229 907 l 394 907 l 206 0 l 41 0 m 347 1123 l 406 956 l 283 956 l 189 1123 l 347 1123 m -26 907 z "},"Í":{"ha":374,"x_min":41,"x_max":534,"o":"m 41 0 l 229 907 l 394 907 l 206 0 l 41 0 m 534 1123 l 371 956 l 239 956 l 368 1123 l 534 1123 m 52 907 z "},"Î":{"ha":374,"x_min":-20,"x_max":534,"o":"m 41 0 l 229 907 l 394 907 l 206 0 l 41 0 m 283 1123 l 422 1123 l 534 956 l 399 956 l 342 1041 l 339 1041 l 246 956 l 102 956 l 283 1123 m -20 907 z "},"Ĩ":{"ha":374,"x_min":-24,"x_max":576,"o":"m 41 0 l 229 907 l 394 907 l 206 0 l 41 0 m 576 1118 q 559 1050 572 1080 q 527 997 547 1019 q 481 963 507 975 q 422 951 454 951 q 370 962 395 951 q 323 985 345 972 q 286 1005 303 996 q 253 1014 269 1014 q 223 1001 234 1014 q 207 957 213 988 l 94 957 q 110 1025 98 994 q 142 1077 123 1055 q 189 1111 162 1099 q 247 1123 215 1123 q 300 1113 274 1123 q 348 1089 326 1102 q 385 1069 368 1078 q 416 1061 401 1061 q 446 1074 435 1061 q 463 1118 456 1086 l 576 1118 m -24 907 z "},"Ï":{"ha":374,"x_min":-10,"x_max":577,"o":"m 41 0 l 229 907 l 394 907 l 206 0 l 41 0 m 146 1135 l 298 1135 l 266 982 l 114 982 l 146 1135 m 425 1135 l 577 1135 l 545 982 l 393 982 l 425 1135 m -10 907 z "},"Ī":{"ha":374,"x_min":-20,"x_max":537,"o":"m 41 0 l 229 907 l 394 907 l 206 0 l 41 0 m 157 1097 l 537 1097 l 513 982 l 134 982 l 157 1097 m -20 907 z "},"Ĭ":{"ha":374,"x_min":-20,"x_max":584,"o":"m 41 0 l 229 907 l 394 907 l 206 0 l 41 0 m 333 1063 q 394 1081 366 1063 q 437 1139 422 1099 l 584 1139 q 546 1060 570 1095 q 488 1001 522 1025 q 412 964 454 977 q 319 951 370 951 q 230 964 268 951 q 169 1001 193 977 q 136 1055 144 1025 q 127 1112 127 1084 q 128 1139 127 1125 l 261 1139 q 261 1133 261 1136 q 280 1080 261 1097 q 333 1063 300 1063 m -20 907 z "},"İ":{"ha":374,"x_min":-8,"x_max":448,"o":"m 41 0 l 229 907 l 394 907 l 206 0 l 41 0 m 244 982 l 279 1156 l 448 1156 l 412 982 l 244 982 m -8 907 z "},"Į":{"ha":374,"x_min":-80,"x_max":394,"o":"m 206 0 q 148 -38 176 -16 q 100 -82 121 -59 q 68 -131 80 -106 q 56 -181 56 -157 q 67 -211 56 -202 q 100 -220 79 -220 q 136 -216 116 -220 q 170 -205 155 -212 l 148 -315 q 104 -327 130 -322 q 54 -332 79 -332 q -4 -323 21 -332 q -46 -298 -29 -315 q -72 -260 -64 -282 q -80 -211 -80 -237 q -68 -144 -80 -176 q -39 -85 -56 -112 q 0 -37 -21 -58 q 41 0 22 -15 l 229 907 l 394 907 l 206 0 z "},"Ĳ":{"ha":896,"x_min":41,"x_max":916,"o":"m 41 0 l 229 907 l 394 907 l 206 0 l 41 0 m 750 907 l 916 907 l 768 196 q 746 123 759 153 q 714 71 733 94 q 621 5 678 28 q 486 -17 564 -17 q 406 -10 441 -17 q 340 9 370 -3 l 368 146 q 419 130 394 136 q 477 123 445 123 q 522 129 500 123 q 561 148 543 135 q 591 181 578 161 q 610 231 604 202 l 750 907 z "},"Ĵ":{"ha":542,"x_min":-14,"x_max":700,"o":"m 397 907 l 562 907 l 414 196 q 393 123 406 153 q 361 71 380 94 q 268 5 325 28 q 132 -17 210 -17 q 52 -10 87 -17 q -14 9 17 -3 l 15 146 q 66 130 41 136 q 123 123 92 123 q 169 129 147 123 q 208 148 190 135 q 238 181 225 161 q 257 231 251 202 l 397 907 m 448 1123 l 588 1123 l 700 956 l 564 956 l 507 1041 l 505 1041 l 412 956 l 267 956 l 448 1123 m 145 907 z "},"Ķ":{"ha":812,"x_min":41,"x_max":894,"o":"m 41 0 l 229 907 l 394 907 l 311 504 l 313 504 l 689 907 l 894 907 l 460 451 l 749 0 l 558 0 l 296 419 l 293 419 l 206 0 l 41 0 m 323 -225 q 277 -189 323 -189 l 301 -74 q 323 -73 313 -73 q 384 -81 359 -73 q 426 -103 410 -89 q 450 -137 442 -117 q 457 -179 457 -156 q 437 -257 457 -220 q 382 -332 417 -294 l 258 -332 q 282 -304 271 -318 q 303 -276 294 -290 q 317 -250 312 -262 q 323 -225 323 -237 z "},"Ĺ":{"ha":747,"x_min":41,"x_max":663,"o":"m 235 139 l 663 139 l 634 0 l 41 0 l 229 907 l 394 907 l 235 139 m 540 1123 l 376 956 l 245 956 l 373 1123 l 540 1123 m 57 907 z "},"Ľ":{"ha":747,"x_min":41,"x_max":667,"o":"m 235 139 l 663 139 l 634 0 l 41 0 l 229 907 l 394 907 l 235 139 m 533 760 q 488 796 533 796 l 511 911 q 525 911 522 911 q 533 911 528 911 q 594 904 568 911 q 636 882 620 896 q 660 848 652 867 q 667 806 667 829 q 647 729 667 766 q 593 652 627 691 l 468 652 q 492 681 481 667 q 513 709 504 695 q 528 735 522 722 q 533 760 533 749 z "},"Ļ":{"ha":747,"x_min":41,"x_max":663,"o":"m 235 139 l 663 139 l 634 0 l 41 0 l 229 907 l 394 907 l 235 139 m 282 -225 q 237 -189 282 -189 l 260 -74 q 282 -73 272 -73 q 343 -81 318 -73 q 385 -103 369 -89 q 409 -137 401 -117 q 416 -179 416 -156 q 396 -257 416 -220 q 342 -332 376 -294 l 217 -332 q 241 -304 230 -318 q 262 -276 253 -290 q 277 -250 271 -262 q 282 -225 282 -237 z "},"Ł":{"ha":747,"x_min":12,"x_max":663,"o":"m 514 477 l 289 401 l 235 139 l 663 139 l 634 0 l 41 0 l 112 345 l 12 311 l 44 470 l 144 504 l 229 907 l 394 907 l 321 560 l 547 635 l 514 477 z "},"Ŀ":{"ha":747,"x_min":41,"x_max":663,"o":"m 235 139 l 663 139 l 634 0 l 41 0 l 229 907 l 394 907 l 235 139 m 448 420 l 484 594 l 652 594 l 616 420 l 448 420 m 196 345 z "},"Ń":{"ha":962,"x_min":41,"x_max":982,"o":"m 633 0 l 447 402 q 338 663 378 549 l 334 663 q 290 405 321 551 l 206 0 l 41 0 l 229 907 l 389 907 l 576 505 q 685 244 644 359 l 689 244 q 732 503 698 333 l 817 907 l 982 907 l 794 0 l 633 0 m 821 1123 l 658 956 l 526 956 l 654 1123 l 821 1123 m 338 907 z "},"Ň":{"ha":962,"x_min":41,"x_max":982,"o":"m 633 0 l 447 402 q 338 663 378 549 l 334 663 q 290 405 321 551 l 206 0 l 41 0 l 229 907 l 389 907 l 576 505 q 685 244 644 359 l 689 244 q 732 503 698 333 l 817 907 l 982 907 l 794 0 l 633 0 m 668 956 l 528 956 l 416 1124 l 551 1124 l 608 1038 l 610 1038 l 703 1124 l 849 1124 l 668 956 m 260 907 z "},"Ñ":{"ha":962,"x_min":41,"x_max":982,"o":"m 633 0 l 447 402 q 338 663 378 549 l 334 663 q 290 405 321 551 l 206 0 l 41 0 l 229 907 l 389 907 l 576 505 q 685 244 644 359 l 689 244 q 732 503 698 333 l 817 907 l 982 907 l 794 0 l 633 0 m 865 1118 q 848 1050 861 1080 q 816 997 836 1019 q 770 963 796 975 q 711 951 743 951 q 659 962 684 951 q 612 985 633 972 q 575 1005 592 996 q 542 1014 557 1014 q 512 1001 523 1014 q 496 957 502 988 l 382 957 q 399 1025 387 994 q 431 1077 412 1055 q 477 1111 451 1099 q 536 1123 504 1123 q 589 1113 563 1123 q 637 1089 615 1102 q 673 1069 656 1078 q 705 1061 690 1061 q 735 1074 724 1061 q 751 1118 745 1086 l 865 1118 m 264 907 z "},"Ņ":{"ha":962,"x_min":41,"x_max":982,"o":"m 633 0 l 447 402 q 338 663 378 549 l 334 663 q 290 405 321 551 l 206 0 l 41 0 l 229 907 l 389 907 l 576 505 q 685 244 644 359 l 689 244 q 732 503 698 333 l 817 907 l 982 907 l 794 0 l 633 0 m 376 -225 q 331 -189 376 -189 l 355 -74 q 376 -73 366 -73 q 438 -81 412 -73 q 479 -103 463 -89 q 503 -137 496 -117 q 511 -179 511 -156 q 491 -257 511 -220 q 436 -332 471 -294 l 311 -332 q 336 -304 324 -318 q 356 -276 347 -290 q 371 -250 366 -262 q 376 -225 376 -237 z "},"Ò":{"ha":979,"x_min":85,"x_max":952,"o":"m 589 784 q 488 765 534 784 q 405 713 442 746 q 338 636 367 680 q 290 542 309 592 q 261 438 271 492 q 251 332 251 384 q 264 242 251 281 q 303 176 278 203 q 366 137 329 150 q 448 123 402 123 q 549 142 503 123 q 632 194 595 161 q 699 271 670 227 q 747 366 728 315 q 776 470 766 416 q 786 575 786 524 q 733 731 786 678 q 589 784 681 784 m 601 924 q 745 902 680 924 q 856 837 810 880 q 927 728 902 793 q 952 578 952 663 q 941 461 952 526 q 905 331 930 397 q 840 202 880 264 q 742 91 800 139 q 609 13 685 42 q 436 -17 533 -17 q 292 5 357 -17 q 181 71 227 27 q 110 179 135 115 q 85 329 85 244 q 96 446 85 382 q 132 577 107 511 q 197 706 157 643 q 295 817 237 768 q 428 895 352 865 q 601 924 504 924 m 619 1123 l 678 956 l 555 956 l 460 1123 l 619 1123 m 246 907 z "},"Ó":{"ha":979,"x_min":85,"x_max":952,"o":"m 589 784 q 488 765 534 784 q 405 713 442 746 q 338 636 367 680 q 290 542 309 592 q 261 438 271 492 q 251 332 251 384 q 264 242 251 281 q 303 176 278 203 q 366 137 329 150 q 448 123 402 123 q 549 142 503 123 q 632 194 595 161 q 699 271 670 227 q 747 366 728 315 q 776 470 766 416 q 786 575 786 524 q 733 731 786 678 q 589 784 681 784 m 601 924 q 745 902 680 924 q 856 837 810 880 q 927 728 902 793 q 952 578 952 663 q 941 461 952 526 q 905 331 930 397 q 840 202 880 264 q 742 91 800 139 q 609 13 685 42 q 436 -17 533 -17 q 292 5 357 -17 q 181 71 227 27 q 110 179 135 115 q 85 329 85 244 q 96 446 85 382 q 132 577 107 511 q 197 706 157 643 q 295 817 237 768 q 428 895 352 865 q 601 924 504 924 m 848 1123 l 685 956 l 553 956 l 682 1123 l 848 1123 m 366 907 z "},"Ô":{"ha":979,"x_min":85,"x_max":952,"o":"m 589 784 q 488 765 534 784 q 405 713 442 746 q 338 636 367 680 q 290 542 309 592 q 261 438 271 492 q 251 332 251 384 q 264 242 251 281 q 303 176 278 203 q 366 137 329 150 q 448 123 402 123 q 549 142 503 123 q 632 194 595 161 q 699 271 670 227 q 747 366 728 315 q 776 470 766 416 q 786 575 786 524 q 733 731 786 678 q 589 784 681 784 m 601 924 q 745 902 680 924 q 856 837 810 880 q 927 728 902 793 q 952 578 952 663 q 941 461 952 526 q 905 331 930 397 q 840 202 880 264 q 742 91 800 139 q 609 13 685 42 q 436 -17 533 -17 q 292 5 357 -17 q 181 71 227 27 q 110 179 135 115 q 85 329 85 244 q 96 446 85 382 q 132 577 107 511 q 197 706 157 643 q 295 817 237 768 q 428 895 352 865 q 601 924 504 924 m 578 1123 l 718 1123 l 829 956 l 694 956 l 637 1041 l 634 1041 l 541 956 l 397 956 l 578 1123 m 275 907 z "},"Õ":{"ha":979,"x_min":85,"x_max":952,"o":"m 589 784 q 488 765 534 784 q 405 713 442 746 q 338 636 367 680 q 290 542 309 592 q 261 438 271 492 q 251 332 251 384 q 264 242 251 281 q 303 176 278 203 q 366 137 329 150 q 448 123 402 123 q 549 142 503 123 q 632 194 595 161 q 699 271 670 227 q 747 366 728 315 q 776 470 766 416 q 786 575 786 524 q 733 731 786 678 q 589 784 681 784 m 601 924 q 745 902 680 924 q 856 837 810 880 q 927 728 902 793 q 952 578 952 663 q 941 461 952 526 q 905 331 930 397 q 840 202 880 264 q 742 91 800 139 q 609 13 685 42 q 436 -17 533 -17 q 292 5 357 -17 q 181 71 227 27 q 110 179 135 115 q 85 329 85 244 q 96 446 85 382 q 132 577 107 511 q 197 706 157 643 q 295 817 237 768 q 428 895 352 865 q 601 924 504 924 m 878 1118 q 862 1050 874 1080 q 829 997 849 1019 q 783 963 810 975 q 725 951 757 951 q 672 962 697 951 q 625 985 647 972 q 588 1005 606 996 q 555 1014 571 1014 q 526 1001 536 1014 q 509 957 515 988 l 396 957 q 413 1025 400 994 q 445 1077 425 1055 q 491 1111 465 1099 q 549 1123 517 1123 q 603 1113 576 1123 q 650 1089 629 1102 q 687 1069 670 1078 q 719 1061 704 1061 q 748 1074 738 1061 q 765 1118 759 1086 l 878 1118 m 278 907 z "},"Ö":{"ha":979,"x_min":85,"x_max":952,"o":"m 589 784 q 488 765 534 784 q 405 713 442 746 q 338 636 367 680 q 290 542 309 592 q 261 438 271 492 q 251 332 251 384 q 264 242 251 281 q 303 176 278 203 q 366 137 329 150 q 448 123 402 123 q 549 142 503 123 q 632 194 595 161 q 699 271 670 227 q 747 366 728 315 q 776 470 766 416 q 786 575 786 524 q 733 731 786 678 q 589 784 681 784 m 601 924 q 745 902 680 924 q 856 837 810 880 q 927 728 902 793 q 952 578 952 663 q 941 461 952 526 q 905 331 930 397 q 840 202 880 264 q 742 91 800 139 q 609 13 685 42 q 436 -17 533 -17 q 292 5 357 -17 q 181 71 227 27 q 110 179 135 115 q 85 329 85 244 q 96 446 85 382 q 132 577 107 511 q 197 706 157 643 q 295 817 237 768 q 428 895 352 865 q 601 924 504 924 m 439 1135 l 591 1135 l 559 982 l 408 982 l 439 1135 m 719 1135 l 871 1135 l 839 982 l 687 982 l 719 1135 m 283 907 z "},"Ō":{"ha":979,"x_min":85,"x_max":952,"o":"m 589 784 q 488 765 534 784 q 405 713 442 746 q 338 636 367 680 q 290 542 309 592 q 261 438 271 492 q 251 332 251 384 q 264 242 251 281 q 303 176 278 203 q 366 137 329 150 q 448 123 402 123 q 549 142 503 123 q 632 194 595 161 q 699 271 670 227 q 747 366 728 315 q 776 470 766 416 q 786 575 786 524 q 733 731 786 678 q 589 784 681 784 m 601 924 q 745 902 680 924 q 856 837 810 880 q 927 728 902 793 q 952 578 952 663 q 941 461 952 526 q 905 331 930 397 q 840 202 880 264 q 742 91 800 139 q 609 13 685 42 q 436 -17 533 -17 q 292 5 357 -17 q 181 71 227 27 q 110 179 135 115 q 85 329 85 244 q 96 446 85 382 q 132 577 107 511 q 197 706 157 643 q 295 817 237 768 q 428 895 352 865 q 601 924 504 924 m 454 1097 l 833 1097 l 810 982 l 430 982 l 454 1097 m 276 907 z "},"Ŏ":{"ha":979,"x_min":85,"x_max":952,"o":"m 589 784 q 488 765 534 784 q 405 713 442 746 q 338 636 367 680 q 290 542 309 592 q 261 438 271 492 q 251 332 251 384 q 264 242 251 281 q 303 176 278 203 q 366 137 329 150 q 448 123 402 123 q 549 142 503 123 q 632 194 595 161 q 699 271 670 227 q 747 366 728 315 q 776 470 766 416 q 786 575 786 524 q 733 731 786 678 q 589 784 681 784 m 601 924 q 745 902 680 924 q 856 837 810 880 q 927 728 902 793 q 952 578 952 663 q 941 461 952 526 q 905 331 930 397 q 840 202 880 264 q 742 91 800 139 q 609 13 685 42 q 436 -17 533 -17 q 292 5 357 -17 q 181 71 227 27 q 110 179 135 115 q 85 329 85 244 q 96 446 85 382 q 132 577 107 511 q 197 706 157 643 q 295 817 237 768 q 428 895 352 865 q 601 924 504 924 m 642 1063 q 703 1081 675 1063 q 746 1139 730 1099 l 892 1139 q 854 1060 878 1095 q 797 1001 830 1025 q 721 964 763 977 q 627 951 678 951 q 539 964 576 951 q 477 1001 501 977 q 444 1055 453 1025 q 435 1112 435 1084 q 437 1139 435 1125 l 570 1139 q 570 1133 570 1136 q 589 1080 570 1097 q 642 1063 608 1063 m 289 907 z "},"Ő":{"ha":979,"x_min":85,"x_max":957,"o":"m 589 784 q 488 765 534 784 q 405 713 442 746 q 338 636 367 680 q 290 542 309 592 q 261 438 271 492 q 251 332 251 384 q 264 242 251 281 q 303 176 278 203 q 366 137 329 150 q 448 123 402 123 q 549 142 503 123 q 632 194 595 161 q 699 271 670 227 q 747 366 728 315 q 776 470 766 416 q 786 575 786 524 q 733 731 786 678 q 589 784 681 784 m 601 924 q 745 902 680 924 q 856 837 810 880 q 927 728 902 793 q 952 578 952 663 q 941 461 952 526 q 905 331 930 397 q 840 202 880 264 q 742 91 800 139 q 609 13 685 42 q 436 -17 533 -17 q 292 5 357 -17 q 181 71 227 27 q 110 179 135 115 q 85 329 85 244 q 96 446 85 382 q 132 577 107 511 q 197 706 157 643 q 295 817 237 768 q 428 895 352 865 q 601 924 504 924 m 735 1123 l 572 956 l 448 956 l 576 1123 l 735 1123 m 957 1123 l 782 956 l 656 956 l 795 1123 l 957 1123 m 345 907 z "},"Ø":{"ha":979,"x_min":37,"x_max":1000,"o":"m 130 -17 l 37 76 l 119 157 q 94 235 102 193 q 85 329 85 278 q 96 446 85 382 q 132 577 107 511 q 197 706 157 643 q 295 817 237 768 q 428 895 352 865 q 601 924 504 924 q 731 907 672 924 q 835 854 790 889 l 907 924 l 1000 831 l 917 751 q 952 578 952 678 q 941 461 952 526 q 905 331 930 397 q 840 202 880 264 q 742 91 800 139 q 609 13 685 42 q 436 -17 533 -17 q 305 1 364 -17 q 201 54 246 18 l 130 -17 m 454 123 q 553 142 507 123 q 635 194 598 161 q 702 271 673 227 q 750 366 730 315 q 780 470 770 416 q 790 575 790 524 q 787 624 790 597 l 315 163 q 454 123 366 123 m 583 784 q 485 765 530 784 q 401 713 439 746 q 335 636 364 680 q 287 542 307 592 q 257 438 267 492 q 247 332 247 384 q 250 284 247 304 l 722 744 q 583 784 670 784 z "},"Ǿ":{"ha":979,"x_min":37,"x_max":1000,"o":"m 130 -17 l 37 76 l 119 157 q 94 235 102 193 q 85 329 85 278 q 96 446 85 382 q 132 577 107 511 q 197 706 157 643 q 295 817 237 768 q 428 895 352 865 q 601 924 504 924 q 731 907 672 924 q 835 854 790 889 l 907 924 l 1000 831 l 917 751 q 952 578 952 678 q 941 461 952 526 q 905 331 930 397 q 840 202 880 264 q 742 91 800 139 q 609 13 685 42 q 436 -17 533 -17 q 305 1 364 -17 q 201 54 246 18 l 130 -17 m 454 123 q 553 142 507 123 q 635 194 598 161 q 702 271 673 227 q 750 366 730 315 q 780 470 770 416 q 790 575 790 524 q 787 624 790 597 l 315 163 q 454 123 366 123 m 583 784 q 485 765 530 784 q 401 713 439 746 q 335 636 364 680 q 287 542 307 592 q 257 438 267 492 q 247 332 247 384 q 250 284 247 304 l 722 744 q 583 784 670 784 m 854 1123 l 690 956 l 559 956 l 687 1123 l 854 1123 m 371 907 z "},"Œ":{"ha":1395,"x_min":85,"x_max":1436,"o":"m 415 -17 q 283 5 344 -17 q 178 71 222 27 q 110 179 134 115 q 85 329 85 244 q 96 446 85 382 q 132 577 108 511 q 196 706 157 643 q 290 817 235 768 q 418 895 345 865 q 581 924 491 924 q 841 797 759 924 l 844 797 l 867 907 l 1436 907 l 1407 768 l 1004 768 l 955 534 l 1301 534 l 1272 395 l 926 395 l 873 139 l 1301 139 l 1272 0 l 679 0 l 699 96 l 696 96 q 574 14 643 45 q 415 -17 505 -17 m 585 784 q 486 765 532 784 q 403 713 440 746 q 337 636 366 680 q 290 542 309 592 q 261 438 271 492 q 251 332 251 384 q 264 242 251 281 q 302 176 278 203 q 362 137 327 150 q 439 123 397 123 q 543 142 496 123 q 629 194 591 161 q 697 271 668 227 q 746 366 726 315 q 776 470 766 416 q 786 575 786 524 q 771 666 786 627 q 730 731 756 705 q 666 771 703 758 q 585 784 629 784 z "},"Ŕ":{"ha":829,"x_min":41,"x_max":823,"o":"m 206 0 l 41 0 l 229 907 l 474 907 q 575 903 533 907 q 650 890 618 899 q 781 808 739 864 q 823 677 823 753 q 807 574 823 623 q 759 488 792 526 q 675 420 726 449 q 552 376 624 392 l 552 373 l 753 0 l 570 0 l 389 351 l 279 351 l 206 0 m 308 490 l 372 490 q 453 493 417 490 q 517 505 489 496 q 619 562 582 522 q 656 665 656 602 q 642 722 656 697 q 593 758 627 746 q 551 766 576 763 q 486 768 525 768 l 366 768 l 308 490 m 730 1123 l 567 956 l 435 956 l 564 1123 l 730 1123 m 248 907 z "},"Ř":{"ha":829,"x_min":41,"x_max":823,"o":"m 206 0 l 41 0 l 229 907 l 474 907 q 575 903 533 907 q 650 890 618 899 q 781 808 739 864 q 823 677 823 753 q 807 574 823 623 q 759 488 792 526 q 675 420 726 449 q 552 376 624 392 l 552 373 l 753 0 l 570 0 l 389 351 l 279 351 l 206 0 m 308 490 l 372 490 q 453 493 417 490 q 517 505 489 496 q 619 562 582 522 q 656 665 656 602 q 642 722 656 697 q 593 758 627 746 q 551 766 576 763 q 486 768 525 768 l 366 768 l 308 490 m 580 956 l 440 956 l 328 1124 l 463 1124 l 519 1038 l 522 1038 l 615 1124 l 761 1124 l 580 956 m 172 907 z "},"Ŗ":{"ha":829,"x_min":41,"x_max":823,"o":"m 206 0 l 41 0 l 229 907 l 474 907 q 575 903 533 907 q 650 890 618 899 q 781 808 739 864 q 823 677 823 753 q 807 574 823 623 q 759 488 792 526 q 675 420 726 449 q 552 376 624 392 l 552 373 l 753 0 l 570 0 l 389 351 l 279 351 l 206 0 m 308 490 l 372 490 q 453 493 417 490 q 517 505 489 496 q 619 562 582 522 q 656 665 656 602 q 642 722 656 697 q 593 758 627 746 q 551 766 576 763 q 486 768 525 768 l 366 768 l 308 490 m 330 -225 q 284 -189 330 -189 l 308 -74 q 330 -73 319 -73 q 391 -81 366 -73 q 433 -103 416 -89 q 456 -137 449 -117 q 464 -179 464 -156 q 444 -257 464 -220 q 389 -332 424 -294 l 264 -332 q 289 -304 277 -318 q 310 -276 300 -290 q 324 -250 319 -262 q 330 -225 330 -237 z "},"Ś":{"ha":782,"x_min":22,"x_max":762,"o":"m 530 283 q 513 334 530 315 q 470 367 496 354 q 408 390 443 380 q 336 410 373 399 q 257 442 294 424 q 193 487 220 460 q 150 552 165 514 q 134 640 134 590 q 158 756 134 704 q 224 846 181 809 q 328 904 267 884 q 465 924 389 924 q 623 907 545 924 q 762 864 702 890 l 732 726 q 596 770 656 757 q 475 784 536 784 q 349 750 395 784 q 304 659 304 716 q 316 607 304 629 q 349 571 328 586 q 396 546 369 557 q 454 526 424 536 q 543 497 498 513 q 622 457 587 481 q 679 393 657 432 q 701 298 701 355 q 672 165 701 224 q 592 66 644 107 q 467 4 541 26 q 302 -17 393 -17 q 211 -11 254 -17 q 131 4 167 -5 q 66 25 94 14 q 22 46 39 36 l 51 183 q 167 141 102 158 q 303 123 231 123 q 396 134 355 123 q 468 165 438 145 q 513 215 497 185 q 530 283 530 245 m 703 1123 l 540 956 l 408 956 l 536 1123 l 703 1123 m 220 907 z "},"Ŝ":{"ha":782,"x_min":22,"x_max":762,"o":"m 530 283 q 513 334 530 315 q 470 367 496 354 q 408 390 443 380 q 336 410 373 399 q 257 442 294 424 q 193 487 220 460 q 150 552 165 514 q 134 640 134 590 q 158 756 134 704 q 224 846 181 809 q 328 904 267 884 q 465 924 389 924 q 623 907 545 924 q 762 864 702 890 l 732 726 q 596 770 656 757 q 475 784 536 784 q 349 750 395 784 q 304 659 304 716 q 316 607 304 629 q 349 571 328 586 q 396 546 369 557 q 454 526 424 536 q 543 497 498 513 q 622 457 587 481 q 679 393 657 432 q 701 298 701 355 q 672 165 701 224 q 592 66 644 107 q 467 4 541 26 q 302 -17 393 -17 q 211 -11 254 -17 q 131 4 167 -5 q 66 25 94 14 q 22 46 39 36 l 51 183 q 167 141 102 158 q 303 123 231 123 q 396 134 355 123 q 468 165 438 145 q 513 215 497 185 q 530 283 530 245 m 462 1123 l 602 1123 l 713 956 l 578 956 l 521 1041 l 518 1041 l 425 956 l 281 956 l 462 1123 m 159 907 z "},"Š":{"ha":782,"x_min":22,"x_max":762,"o":"m 530 283 q 513 334 530 315 q 470 367 496 354 q 408 390 443 380 q 336 410 373 399 q 257 442 294 424 q 193 487 220 460 q 150 552 165 514 q 134 640 134 590 q 158 756 134 704 q 224 846 181 809 q 328 904 267 884 q 465 924 389 924 q 623 907 545 924 q 762 864 702 890 l 732 726 q 596 770 656 757 q 475 784 536 784 q 349 750 395 784 q 304 659 304 716 q 316 607 304 629 q 349 571 328 586 q 396 546 369 557 q 454 526 424 536 q 543 497 498 513 q 622 457 587 481 q 679 393 657 432 q 701 298 701 355 q 672 165 701 224 q 592 66 644 107 q 467 4 541 26 q 302 -17 393 -17 q 211 -11 254 -17 q 131 4 167 -5 q 66 25 94 14 q 22 46 39 36 l 51 183 q 167 141 102 158 q 303 123 231 123 q 396 134 355 123 q 468 165 438 145 q 513 215 497 185 q 530 283 530 245 m 557 956 l 418 956 l 306 1124 l 440 1124 l 497 1038 l 500 1038 l 593 1124 l 739 1124 l 557 956 m 149 907 z "},"Ş":{"ha":782,"x_min":22,"x_max":762,"o":"m 701 298 q 675 172 701 228 q 604 76 650 117 q 492 13 557 36 q 344 -16 426 -11 l 319 -80 q 374 -92 352 -83 q 411 -115 397 -101 q 431 -146 425 -129 q 437 -184 437 -164 q 421 -243 437 -216 q 376 -290 406 -271 q 306 -321 347 -310 q 215 -332 265 -332 q 161 -328 189 -332 q 119 -318 134 -324 l 139 -222 q 212 -232 169 -232 q 285 -217 260 -232 q 310 -183 310 -202 q 195 -146 310 -145 l 243 -14 q 171 -5 205 -12 q 109 10 137 2 q 58 28 80 18 q 22 46 36 37 l 51 183 q 167 141 102 158 q 303 123 231 123 q 396 134 355 123 q 468 165 438 145 q 513 216 497 186 q 530 283 530 245 q 513 334 530 315 q 470 367 496 354 q 408 390 443 380 q 336 410 373 399 q 257 442 294 424 q 193 487 220 460 q 150 552 165 514 q 134 640 134 590 q 158 756 134 704 q 224 846 181 809 q 328 904 267 884 q 465 924 389 924 q 623 907 545 924 q 762 864 702 890 l 732 726 q 596 770 656 757 q 475 784 536 784 q 349 750 395 784 q 304 659 304 716 q 316 607 304 629 q 349 571 328 586 q 396 546 369 557 q 454 526 424 536 q 543 497 498 513 q 622 457 587 481 q 679 393 657 432 q 701 298 701 355 z "},"Ș":{"ha":782,"x_min":22,"x_max":762,"o":"m 530 283 q 513 334 530 315 q 470 367 496 354 q 408 390 443 380 q 336 410 373 399 q 257 442 294 424 q 193 487 220 460 q 150 552 165 514 q 134 640 134 590 q 158 756 134 704 q 224 846 181 809 q 328 904 267 884 q 465 924 389 924 q 623 907 545 924 q 762 864 702 890 l 732 726 q 596 770 656 757 q 475 784 536 784 q 349 750 395 784 q 304 659 304 716 q 316 607 304 629 q 349 571 328 586 q 396 546 369 557 q 454 526 424 536 q 543 497 498 513 q 622 457 587 481 q 679 393 657 432 q 701 298 701 355 q 672 165 701 224 q 592 66 644 107 q 467 4 541 26 q 302 -17 393 -17 q 211 -11 254 -17 q 131 4 167 -5 q 66 25 94 14 q 22 46 39 36 l 51 183 q 167 141 102 158 q 303 123 231 123 q 396 134 355 123 q 468 165 438 145 q 513 215 497 185 q 530 283 530 245 m 258 -225 q 212 -189 258 -189 l 236 -74 q 258 -73 248 -73 q 319 -81 294 -73 q 361 -103 345 -89 q 385 -137 377 -117 q 392 -179 392 -156 q 372 -257 392 -220 q 317 -332 352 -294 l 193 -332 q 217 -304 205 -318 q 238 -276 229 -290 q 252 -250 247 -262 q 258 -225 258 -237 z "},"Ť":{"ha":787,"x_min":119,"x_max":882,"o":"m 410 0 l 244 0 l 404 768 l 119 768 l 146 907 l 882 907 l 854 768 l 569 768 l 410 0 m 585 956 l 445 956 l 333 1124 l 467 1124 l 524 1038 l 527 1038 l 620 1124 l 766 1124 l 585 956 m 176 907 z "},"Ţ":{"ha":787,"x_min":119,"x_max":882,"o":"m 410 0 l 244 0 l 404 768 l 119 768 l 146 907 l 882 907 l 854 768 l 569 768 l 410 0 m 252 -225 q 206 -189 252 -189 l 230 -74 q 252 -73 241 -73 q 313 -81 288 -73 q 355 -103 338 -89 q 378 -137 371 -117 q 386 -179 386 -156 q 366 -257 386 -220 q 311 -332 346 -294 l 186 -332 q 211 -304 199 -318 q 232 -276 222 -290 q 246 -250 241 -262 q 252 -225 252 -237 z "},"Ŧ":{"ha":787,"x_min":119,"x_max":882,"o":"m 195 534 l 355 534 l 404 768 l 119 768 l 146 907 l 882 907 l 854 768 l 569 768 l 520 534 l 696 534 l 667 395 l 491 395 l 410 0 l 244 0 l 326 395 l 166 395 l 195 534 z "},"Ù":{"ha":915,"x_min":88,"x_max":942,"o":"m 415 123 q 538 153 486 123 q 625 248 591 182 q 647 302 637 271 q 667 376 657 332 l 777 907 l 942 907 l 825 343 q 803 256 814 292 q 777 190 792 220 q 722 106 755 144 q 644 41 690 68 q 538 -2 598 14 q 399 -17 477 -17 q 255 5 314 -17 q 158 66 195 28 q 105 154 121 104 q 88 260 88 204 q 93 323 88 292 q 104 386 97 354 l 212 907 l 377 907 l 266 368 q 258 322 260 344 q 255 281 255 300 q 263 220 255 248 q 290 170 271 191 q 339 136 309 149 q 415 123 370 123 m 590 1123 l 649 956 l 526 956 l 431 1123 l 590 1123 m 217 907 z "},"Ú":{"ha":915,"x_min":88,"x_max":942,"o":"m 415 123 q 538 153 486 123 q 625 248 591 182 q 647 302 637 271 q 667 376 657 332 l 777 907 l 942 907 l 825 343 q 803 256 814 292 q 777 190 792 220 q 722 106 755 144 q 644 41 690 68 q 538 -2 598 14 q 399 -17 477 -17 q 255 5 314 -17 q 158 66 195 28 q 105 154 121 104 q 88 260 88 204 q 93 323 88 292 q 104 386 97 354 l 212 907 l 377 907 l 266 368 q 258 322 260 344 q 255 281 255 300 q 263 220 255 248 q 290 170 271 191 q 339 136 309 149 q 415 123 370 123 m 795 1123 l 632 956 l 500 956 l 629 1123 l 795 1123 m 313 907 z "},"Û":{"ha":915,"x_min":88,"x_max":942,"o":"m 415 123 q 538 153 486 123 q 625 248 591 182 q 647 302 637 271 q 667 376 657 332 l 777 907 l 942 907 l 825 343 q 803 256 814 292 q 777 190 792 220 q 722 106 755 144 q 644 41 690 68 q 538 -2 598 14 q 399 -17 477 -17 q 255 5 314 -17 q 158 66 195 28 q 105 154 121 104 q 88 260 88 204 q 93 323 88 292 q 104 386 97 354 l 212 907 l 377 907 l 266 368 q 258 322 260 344 q 255 281 255 300 q 263 220 255 248 q 290 170 271 191 q 339 136 309 149 q 415 123 370 123 m 549 1123 l 688 1123 l 800 956 l 665 956 l 608 1041 l 605 1041 l 512 956 l 368 956 l 549 1123 m 245 907 z "},"Ũ":{"ha":915,"x_min":88,"x_max":942,"o":"m 415 123 q 538 153 486 123 q 625 248 591 182 q 647 302 637 271 q 667 376 657 332 l 777 907 l 942 907 l 825 343 q 803 256 814 292 q 777 190 792 220 q 722 106 755 144 q 644 41 690 68 q 538 -2 598 14 q 399 -17 477 -17 q 255 5 314 -17 q 158 66 195 28 q 105 154 121 104 q 88 260 88 204 q 93 323 88 292 q 104 386 97 354 l 212 907 l 377 907 l 266 368 q 258 322 260 344 q 255 281 255 300 q 263 220 255 248 q 290 170 271 191 q 339 136 309 149 q 415 123 370 123 m 846 1118 q 830 1050 842 1080 q 798 997 817 1019 q 751 963 778 975 q 693 951 725 951 q 640 962 665 951 q 593 985 615 972 q 556 1005 574 996 q 524 1014 539 1014 q 494 1001 505 1014 q 477 957 484 988 l 364 957 q 381 1025 368 994 q 413 1077 393 1055 q 459 1111 433 1099 q 517 1123 486 1123 q 571 1113 545 1123 q 618 1089 597 1102 q 655 1069 638 1078 q 687 1061 672 1061 q 716 1074 706 1061 q 733 1118 727 1086 l 846 1118 m 246 907 z "},"Ü":{"ha":915,"x_min":88,"x_max":942,"o":"m 415 123 q 538 153 486 123 q 625 248 591 182 q 647 302 637 271 q 667 376 657 332 l 777 907 l 942 907 l 825 343 q 803 256 814 292 q 777 190 792 220 q 722 106 755 144 q 644 41 690 68 q 538 -2 598 14 q 399 -17 477 -17 q 255 5 314 -17 q 158 66 195 28 q 105 154 121 104 q 88 260 88 204 q 93 323 88 292 q 104 386 97 354 l 212 907 l 377 907 l 266 368 q 258 322 260 344 q 255 281 255 300 q 263 220 255 248 q 290 170 271 191 q 339 136 309 149 q 415 123 370 123 m 405 1135 l 557 1135 l 525 982 l 373 982 l 405 1135 m 684 1135 l 836 1135 l 804 982 l 652 982 l 684 1135 m 249 907 z "},"Ū":{"ha":915,"x_min":88,"x_max":942,"o":"m 415 123 q 538 153 486 123 q 625 248 591 182 q 647 302 637 271 q 667 376 657 332 l 777 907 l 942 907 l 825 343 q 803 256 814 292 q 777 190 792 220 q 722 106 755 144 q 644 41 690 68 q 538 -2 598 14 q 399 -17 477 -17 q 255 5 314 -17 q 158 66 195 28 q 105 154 121 104 q 88 260 88 204 q 93 323 88 292 q 104 386 97 354 l 212 907 l 377 907 l 266 368 q 258 322 260 344 q 255 281 255 300 q 263 220 255 248 q 290 170 271 191 q 339 136 309 149 q 415 123 370 123 m 421 1097 l 801 1097 l 777 982 l 397 982 l 421 1097 m 243 907 z "},"Ŭ":{"ha":915,"x_min":88,"x_max":942,"o":"m 415 123 q 538 153 486 123 q 625 248 591 182 q 647 302 637 271 q 667 376 657 332 l 777 907 l 942 907 l 825 343 q 803 256 814 292 q 777 190 792 220 q 722 106 755 144 q 644 41 690 68 q 538 -2 598 14 q 399 -17 477 -17 q 255 5 314 -17 q 158 66 195 28 q 105 154 121 104 q 88 260 88 204 q 93 323 88 292 q 104 386 97 354 l 212 907 l 377 907 l 266 368 q 258 322 260 344 q 255 281 255 300 q 263 220 255 248 q 290 170 271 191 q 339 136 309 149 q 415 123 370 123 m 586 1063 q 647 1081 619 1063 q 690 1139 675 1099 l 837 1139 q 799 1060 823 1095 q 741 1001 774 1025 q 665 964 707 977 q 572 951 623 951 q 483 964 521 951 q 421 1001 446 977 q 389 1055 397 1025 q 380 1112 380 1084 q 381 1139 380 1125 l 514 1139 q 514 1133 514 1136 q 533 1080 514 1097 q 586 1063 553 1063 m 233 907 z "},"Ů":{"ha":915,"x_min":88,"x_max":942,"o":"m 415 123 q 538 153 486 123 q 625 248 591 182 q 647 302 637 271 q 667 376 657 332 l 777 907 l 942 907 l 825 343 q 803 256 814 292 q 777 190 792 220 q 722 106 755 144 q 644 41 690 68 q 538 -2 598 14 q 399 -17 477 -17 q 255 5 314 -17 q 158 66 195 28 q 105 154 121 104 q 88 260 88 204 q 93 323 88 292 q 104 386 97 354 l 212 907 l 377 907 l 266 368 q 258 322 260 344 q 255 281 255 300 q 263 220 255 248 q 290 170 271 191 q 339 136 309 149 q 415 123 370 123 m 610 1193 q 722 1162 683 1193 q 761 1078 761 1131 q 749 1024 761 1051 q 714 976 737 998 q 655 941 690 954 q 574 927 621 927 q 462 958 501 927 q 423 1042 423 989 q 435 1096 423 1069 q 470 1144 447 1122 q 529 1179 494 1166 q 610 1193 564 1193 m 605 1118 q 544 1097 566 1118 q 522 1046 522 1076 q 536 1014 522 1026 q 579 1002 550 1002 q 640 1023 618 1002 q 662 1074 662 1044 q 648 1106 662 1094 q 605 1118 634 1118 m 239 907 z "},"Ű":{"ha":915,"x_min":88,"x_max":942,"o":"m 415 123 q 538 153 486 123 q 625 248 591 182 q 647 302 637 271 q 667 376 657 332 l 777 907 l 942 907 l 825 343 q 803 256 814 292 q 777 190 792 220 q 722 106 755 144 q 644 41 690 68 q 538 -2 598 14 q 399 -17 477 -17 q 255 5 314 -17 q 158 66 195 28 q 105 154 121 104 q 88 260 88 204 q 93 323 88 292 q 104 386 97 354 l 212 907 l 377 907 l 266 368 q 258 322 260 344 q 255 281 255 300 q 263 220 255 248 q 290 170 271 191 q 339 136 309 149 q 415 123 370 123 m 694 1123 l 530 956 l 407 956 l 535 1123 l 694 1123 m 916 1123 l 741 956 l 614 956 l 754 1123 l 916 1123 m 303 907 z "},"Ų":{"ha":915,"x_min":88,"x_max":942,"o":"m 393 -15 q 251 7 310 -15 q 157 68 193 30 q 104 155 121 106 q 88 260 88 205 q 93 323 88 292 q 104 386 97 354 l 212 907 l 377 907 l 266 368 q 258 322 260 344 q 255 281 255 300 q 263 220 255 248 q 290 170 271 191 q 339 136 309 149 q 415 123 370 123 q 538 153 486 123 q 625 248 591 182 q 647 302 637 271 q 667 376 657 332 l 777 907 l 942 907 l 825 343 q 797 239 813 283 q 761 162 781 195 q 714 103 741 128 q 656 56 688 77 q 567 -3 611 26 q 487 -60 522 -32 q 430 -119 452 -89 q 408 -181 408 -149 q 419 -211 408 -201 q 452 -220 431 -220 q 488 -216 468 -220 q 522 -205 507 -212 l 500 -315 q 456 -327 482 -322 q 406 -332 431 -332 q 352 -325 377 -332 q 310 -303 328 -317 q 282 -267 292 -288 q 272 -218 272 -245 q 281 -164 272 -191 q 307 -111 290 -136 q 345 -61 323 -85 q 393 -18 367 -37 l 393 -15 z "},"Ẁ":{"ha":1257,"x_min":146,"x_max":1352,"o":"m 649 907 l 826 907 l 838 543 q 842 237 844 359 l 847 237 q 1004 581 918 408 l 1169 907 l 1352 907 l 880 0 l 709 0 l 700 321 q 696 660 696 486 l 692 660 q 570 325 648 520 l 439 0 l 271 0 l 146 907 l 315 907 l 355 578 q 388 237 379 367 l 392 237 q 507 559 429 363 l 649 907 m 770 1123 l 829 956 l 705 956 l 611 1123 l 770 1123 m 397 907 z "},"Ẃ":{"ha":1257,"x_min":146,"x_max":1352,"o":"m 649 907 l 826 907 l 838 543 q 842 237 844 359 l 847 237 q 1004 581 918 408 l 1169 907 l 1352 907 l 880 0 l 709 0 l 700 321 q 696 660 696 486 l 692 660 q 570 325 648 520 l 439 0 l 271 0 l 146 907 l 315 907 l 355 578 q 388 237 379 367 l 392 237 q 507 559 429 363 l 649 907 m 968 1123 l 805 956 l 673 956 l 802 1123 l 968 1123 m 486 907 z "},"Ŵ":{"ha":1257,"x_min":146,"x_max":1352,"o":"m 649 907 l 826 907 l 838 543 q 842 237 844 359 l 847 237 q 1004 581 918 408 l 1169 907 l 1352 907 l 880 0 l 709 0 l 700 321 q 696 660 696 486 l 692 660 q 570 325 648 520 l 439 0 l 271 0 l 146 907 l 315 907 l 355 578 q 388 237 379 367 l 392 237 q 507 559 429 363 l 649 907 m 706 1123 l 846 1123 l 958 956 l 822 956 l 765 1041 l 762 1041 l 669 956 l 525 956 l 706 1123 m 403 907 z "},"Ẅ":{"ha":1257,"x_min":146,"x_max":1352,"o":"m 649 907 l 826 907 l 838 543 q 842 237 844 359 l 847 237 q 1004 581 918 408 l 1169 907 l 1352 907 l 880 0 l 709 0 l 700 321 q 696 660 696 486 l 692 660 q 570 325 648 520 l 439 0 l 271 0 l 146 907 l 315 907 l 355 578 q 388 237 379 367 l 392 237 q 507 559 429 363 l 649 907 m 570 1135 l 722 1135 l 690 982 l 538 982 l 570 1135 m 849 1135 l 1001 1135 l 969 982 l 817 982 l 849 1135 m 414 907 z "},"Ỳ":{"ha":788,"x_min":132,"x_max":897,"o":"m 273 0 l 349 367 l 132 907 l 302 907 l 452 526 l 708 907 l 897 907 l 514 363 l 439 0 l 273 0 m 516 1123 l 575 956 l 452 956 l 357 1123 l 516 1123 m 143 907 z "},"Ý":{"ha":788,"x_min":132,"x_max":897,"o":"m 273 0 l 349 367 l 132 907 l 302 907 l 452 526 l 708 907 l 897 907 l 514 363 l 439 0 l 273 0 m 726 1123 l 563 956 l 431 956 l 559 1123 l 726 1123 m 243 907 z "},"Ŷ":{"ha":788,"x_min":132,"x_max":897,"o":"m 273 0 l 349 367 l 132 907 l 302 907 l 452 526 l 708 907 l 897 907 l 514 363 l 439 0 l 273 0 m 471 1123 l 610 1123 l 722 956 l 587 956 l 530 1041 l 527 1041 l 434 956 l 290 956 l 471 1123 m 168 907 z "},"Ÿ":{"ha":788,"x_min":132,"x_max":897,"o":"m 273 0 l 349 367 l 132 907 l 302 907 l 452 526 l 708 907 l 897 907 l 514 363 l 439 0 l 273 0 m 332 1135 l 484 1135 l 452 982 l 300 982 l 332 1135 m 611 1135 l 763 1135 l 731 982 l 579 982 l 611 1135 m 176 907 z "},"Ź":{"ha":833,"x_min":0,"x_max":867,"o":"m 21 92 l 614 768 l 163 768 l 191 907 l 867 907 l 848 815 l 255 139 l 728 139 l 699 0 l 0 0 l 21 92 m 736 1123 l 572 956 l 441 956 l 569 1123 l 736 1123 m 253 907 z "},"Ž":{"ha":833,"x_min":0,"x_max":867,"o":"m 21 92 l 614 768 l 163 768 l 191 907 l 867 907 l 848 815 l 255 139 l 728 139 l 699 0 l 0 0 l 21 92 m 594 956 l 454 956 l 342 1124 l 477 1124 l 534 1038 l 536 1038 l 629 1124 l 775 1124 l 594 956 m 186 907 z "},"Ż":{"ha":833,"x_min":0,"x_max":867,"o":"m 21 92 l 614 768 l 163 768 l 191 907 l 867 907 l 848 815 l 255 139 l 728 139 l 699 0 l 0 0 l 21 92 m 440 982 l 475 1156 l 644 1156 l 608 982 l 440 982 m 188 907 z "},"Ŋ":{"ha":962,"x_min":41,"x_max":982,"o":"m 982 907 l 783 -52 q 759 -135 774 -94 q 714 -209 743 -176 q 639 -260 685 -241 q 524 -280 593 -280 q 479 -277 502 -280 q 444 -270 456 -274 l 471 -138 q 513 -144 492 -144 q 559 -136 539 -144 q 593 -111 578 -128 q 617 -66 607 -94 q 633 0 627 -39 l 447 402 q 338 663 378 549 l 334 663 q 290 405 321 551 l 206 0 l 41 0 l 229 907 l 389 907 l 576 505 q 685 244 644 359 l 689 244 q 732 503 698 333 l 817 907 l 982 907 z "},"Ð":{"ha":972,"x_min":47,"x_max":945,"o":"m 77 534 l 186 534 l 264 907 l 534 907 q 656 899 604 907 q 751 873 709 890 q 838 823 801 853 q 898 753 874 792 q 933 666 922 713 q 945 566 945 619 q 939 489 945 533 q 919 396 933 445 q 881 297 905 347 q 820 199 857 246 q 731 113 783 153 q 612 45 680 73 q 492 12 558 24 q 335 0 425 0 l 76 0 l 157 395 l 47 395 l 77 534 m 352 534 l 577 534 l 549 395 l 323 395 l 270 139 l 372 139 q 484 150 436 139 q 572 182 532 161 q 661 248 623 208 q 725 337 699 288 q 764 441 751 386 q 779 554 777 497 q 755 676 780 629 q 675 747 730 724 q 613 763 648 758 q 527 768 578 768 l 401 768 l 352 534 z "},"Þ":{"ha":807,"x_min":41,"x_max":773,"o":"m 359 740 l 421 740 q 618 717 549 740 q 736 635 700 690 q 773 507 773 580 q 745 376 773 435 q 663 274 717 317 q 530 208 609 231 q 347 184 450 184 q 318 184 333 184 q 290 186 303 185 q 265 188 276 187 q 246 191 254 189 l 206 0 l 41 0 l 229 907 l 394 907 l 359 740 m 274 329 q 309 325 288 326 q 355 323 330 323 q 466 336 418 323 q 545 372 513 349 q 591 428 576 395 q 607 500 607 460 q 590 553 607 532 q 545 587 573 575 q 500 597 527 594 q 432 601 473 601 l 330 601 l 274 329 z "},"a":{"ha":747,"x_min":58,"x_max":700,"o":"m 600 158 q 609 132 600 140 q 637 124 619 124 q 685 128 656 124 l 657 -1 q 576 -9 615 -9 q 492 17 521 -9 q 456 91 463 43 l 453 91 q 352 8 406 33 q 247 -17 298 -17 q 168 -1 203 -17 q 108 45 132 16 q 71 117 83 75 q 58 211 58 159 q 67 321 58 266 q 94 428 76 377 q 139 524 113 479 q 201 602 166 569 q 280 654 237 635 q 374 673 323 673 q 463 654 421 673 q 536 592 505 634 l 539 592 l 563 657 l 700 657 l 605 199 q 601 175 602 186 q 600 158 600 164 m 506 491 q 490 509 500 500 q 467 525 480 518 q 438 537 454 532 q 404 542 422 542 q 346 527 372 542 q 299 486 319 511 q 263 428 278 460 q 238 359 248 395 q 224 290 229 324 q 219 227 219 256 q 237 142 219 169 q 290 115 255 115 q 359 138 324 115 q 420 202 393 161 q 452 264 439 229 q 475 343 465 298 l 506 491 z "},"b":{"ha":702,"x_min":68,"x_max":675,"o":"m 235 257 q 230 225 231 237 q 229 205 229 214 q 249 139 229 164 q 308 115 269 115 q 369 129 341 115 q 419 167 397 143 q 460 223 442 191 q 489 289 477 254 q 507 360 501 324 q 513 427 513 395 q 508 471 513 450 q 493 508 503 492 q 465 533 482 524 q 423 542 448 542 q 375 532 401 542 q 327 502 350 523 q 286 449 304 481 q 258 370 267 416 l 235 257 m 325 697 q 300 598 313 644 l 302 598 q 332 626 315 612 q 370 650 349 639 q 416 667 391 661 q 469 673 441 673 q 549 659 511 673 q 614 614 587 644 q 659 541 642 585 q 675 438 675 496 q 665 335 675 388 q 635 231 655 281 q 584 135 615 180 q 510 56 553 90 q 413 3 468 22 q 292 -17 359 -17 q 197 -1 239 -17 q 127 43 156 16 q 83 110 98 71 q 68 191 68 148 q 70 228 68 209 q 78 277 72 246 l 225 982 l 385 982 l 325 697 z "},"c":{"ha":604,"x_min":58,"x_max":620,"o":"m 593 511 q 520 534 556 527 q 454 542 484 542 q 375 527 410 542 q 314 489 340 513 q 270 434 288 465 q 240 370 252 403 q 224 306 229 338 q 219 249 219 275 q 229 184 219 210 q 255 143 238 158 q 295 121 272 127 q 346 115 319 115 q 441 127 391 115 q 540 162 490 140 l 511 21 q 425 -5 476 7 q 317 -17 374 -17 q 220 -3 267 -17 q 137 42 173 12 q 79 122 101 73 q 58 241 58 171 q 67 336 58 286 q 96 434 76 386 q 146 525 115 481 q 220 602 177 569 q 319 654 262 635 q 444 673 376 673 q 533 664 483 673 q 620 638 584 654 l 593 511 z "},"d":{"ha":751,"x_min":58,"x_max":768,"o":"m 600 158 q 608 133 600 142 q 637 124 616 124 q 685 128 656 124 l 657 -1 q 616 -7 639 -5 q 576 -9 594 -9 q 492 17 521 -9 q 456 91 463 43 l 453 91 q 352 8 406 33 q 247 -17 298 -17 q 168 -1 203 -17 q 108 45 132 16 q 71 117 83 75 q 58 211 58 159 q 67 321 58 266 q 95 428 77 377 q 139 524 113 479 q 200 602 165 569 q 276 654 234 635 q 366 673 317 673 q 455 653 415 673 q 524 592 495 633 l 527 592 l 608 982 l 768 982 l 605 199 q 601 175 602 186 q 600 158 600 164 m 505 488 q 489 507 499 497 q 467 524 479 516 q 438 537 454 532 q 404 542 422 542 q 346 527 372 542 q 299 486 319 511 q 263 428 279 460 q 238 359 248 395 q 224 290 229 324 q 219 227 219 256 q 237 142 219 169 q 290 115 255 115 q 363 141 327 115 q 429 214 400 168 q 475 342 458 264 l 505 488 z "},"e":{"ha":672,"x_min":58,"x_max":655,"o":"m 494 494 q 476 532 494 516 q 422 549 458 549 q 367 538 395 549 q 314 506 339 527 q 270 453 290 484 q 239 382 250 422 q 359 392 311 382 q 438 417 408 401 q 481 453 468 433 q 494 494 494 473 m 655 494 q 628 395 655 439 q 549 320 602 351 q 420 273 497 290 q 244 257 344 257 q 215 258 233 257 l 215 254 q 225 191 215 218 q 256 147 236 164 q 304 122 276 130 q 368 115 333 115 q 479 127 421 115 q 581 162 538 140 l 552 21 q 456 -6 510 4 q 341 -17 402 -17 q 215 3 269 -17 q 126 58 161 22 q 75 142 92 94 q 58 250 58 191 q 68 354 58 302 q 100 453 79 406 q 153 540 121 500 q 225 610 184 581 q 317 656 266 640 q 427 673 368 673 q 522 661 479 673 q 593 624 564 648 q 639 568 623 601 q 655 494 655 534 z "},"f":{"ha":500,"x_min":-207,"x_max":656,"o":"m 375 657 l 551 657 l 524 525 l 348 525 l 224 -73 q 200 -159 214 -123 q 168 -222 186 -195 q 60 -308 125 -283 q -82 -332 -4 -332 q -152 -326 -119 -332 q -207 -312 -186 -320 l -180 -184 q -133 -197 -157 -193 q -90 -201 -109 -201 q -25 -191 -52 -201 q 20 -159 1 -180 q 51 -106 39 -138 q 72 -31 63 -75 l 188 525 l 70 525 l 98 657 l 215 657 l 232 739 q 255 821 241 787 q 286 882 268 855 q 333 934 307 912 q 388 970 359 956 q 450 992 418 985 q 516 999 483 999 q 594 992 557 999 q 656 977 631 985 l 630 852 q 574 864 599 860 q 529 867 549 867 q 469 855 494 867 q 425 817 443 843 q 405 781 414 802 q 391 733 397 760 l 375 657 z "},"g":{"ha":716,"x_min":-47,"x_max":703,"o":"m 425 73 q 346 5 391 28 q 250 -17 301 -17 q 170 -1 205 -17 q 111 45 135 16 q 73 117 86 75 q 60 211 60 159 q 70 321 60 266 q 97 428 79 377 q 141 524 115 479 q 203 602 168 569 q 282 654 239 635 q 377 673 326 673 q 466 654 424 673 q 539 592 508 634 l 542 592 l 566 657 l 703 657 l 565 -7 q 516 -151 548 -90 q 438 -253 485 -212 q 326 -313 391 -293 q 177 -332 261 -332 q 61 -323 119 -332 q -47 -294 3 -314 l -20 -162 q 69 -190 22 -179 q 164 -201 116 -201 q 264 -187 222 -201 q 334 -145 305 -173 q 381 -76 363 -117 q 412 21 400 -34 q 427 73 420 54 l 425 73 m 509 491 q 493 509 503 500 q 470 525 483 518 q 440 537 456 532 q 406 542 425 542 q 348 527 374 542 q 301 486 321 511 q 265 428 280 460 q 241 359 250 395 q 227 290 231 324 q 222 227 222 256 q 240 142 222 169 q 292 115 258 115 q 358 135 325 115 q 417 193 391 156 q 477 344 457 248 l 509 491 z "},"h":{"ha":755,"x_min":41,"x_max":714,"o":"m 541 400 q 547 438 545 421 q 549 466 549 454 q 530 519 549 500 q 471 538 511 538 q 378 511 421 538 q 307 438 336 484 q 297 419 302 429 q 287 396 292 409 q 278 367 282 383 q 269 328 273 350 l 201 0 l 41 0 l 244 982 l 404 982 l 340 675 q 313 574 333 636 l 316 574 q 354 612 332 594 q 403 644 376 630 q 460 665 429 657 q 525 673 491 673 q 598 662 564 673 q 658 629 632 651 q 699 576 684 608 q 714 505 714 545 q 709 449 714 479 q 699 388 705 418 l 618 0 l 458 0 l 541 400 z "},"i":{"ha":340,"x_min":34,"x_max":401,"o":"m 198 808 l 233 982 l 401 982 l 366 808 l 198 808 m 34 0 l 171 657 l 331 657 l 194 0 l 34 0 z "},"j":{"ha":359,"x_min":-203,"x_max":420,"o":"m 189 657 l 349 657 l 191 -100 q 166 -189 180 -153 q 130 -252 152 -226 q 48 -312 98 -292 q -75 -332 -2 -332 q -144 -326 -109 -332 q -203 -311 -179 -320 l -176 -182 q -79 -201 -121 -201 q -33 -192 -52 -201 q 0 -166 -14 -184 q 23 -123 14 -149 q 39 -60 32 -96 l 189 657 m 216 808 l 252 982 l 420 982 l 385 808 l 216 808 z "},"k":{"ha":674,"x_min":41,"x_max":728,"o":"m 201 0 l 41 0 l 244 982 l 404 982 l 304 500 q 293 447 299 474 q 280 395 286 419 l 285 395 l 532 657 l 728 657 l 425 343 l 425 340 q 441 304 435 327 q 453 257 447 282 q 468 207 460 232 q 490 161 476 181 q 524 127 503 140 q 575 115 544 115 q 616 120 592 115 l 589 -12 q 537 -16 562 -16 q 440 4 478 -16 q 377 55 401 24 q 338 125 352 87 q 314 200 325 163 q 294 266 304 236 q 268 311 284 296 l 265 311 l 201 0 z "},"l":{"ha":378,"x_min":54,"x_max":388,"o":"m 228 982 l 388 982 l 226 203 q 220 163 220 176 q 232 136 220 144 q 267 127 243 127 q 315 133 290 127 l 286 -1 q 245 -7 270 -5 q 199 -10 221 -10 q 91 22 127 -10 q 54 117 54 54 q 63 191 54 149 l 228 982 z "},"m":{"ha":1111,"x_min":34,"x_max":1070,"o":"m 672 559 q 771 644 714 614 q 892 673 828 673 q 964 662 932 673 q 1021 629 997 651 q 1057 576 1044 608 q 1070 505 1070 545 q 1065 449 1070 479 q 1055 388 1061 418 l 974 0 l 814 0 l 894 385 q 903 437 901 418 q 905 471 905 457 q 902 497 905 485 q 890 518 898 509 q 868 533 882 528 q 835 538 854 538 q 758 515 794 538 q 696 452 722 492 q 673 406 683 432 q 655 345 663 380 l 584 0 l 424 0 l 504 385 q 513 437 511 418 q 515 471 515 457 q 512 497 515 485 q 500 518 508 509 q 478 533 492 528 q 445 538 465 538 q 374 519 408 538 q 315 465 340 499 q 286 413 298 442 q 266 346 274 385 l 194 0 l 34 0 l 170 657 l 307 657 l 307 574 l 309 574 q 347 612 326 594 q 394 644 369 630 q 449 665 420 657 q 509 673 478 673 q 612 644 570 673 q 669 559 654 614 l 672 559 z "},"n":{"ha":748,"x_min":34,"x_max":707,"o":"m 194 0 l 34 0 l 170 657 l 307 657 l 307 574 l 309 574 q 348 612 326 594 q 396 644 370 630 q 453 665 422 657 q 518 673 484 673 q 591 662 557 673 q 651 629 625 651 q 692 576 677 608 q 707 505 707 545 q 703 449 707 479 q 692 388 698 418 l 611 0 l 451 0 l 534 400 q 540 438 538 421 q 543 466 543 454 q 523 519 543 500 q 464 538 504 538 q 372 511 414 538 q 300 438 329 484 q 290 419 295 429 q 280 396 285 409 q 271 367 275 383 q 262 328 267 350 l 194 0 z "},"o":{"ha":711,"x_min":58,"x_max":684,"o":"m 414 542 q 354 529 381 542 q 305 493 327 516 q 268 441 283 471 q 241 377 252 411 q 224 307 230 342 q 219 236 219 271 q 245 147 219 180 q 328 115 271 115 q 387 127 360 115 q 436 163 414 140 q 474 216 458 186 q 501 280 490 245 q 517 350 511 314 q 522 421 522 387 q 496 509 522 477 q 414 542 469 542 m 427 673 q 533 658 486 673 q 613 611 580 642 q 665 533 647 581 q 684 424 684 486 q 660 257 684 337 q 590 117 636 178 q 474 19 543 56 q 314 -17 405 -17 q 209 -1 256 -17 q 128 45 161 14 q 76 123 94 76 q 58 233 58 170 q 81 399 58 319 q 152 540 105 479 q 267 637 198 601 q 427 673 336 673 z "},"p":{"ha":711,"x_min":-34,"x_max":684,"o":"m 223 153 q 267 125 241 136 q 323 115 292 115 q 380 128 353 115 q 430 165 408 142 q 469 221 452 189 q 498 288 486 252 q 517 361 511 323 q 523 435 523 399 q 505 513 523 484 q 448 542 486 542 q 377 518 414 542 q 310 450 340 495 q 279 389 292 424 q 256 310 265 355 l 223 153 m 492 673 q 570 656 535 673 q 631 608 606 639 q 670 534 656 578 q 684 435 684 490 q 674 330 684 384 q 644 225 664 275 q 595 131 624 175 q 527 54 566 87 q 441 2 489 21 q 339 -17 393 -17 q 260 -4 296 -17 q 201 30 225 9 l 198 30 l 126 -315 l -34 -315 l 168 657 l 305 657 l 305 574 l 308 574 q 341 611 322 593 q 382 643 359 629 q 433 665 406 656 q 492 673 460 673 z "},"q":{"ha":713,"x_min":58,"x_max":700,"o":"m 406 7 q 422 73 413 43 l 420 73 q 342 5 387 28 q 247 -17 298 -17 q 168 -1 203 -17 q 108 45 132 16 q 71 117 83 75 q 58 211 58 159 q 67 321 58 266 q 94 428 76 377 q 139 524 112 479 q 201 602 165 569 q 279 654 236 635 q 374 673 323 673 q 463 654 421 673 q 536 592 505 634 l 539 592 l 563 657 l 700 657 l 498 -315 l 338 -315 l 406 7 m 506 491 q 490 509 500 500 q 467 525 479 518 q 438 537 454 532 q 404 542 422 542 q 345 527 372 542 q 298 486 319 511 q 262 428 277 460 q 238 359 248 395 q 224 290 229 324 q 219 227 219 256 q 237 142 219 169 q 290 115 255 115 q 355 135 322 115 q 414 193 388 156 q 475 343 455 250 l 506 491 z "},"r":{"ha":498,"x_min":34,"x_max":559,"o":"m 528 519 q 471 526 498 526 q 422 521 447 526 q 373 503 397 515 q 328 471 349 491 q 292 421 307 451 q 277 387 284 407 q 262 330 270 366 l 194 0 l 34 0 l 170 657 l 307 657 l 307 574 l 309 574 q 395 647 348 621 q 507 673 443 673 q 559 669 532 673 l 528 519 z "},"s":{"ha":581,"x_min":20,"x_max":571,"o":"m 368 199 q 355 233 368 220 q 322 255 342 245 q 276 273 302 265 q 223 292 250 281 q 176 314 199 301 q 135 346 153 327 q 107 392 117 366 q 96 456 96 418 q 117 552 96 511 q 174 620 138 593 q 256 660 209 647 q 354 673 302 673 q 413 670 383 673 q 470 660 442 666 q 524 645 498 653 q 571 626 550 636 l 545 500 q 445 532 494 522 q 353 543 396 543 q 280 524 306 543 q 255 475 255 505 q 264 444 255 456 q 289 422 273 431 q 324 405 304 412 q 366 389 344 397 q 422 367 393 379 q 473 335 450 355 q 511 286 496 315 q 526 212 526 256 q 504 113 526 156 q 444 41 483 71 q 350 -2 404 12 q 229 -17 296 -17 q 159 -13 192 -17 q 99 -3 125 -9 q 52 10 72 3 q 20 22 32 17 l 47 151 q 137 123 92 133 q 230 113 183 113 q 333 136 298 113 q 368 199 368 159 z "},"t":{"ha":519,"x_min":64,"x_max":546,"o":"m 518 525 l 347 525 l 282 208 q 277 182 279 193 q 275 163 275 171 q 289 128 275 138 q 336 118 302 118 q 395 123 359 118 q 460 135 431 128 l 433 1 q 362 -12 401 -7 q 290 -17 324 -17 q 210 -7 243 -17 q 154 21 176 3 q 121 66 132 39 q 111 125 111 92 q 112 153 111 137 q 118 191 113 169 l 187 525 l 64 525 l 92 657 l 214 657 l 253 841 l 413 841 l 375 657 l 546 657 l 518 525 z "},"u":{"ha":729,"x_min":71,"x_max":722,"o":"m 317 -17 q 205 -2 252 -17 q 129 39 159 12 q 85 102 99 65 q 71 183 71 139 q 74 216 71 197 q 81 262 76 234 l 163 657 l 323 657 l 240 257 q 235 227 237 241 q 234 201 234 213 q 256 138 234 161 q 329 115 279 115 q 390 124 364 115 q 433 153 415 134 q 461 198 450 172 q 479 258 473 225 l 562 657 l 722 657 l 631 214 q 601 128 621 170 q 545 54 581 86 q 452 2 508 22 q 317 -17 397 -17 z "},"v":{"ha":686,"x_min":68,"x_max":758,"o":"m 229 657 l 281 407 q 321 193 307 288 l 325 193 q 433 403 374 300 l 576 657 l 758 657 l 366 0 l 219 0 l 68 657 l 229 657 z "},"w":{"ha":1015,"x_min":68,"x_max":1086,"o":"m 562 0 l 542 268 q 532 463 536 366 l 528 463 q 460 273 505 389 l 351 0 l 195 0 l 68 657 l 229 657 l 273 394 q 298 201 289 296 l 302 201 q 369 387 332 293 l 480 657 l 641 657 l 661 411 q 673 199 668 317 l 677 199 q 778 416 731 326 l 906 657 l 1086 657 l 713 0 l 562 0 z "},"x":{"ha":696,"x_min":-41,"x_max":764,"o":"m 471 0 l 347 222 l 150 0 l -41 0 l 271 343 l 87 657 l 258 657 l 378 446 l 570 657 l 764 657 l 456 325 l 644 0 l 471 0 z "},"y":{"ha":682,"x_min":-109,"x_max":753,"o":"m 66 657 l 229 657 l 290 369 q 322 195 309 274 l 326 195 q 410 359 364 273 l 572 657 l 753 657 l 368 -22 q 290 -147 329 -90 q 205 -245 251 -204 q 103 -309 159 -286 q -23 -332 47 -332 q -109 -323 -75 -332 l -81 -196 q -29 -201 -56 -201 q 41 -188 9 -201 q 101 -148 73 -174 q 155 -82 129 -121 q 211 12 182 -42 l 66 657 z "},"z":{"ha":633,"x_min":-3,"x_max":637,"o":"m 399 525 l 105 525 l 133 657 l 637 657 l 616 557 l 239 132 l 560 132 l 533 0 l -3 0 l 16 91 l 399 525 z "},"à":{"ha":747,"x_min":58,"x_max":700,"o":"m 600 158 q 609 132 600 140 q 637 124 619 124 q 685 128 656 124 l 657 -1 q 576 -9 615 -9 q 492 17 521 -9 q 456 91 463 43 l 453 91 q 352 8 406 33 q 247 -17 298 -17 q 168 -1 203 -17 q 108 45 132 16 q 71 117 83 75 q 58 211 58 159 q 67 321 58 266 q 94 428 76 377 q 139 524 113 479 q 201 602 166 569 q 280 654 237 635 q 374 673 323 673 q 463 654 421 673 q 536 592 505 634 l 539 592 l 563 657 l 700 657 l 605 199 q 601 175 602 186 q 600 158 600 164 m 506 491 q 490 509 500 500 q 467 525 480 518 q 438 537 454 532 q 404 542 422 542 q 346 527 372 542 q 299 486 319 511 q 263 428 278 460 q 238 359 248 395 q 224 290 229 324 q 219 227 219 256 q 237 142 219 169 q 290 115 255 115 q 359 138 324 115 q 420 202 393 161 q 452 264 439 229 q 475 343 465 298 l 506 491 m 474 999 l 505 762 l 386 762 l 323 999 l 474 999 m 60 657 z "},"á":{"ha":747,"x_min":58,"x_max":700,"o":"m 600 158 q 609 132 600 140 q 637 124 619 124 q 685 128 656 124 l 657 -1 q 576 -9 615 -9 q 492 17 521 -9 q 456 91 463 43 l 453 91 q 352 8 406 33 q 247 -17 298 -17 q 168 -1 203 -17 q 108 45 132 16 q 71 117 83 75 q 58 211 58 159 q 67 321 58 266 q 94 428 76 377 q 139 524 113 479 q 201 602 166 569 q 280 654 237 635 q 374 673 323 673 q 463 654 421 673 q 536 592 505 634 l 539 592 l 563 657 l 700 657 l 605 199 q 601 175 602 186 q 600 158 600 164 m 506 491 q 490 509 500 500 q 467 525 480 518 q 438 537 454 532 q 404 542 422 542 q 346 527 372 542 q 299 486 319 511 q 263 428 278 460 q 238 359 248 395 q 224 290 229 324 q 219 227 219 256 q 237 142 219 169 q 290 115 255 115 q 359 138 324 115 q 420 202 393 161 q 452 264 439 229 q 475 343 465 298 l 506 491 m 640 999 l 478 762 l 349 762 l 479 999 l 640 999 m 127 657 z "},"â":{"ha":747,"x_min":58,"x_max":700,"o":"m 600 158 q 609 132 600 140 q 637 124 619 124 q 685 128 656 124 l 657 -1 q 576 -9 615 -9 q 492 17 521 -9 q 456 91 463 43 l 453 91 q 352 8 406 33 q 247 -17 298 -17 q 168 -1 203 -17 q 108 45 132 16 q 71 117 83 75 q 58 211 58 159 q 67 321 58 266 q 94 428 76 377 q 139 524 113 479 q 201 602 166 569 q 280 654 237 635 q 374 673 323 673 q 463 654 421 673 q 536 592 505 634 l 539 592 l 563 657 l 700 657 l 605 199 q 601 175 602 186 q 600 158 600 164 m 506 491 q 490 509 500 500 q 467 525 480 518 q 438 537 454 532 q 404 542 422 542 q 346 527 372 542 q 299 486 319 511 q 263 428 278 460 q 238 359 248 395 q 224 290 229 324 q 219 227 219 256 q 237 142 219 169 q 290 115 255 115 q 359 138 324 115 q 420 202 393 161 q 452 264 439 229 q 475 343 465 298 l 506 491 m 420 999 l 559 999 l 652 762 l 532 762 l 476 906 l 473 906 l 358 762 l 228 762 l 420 999 m 109 657 z "},"ã":{"ha":747,"x_min":58,"x_max":700,"o":"m 600 158 q 609 132 600 140 q 637 124 619 124 q 685 128 656 124 l 657 -1 q 576 -9 615 -9 q 492 17 521 -9 q 456 91 463 43 l 453 91 q 352 8 406 33 q 247 -17 298 -17 q 168 -1 203 -17 q 108 45 132 16 q 71 117 83 75 q 58 211 58 159 q 67 321 58 266 q 94 428 76 377 q 139 524 113 479 q 201 602 166 569 q 280 654 237 635 q 374 673 323 673 q 463 654 421 673 q 536 592 505 634 l 539 592 l 563 657 l 700 657 l 605 199 q 601 175 602 186 q 600 158 600 164 m 506 491 q 490 509 500 500 q 467 525 480 518 q 438 537 454 532 q 404 542 422 542 q 346 527 372 542 q 299 486 319 511 q 263 428 278 460 q 238 359 248 395 q 224 290 229 324 q 219 227 219 256 q 237 142 219 169 q 290 115 255 115 q 359 138 324 115 q 420 202 393 161 q 452 264 439 229 q 475 343 465 298 l 506 491 m 217 787 q 234 855 221 824 q 266 908 246 886 q 311 942 285 930 q 368 954 336 954 q 399 950 383 954 q 430 940 416 946 q 457 927 444 934 q 481 913 470 920 q 511 897 497 903 q 537 891 525 891 q 568 904 556 891 q 586 948 580 917 l 696 948 q 680 881 692 911 q 648 828 667 850 q 603 794 629 806 q 546 782 577 782 q 514 786 530 782 q 484 795 498 789 q 456 809 469 802 q 432 823 444 816 q 402 838 416 832 q 376 844 389 844 q 346 831 357 844 q 328 787 334 819 l 217 787 m 127 657 z "},"ä":{"ha":747,"x_min":58,"x_max":700,"o":"m 600 158 q 609 132 600 140 q 637 124 619 124 q 685 128 656 124 l 657 -1 q 576 -9 615 -9 q 492 17 521 -9 q 456 91 463 43 l 453 91 q 352 8 406 33 q 247 -17 298 -17 q 168 -1 203 -17 q 108 45 132 16 q 71 117 83 75 q 58 211 58 159 q 67 321 58 266 q 94 428 76 377 q 139 524 113 479 q 201 602 166 569 q 280 654 237 635 q 374 673 323 673 q 463 654 421 673 q 536 592 505 634 l 539 592 l 563 657 l 700 657 l 605 199 q 601 175 602 186 q 600 158 600 164 m 506 491 q 490 509 500 500 q 467 525 480 518 q 438 537 454 532 q 404 542 422 542 q 346 527 372 542 q 299 486 319 511 q 263 428 278 460 q 238 359 248 395 q 224 290 229 324 q 219 227 219 256 q 237 142 219 169 q 290 115 255 115 q 359 138 324 115 q 420 202 393 161 q 452 264 439 229 q 475 343 465 298 l 506 491 m 273 958 l 421 958 l 389 808 l 241 808 l 273 958 m 551 958 l 699 958 l 667 808 l 519 808 l 551 958 m 115 657 z "},"ā":{"ha":747,"x_min":58,"x_max":700,"o":"m 600 158 q 609 132 600 140 q 637 124 619 124 q 685 128 656 124 l 657 -1 q 576 -9 615 -9 q 492 17 521 -9 q 456 91 463 43 l 453 91 q 352 8 406 33 q 247 -17 298 -17 q 168 -1 203 -17 q 108 45 132 16 q 71 117 83 75 q 58 211 58 159 q 67 321 58 266 q 94 428 76 377 q 139 524 113 479 q 201 602 166 569 q 280 654 237 635 q 374 673 323 673 q 463 654 421 673 q 536 592 505 634 l 539 592 l 563 657 l 700 657 l 605 199 q 601 175 602 186 q 600 158 600 164 m 506 491 q 490 509 500 500 q 467 525 480 518 q 438 537 454 532 q 404 542 422 542 q 346 527 372 542 q 299 486 319 511 q 263 428 278 460 q 238 359 248 395 q 224 290 229 324 q 219 227 219 256 q 237 142 219 169 q 290 115 255 115 q 359 138 324 115 q 420 202 393 161 q 452 264 439 229 q 475 343 465 298 l 506 491 m 288 907 l 668 907 l 644 794 l 264 794 l 288 907 m 111 657 z "},"ă":{"ha":747,"x_min":58,"x_max":715,"o":"m 600 158 q 609 132 600 140 q 637 124 619 124 q 685 128 656 124 l 657 -1 q 576 -9 615 -9 q 492 17 521 -9 q 456 91 463 43 l 453 91 q 352 8 406 33 q 247 -17 298 -17 q 168 -1 203 -17 q 108 45 132 16 q 71 117 83 75 q 58 211 58 159 q 67 321 58 266 q 94 428 76 377 q 139 524 113 479 q 201 602 166 569 q 280 654 237 635 q 374 673 323 673 q 463 654 421 673 q 536 592 505 634 l 539 592 l 563 657 l 700 657 l 605 199 q 601 175 602 186 q 600 158 600 164 m 506 491 q 490 509 500 500 q 467 525 480 518 q 438 537 454 532 q 404 542 422 542 q 346 527 372 542 q 299 486 319 511 q 263 428 278 460 q 238 359 248 395 q 224 290 229 324 q 219 227 219 256 q 237 142 219 169 q 290 115 255 115 q 359 138 324 115 q 420 202 393 161 q 452 264 439 229 q 475 343 465 298 l 506 491 m 452 852 q 523 880 492 852 q 570 968 553 909 l 715 968 q 679 876 703 918 q 619 804 654 834 q 537 756 583 773 q 435 739 491 739 q 341 756 381 739 q 280 803 302 773 q 253 866 258 833 q 248 917 247 899 q 252 968 248 941 l 383 968 q 381 933 381 950 q 398 874 381 897 q 452 852 416 852 m 104 657 z "},"å":{"ha":747,"x_min":58,"x_max":700,"o":"m 600 158 q 609 132 600 140 q 637 124 619 124 q 685 128 656 124 l 657 -1 q 576 -9 615 -9 q 492 17 521 -9 q 456 91 463 43 l 453 91 q 352 8 406 33 q 247 -17 298 -17 q 168 -1 203 -17 q 108 45 132 16 q 71 117 83 75 q 58 211 58 159 q 67 321 58 266 q 94 428 76 377 q 139 524 113 479 q 201 602 166 569 q 280 654 237 635 q 374 673 323 673 q 463 654 421 673 q 536 592 505 634 l 539 592 l 563 657 l 700 657 l 605 199 q 601 175 602 186 q 600 158 600 164 m 506 491 q 490 509 500 500 q 467 525 480 518 q 438 537 454 532 q 404 542 422 542 q 346 527 372 542 q 299 486 319 511 q 263 428 278 460 q 238 359 248 395 q 224 290 229 324 q 219 227 219 256 q 237 142 219 169 q 290 115 255 115 q 359 138 324 115 q 420 202 393 161 q 452 264 439 229 q 475 343 465 298 l 506 491 m 473 1017 q 585 984 546 1017 q 624 897 624 951 q 612 841 624 869 q 577 790 600 813 q 518 753 553 768 q 437 739 484 739 q 325 772 364 739 q 286 860 286 805 q 298 916 286 888 q 333 966 310 943 q 392 1003 357 989 q 473 1017 427 1017 m 468 941 q 433 935 448 941 q 407 918 418 928 q 391 893 396 907 q 385 864 385 880 q 399 829 385 842 q 442 816 413 816 q 477 822 462 816 q 503 839 492 828 q 519 864 514 850 q 525 892 525 878 q 511 927 525 914 q 468 941 497 941 m 102 657 z "},"ǻ":{"ha":747,"x_min":58,"x_max":730,"o":"m 730 1204 l 557 1030 l 447 1030 l 584 1204 l 730 1204 m 481 993 q 592 962 553 993 q 631 878 631 930 q 620 824 631 851 q 584 776 608 798 q 526 741 561 754 q 444 727 491 727 q 333 758 372 727 q 294 842 294 789 q 306 896 294 869 q 341 944 317 922 q 399 979 364 966 q 481 993 434 993 m 475 918 q 414 897 436 918 q 393 846 393 876 q 407 814 393 826 q 450 802 420 802 q 511 823 489 802 q 532 873 532 844 q 518 906 532 894 q 475 918 505 918 m 600 158 q 609 132 600 140 q 637 124 619 124 q 685 128 656 124 l 657 -1 q 576 -9 615 -9 q 492 17 521 -9 q 456 91 463 43 l 453 91 q 352 8 406 33 q 247 -17 298 -17 q 168 -1 203 -17 q 108 45 132 16 q 71 117 83 75 q 58 211 58 159 q 67 321 58 266 q 94 428 76 377 q 139 524 113 479 q 201 602 166 569 q 280 654 237 635 q 374 673 323 673 q 463 654 421 673 q 536 592 505 634 l 539 592 l 563 657 l 700 657 l 605 199 q 601 175 602 186 q 600 158 600 164 m 506 491 q 490 509 500 500 q 467 525 480 518 q 438 537 454 532 q 404 542 422 542 q 346 527 372 542 q 299 486 319 511 q 263 428 278 460 q 238 359 248 395 q 224 290 229 324 q 219 227 219 256 q 237 142 219 169 q 290 115 255 115 q 359 138 324 115 q 420 202 393 161 q 452 264 439 229 q 475 343 465 298 l 506 491 z "},"ą":{"ha":747,"x_min":58,"x_max":700,"o":"m 506 491 q 490 509 500 500 q 467 525 480 518 q 438 537 454 532 q 404 542 422 542 q 346 527 372 542 q 299 486 319 511 q 263 428 278 460 q 238 359 248 395 q 224 290 229 324 q 219 227 219 256 q 237 142 219 169 q 290 115 255 115 q 359 138 324 115 q 420 202 393 161 q 452 264 439 229 q 475 343 465 298 l 506 491 m 505 10 q 472 42 483 22 q 456 91 460 62 l 453 91 q 352 8 406 33 q 247 -17 298 -17 q 168 -1 203 -17 q 108 45 132 16 q 71 117 83 75 q 58 211 58 159 q 67 321 58 266 q 94 428 76 377 q 139 524 113 479 q 201 602 166 569 q 280 654 237 635 q 374 673 323 673 q 463 654 421 673 q 536 592 505 634 l 539 592 l 563 657 l 700 657 l 605 199 q 601 175 602 186 q 600 158 600 164 q 609 132 600 140 q 637 124 618 124 q 685 128 656 124 l 658 5 q 591 -37 623 -14 q 535 -83 559 -59 q 497 -132 511 -107 q 483 -181 483 -157 q 494 -211 483 -201 q 528 -220 506 -220 q 563 -216 543 -220 q 597 -205 583 -212 l 575 -315 q 532 -327 557 -322 q 481 -332 506 -332 q 428 -325 452 -332 q 385 -303 403 -317 q 357 -267 368 -288 q 347 -218 347 -245 q 359 -155 347 -187 q 393 -93 372 -123 q 443 -38 414 -64 q 505 7 472 -12 l 505 10 z "},"æ":{"ha":1082,"x_min":34,"x_max":1065,"o":"m 520 129 q 473 72 501 98 q 410 26 446 45 q 332 -5 374 6 q 239 -17 289 -17 q 155 -3 193 -17 q 91 37 117 12 q 49 99 64 63 q 34 178 34 135 q 55 278 34 234 q 115 354 77 323 q 208 402 154 385 q 326 419 261 419 q 415 413 373 419 q 485 399 456 406 q 486 413 486 404 q 486 429 486 421 q 454 517 486 488 q 346 546 422 546 q 304 543 328 546 q 254 535 280 541 q 201 523 228 530 q 149 506 174 515 l 176 634 q 221 650 197 643 q 271 662 245 657 q 323 670 297 667 q 373 673 349 673 q 455 664 419 673 q 517 638 491 655 q 562 597 544 621 q 590 545 580 574 l 593 545 q 701 638 636 603 q 850 673 766 673 q 937 661 897 673 q 1005 625 977 648 q 1049 569 1034 602 q 1065 496 1065 536 q 1038 396 1065 440 q 958 321 1010 352 q 828 274 905 290 q 651 258 751 258 l 629 258 q 639 192 629 219 q 668 147 649 164 q 715 122 688 130 q 779 115 743 115 q 991 162 890 115 l 962 21 q 866 -6 920 4 q 751 -17 812 -17 q 604 22 661 -17 q 523 129 547 61 l 520 129 m 334 294 q 284 289 309 294 q 240 272 260 284 q 208 240 220 260 q 195 191 195 220 q 202 154 195 169 q 219 129 208 138 q 243 115 229 119 q 273 111 258 111 q 388 155 338 111 q 464 278 438 198 q 406 289 438 284 q 334 294 373 294 m 904 494 q 886 532 904 516 q 833 549 869 549 q 778 537 806 549 q 726 505 751 526 q 683 452 702 483 q 652 380 664 420 q 773 390 724 380 q 850 415 821 399 q 892 452 880 431 q 904 494 904 472 z "},"ǽ":{"ha":1082,"x_min":34,"x_max":1065,"o":"m 520 129 q 473 72 501 98 q 410 26 446 45 q 332 -5 374 6 q 239 -17 289 -17 q 155 -3 193 -17 q 91 37 117 12 q 49 99 64 63 q 34 178 34 135 q 55 278 34 234 q 115 354 77 323 q 208 402 154 385 q 326 419 261 419 q 415 413 373 419 q 485 399 456 406 q 486 413 486 404 q 486 429 486 421 q 454 517 486 488 q 346 546 422 546 q 304 543 328 546 q 254 535 280 541 q 201 523 228 530 q 149 506 174 515 l 176 634 q 221 650 197 643 q 271 662 245 657 q 323 670 297 667 q 373 673 349 673 q 455 664 419 673 q 517 638 491 655 q 562 597 544 621 q 590 545 580 574 l 593 545 q 701 638 636 603 q 850 673 766 673 q 937 661 897 673 q 1005 625 977 648 q 1049 569 1034 602 q 1065 496 1065 536 q 1038 396 1065 440 q 958 321 1010 352 q 828 274 905 290 q 651 258 751 258 l 629 258 q 639 192 629 219 q 668 147 649 164 q 715 122 688 130 q 779 115 743 115 q 991 162 890 115 l 962 21 q 866 -6 920 4 q 751 -17 812 -17 q 604 22 661 -17 q 523 129 547 61 l 520 129 m 334 294 q 284 289 309 294 q 240 272 260 284 q 208 240 220 260 q 195 191 195 220 q 202 154 195 169 q 219 129 208 138 q 243 115 229 119 q 273 111 258 111 q 388 155 338 111 q 464 278 438 198 q 406 289 438 284 q 334 294 373 294 m 904 494 q 886 532 904 516 q 833 549 869 549 q 778 537 806 549 q 726 505 751 526 q 683 452 702 483 q 652 380 664 420 q 773 390 724 380 q 850 415 821 399 q 892 452 880 431 q 904 494 904 472 m 859 999 l 697 762 l 568 762 l 699 999 l 859 999 m 347 657 z "},"ć":{"ha":604,"x_min":58,"x_max":652,"o":"m 593 511 q 520 534 556 527 q 454 542 484 542 q 375 527 410 542 q 314 489 340 513 q 270 434 288 465 q 240 370 252 403 q 224 306 229 338 q 219 249 219 275 q 229 184 219 210 q 255 143 238 158 q 295 121 272 127 q 346 115 319 115 q 441 127 391 115 q 540 162 490 140 l 511 21 q 425 -5 476 7 q 317 -17 374 -17 q 220 -3 267 -17 q 137 42 173 12 q 79 122 101 73 q 58 241 58 171 q 67 336 58 286 q 96 434 76 386 q 146 525 115 481 q 220 602 177 569 q 319 654 262 635 q 444 673 376 673 q 533 664 483 673 q 620 638 584 654 l 593 511 m 652 999 l 491 762 l 362 762 l 492 999 l 652 999 m 140 657 z "},"ĉ":{"ha":604,"x_min":58,"x_max":654,"o":"m 593 511 q 520 534 556 527 q 454 542 484 542 q 375 527 410 542 q 314 489 340 513 q 270 434 288 465 q 240 370 252 403 q 224 306 229 338 q 219 249 219 275 q 229 184 219 210 q 255 143 238 158 q 295 121 272 127 q 346 115 319 115 q 441 127 391 115 q 540 162 490 140 l 511 21 q 425 -5 476 7 q 317 -17 374 -17 q 220 -3 267 -17 q 137 42 173 12 q 79 122 101 73 q 58 241 58 171 q 67 336 58 286 q 96 434 76 386 q 146 525 115 481 q 220 602 177 569 q 319 654 262 635 q 444 673 376 673 q 533 664 483 673 q 620 638 584 654 l 593 511 m 422 999 l 562 999 l 654 762 l 534 762 l 478 906 l 475 906 l 360 762 l 230 762 l 422 999 m 111 657 z "},"č":{"ha":604,"x_min":58,"x_max":701,"o":"m 593 511 q 520 534 556 527 q 454 542 484 542 q 375 527 410 542 q 314 489 340 513 q 270 434 288 465 q 240 370 252 403 q 224 306 229 338 q 219 249 219 275 q 229 184 219 210 q 255 143 238 158 q 295 121 272 127 q 346 115 319 115 q 441 127 391 115 q 540 162 490 140 l 511 21 q 425 -5 476 7 q 317 -17 374 -17 q 220 -3 267 -17 q 137 42 173 12 q 79 122 101 73 q 58 241 58 171 q 67 336 58 286 q 96 434 76 386 q 146 525 115 481 q 220 602 177 569 q 319 654 262 635 q 444 673 376 673 q 533 664 483 673 q 620 638 584 654 l 593 511 m 509 762 l 370 762 l 277 999 l 397 999 l 452 855 l 455 855 l 570 999 l 701 999 l 509 762 m 109 657 z "},"ċ":{"ha":604,"x_min":58,"x_max":620,"o":"m 593 511 q 520 534 556 527 q 454 542 484 542 q 375 527 410 542 q 314 489 340 513 q 270 434 288 465 q 240 370 252 403 q 224 306 229 338 q 219 249 219 275 q 229 184 219 210 q 255 143 238 158 q 295 121 272 127 q 346 115 319 115 q 441 127 391 115 q 540 162 490 140 l 511 21 q 425 -5 476 7 q 317 -17 374 -17 q 220 -3 267 -17 q 137 42 173 12 q 79 122 101 73 q 58 241 58 171 q 67 336 58 286 q 96 434 76 386 q 146 525 115 481 q 220 602 177 569 q 319 654 262 635 q 444 673 376 673 q 533 664 483 673 q 620 638 584 654 l 593 511 m 360 808 l 395 982 l 564 982 l 528 808 l 360 808 m 108 657 z "},"ç":{"ha":604,"x_min":58,"x_max":620,"o":"m 593 511 q 515 535 550 529 q 452 542 481 542 q 375 527 410 542 q 314 489 340 513 q 270 434 288 465 q 240 370 252 403 q 224 306 229 338 q 219 249 219 275 q 229 184 219 210 q 255 143 238 158 q 295 121 272 127 q 346 115 319 115 q 441 127 391 115 q 540 162 490 140 l 511 21 q 434 -4 478 7 q 334 -16 389 -15 l 311 -80 q 366 -92 343 -83 q 402 -115 388 -101 q 422 -146 416 -129 q 429 -184 429 -164 q 413 -243 429 -216 q 368 -290 397 -271 q 297 -321 338 -310 q 206 -332 256 -332 q 152 -328 180 -332 q 111 -318 125 -324 l 130 -222 q 203 -232 160 -232 q 275 -218 249 -232 q 301 -183 301 -204 q 186 -146 301 -145 l 237 -7 q 167 20 200 1 q 110 70 134 39 q 72 143 85 100 q 58 241 58 185 q 67 336 58 286 q 96 434 76 386 q 146 525 115 481 q 220 602 177 569 q 319 654 262 635 q 444 673 376 673 q 526 665 478 673 q 620 638 573 657 l 593 511 z "},"ď":{"ha":751,"x_min":58,"x_max":993,"o":"m 600 158 q 608 133 600 142 q 637 124 616 124 q 685 128 656 124 l 657 -1 q 616 -7 639 -5 q 576 -9 594 -9 q 492 17 521 -9 q 456 91 463 43 l 453 91 q 352 8 406 33 q 247 -17 298 -17 q 168 -1 203 -17 q 108 45 132 16 q 71 117 83 75 q 58 211 58 159 q 67 321 58 266 q 95 428 77 377 q 139 524 113 479 q 200 602 165 569 q 276 654 234 635 q 366 673 317 673 q 455 653 415 673 q 524 592 495 633 l 527 592 l 608 982 l 768 982 l 605 199 q 601 175 602 186 q 600 158 600 164 m 505 488 q 489 507 499 497 q 467 524 479 516 q 438 537 454 532 q 404 542 422 542 q 346 527 372 542 q 299 486 319 511 q 263 428 279 460 q 238 359 248 395 q 224 290 229 324 q 219 227 219 256 q 237 142 219 169 q 290 115 255 115 q 363 141 327 115 q 429 214 400 168 q 475 342 458 264 l 505 488 m 859 830 q 813 867 859 867 l 837 981 q 850 982 848 982 q 859 982 853 982 q 920 974 894 982 q 962 952 945 966 q 985 919 978 938 q 993 876 993 899 q 973 799 993 837 q 918 723 953 762 l 793 723 q 818 751 806 737 q 839 779 829 766 q 853 806 848 793 q 859 830 859 819 m 724 657 z "},"đ":{"ha":751,"x_min":58,"x_max":854,"o":"m 585 876 l 608 982 l 768 982 l 745 876 l 854 876 l 829 750 l 720 750 l 605 199 q 601 175 602 186 q 600 158 600 164 q 609 132 600 140 q 637 124 618 124 q 685 128 656 124 l 657 -1 q 617 -7 639 -5 q 576 -9 595 -9 q 493 16 523 -9 q 456 91 463 41 l 453 91 q 352 8 406 33 q 247 -17 298 -17 q 168 -1 203 -17 q 108 45 132 16 q 71 117 83 75 q 58 211 58 159 q 67 321 58 266 q 95 428 77 377 q 139 524 113 479 q 200 602 165 569 q 276 654 234 635 q 366 673 317 673 q 455 653 415 673 q 524 592 495 633 l 527 592 l 559 750 l 387 750 l 413 876 l 585 876 m 505 488 q 489 507 499 497 q 467 524 479 516 q 438 537 454 532 q 404 542 422 542 q 346 527 372 542 q 299 486 319 511 q 263 428 279 460 q 238 359 248 395 q 224 290 229 324 q 219 227 219 256 q 237 142 219 169 q 290 115 255 115 q 363 141 327 115 q 429 214 400 168 q 475 342 458 264 l 505 488 z "},"è":{"ha":672,"x_min":58,"x_max":655,"o":"m 479 999 l 511 762 l 391 762 l 329 999 l 479 999 m 65 657 m 494 494 q 476 532 494 516 q 422 549 458 549 q 367 538 395 549 q 314 506 339 527 q 270 453 290 484 q 239 382 250 422 q 359 392 311 382 q 438 417 408 401 q 481 453 468 433 q 494 494 494 473 m 655 494 q 628 395 655 439 q 549 320 602 351 q 420 273 497 290 q 244 257 344 257 q 215 258 233 257 l 215 254 q 225 191 215 218 q 256 147 236 164 q 304 122 276 130 q 368 115 333 115 q 479 127 421 115 q 581 162 538 140 l 552 21 q 456 -6 510 4 q 341 -17 402 -17 q 215 3 269 -17 q 126 58 161 22 q 75 142 92 94 q 58 250 58 191 q 68 354 58 302 q 100 453 79 406 q 153 540 121 500 q 225 610 184 581 q 317 656 266 640 q 427 673 368 673 q 522 661 479 673 q 593 624 564 648 q 639 568 623 601 q 655 494 655 534 z "},"é":{"ha":672,"x_min":58,"x_max":665,"o":"m 665 999 l 504 762 l 375 762 l 505 999 l 665 999 m 153 657 m 494 494 q 476 532 494 516 q 422 549 458 549 q 367 538 395 549 q 314 506 339 527 q 270 453 290 484 q 239 382 250 422 q 359 392 311 382 q 438 417 408 401 q 481 453 468 433 q 494 494 494 473 m 655 494 q 628 395 655 439 q 549 320 602 351 q 420 273 497 290 q 244 257 344 257 q 215 258 233 257 l 215 254 q 225 191 215 218 q 256 147 236 164 q 304 122 276 130 q 368 115 333 115 q 479 127 421 115 q 581 162 538 140 l 552 21 q 456 -6 510 4 q 341 -17 402 -17 q 215 3 269 -17 q 126 58 161 22 q 75 142 92 94 q 58 250 58 191 q 68 354 58 302 q 100 453 79 406 q 153 540 121 500 q 225 610 184 581 q 317 656 266 640 q 427 673 368 673 q 522 661 479 673 q 593 624 564 648 q 639 568 623 601 q 655 494 655 534 z "},"ê":{"ha":672,"x_min":58,"x_max":655,"o":"m 420 999 l 559 999 l 652 762 l 532 762 l 476 906 l 473 906 l 358 762 l 228 762 l 420 999 m 109 657 m 494 494 q 476 532 494 516 q 422 549 458 549 q 367 538 395 549 q 314 506 339 527 q 270 453 290 484 q 239 382 250 422 q 359 392 311 382 q 438 417 408 401 q 481 453 468 433 q 494 494 494 473 m 655 494 q 628 395 655 439 q 549 320 602 351 q 420 273 497 290 q 244 257 344 257 q 215 258 233 257 l 215 254 q 225 191 215 218 q 256 147 236 164 q 304 122 276 130 q 368 115 333 115 q 479 127 421 115 q 581 162 538 140 l 552 21 q 456 -6 510 4 q 341 -17 402 -17 q 215 3 269 -17 q 126 58 161 22 q 75 142 92 94 q 58 250 58 191 q 68 354 58 302 q 100 453 79 406 q 153 540 121 500 q 225 610 184 581 q 317 656 266 640 q 427 673 368 673 q 522 661 479 673 q 593 624 564 648 q 639 568 623 601 q 655 494 655 534 z "},"ě":{"ha":672,"x_min":58,"x_max":705,"o":"m 513 762 l 373 762 l 280 999 l 400 999 l 456 855 l 458 855 l 574 999 l 705 999 l 513 762 m 112 657 m 494 494 q 476 532 494 516 q 422 549 458 549 q 367 538 395 549 q 314 506 339 527 q 270 453 290 484 q 239 382 250 422 q 359 392 311 382 q 438 417 408 401 q 481 453 468 433 q 494 494 494 473 m 655 494 q 628 395 655 439 q 549 320 602 351 q 420 273 497 290 q 244 257 344 257 q 215 258 233 257 l 215 254 q 225 191 215 218 q 256 147 236 164 q 304 122 276 130 q 368 115 333 115 q 479 127 421 115 q 581 162 538 140 l 552 21 q 456 -6 510 4 q 341 -17 402 -17 q 215 3 269 -17 q 126 58 161 22 q 75 142 92 94 q 58 250 58 191 q 68 354 58 302 q 100 453 79 406 q 153 540 121 500 q 225 610 184 581 q 317 656 266 640 q 427 673 368 673 q 522 661 479 673 q 593 624 564 648 q 639 568 623 601 q 655 494 655 534 z "},"ë":{"ha":672,"x_min":58,"x_max":702,"o":"m 276 958 l 424 958 l 392 808 l 244 808 l 276 958 m 554 958 l 702 958 l 670 808 l 522 808 l 554 958 m 117 657 m 494 494 q 476 532 494 516 q 422 549 458 549 q 367 538 395 549 q 314 506 339 527 q 270 453 290 484 q 239 382 250 422 q 359 392 311 382 q 438 417 408 401 q 481 453 468 433 q 494 494 494 473 m 655 494 q 628 395 655 439 q 549 320 602 351 q 420 273 497 290 q 244 257 344 257 q 215 258 233 257 l 215 254 q 225 191 215 218 q 256 147 236 164 q 304 122 276 130 q 368 115 333 115 q 479 127 421 115 q 581 162 538 140 l 552 21 q 456 -6 510 4 q 341 -17 402 -17 q 215 3 269 -17 q 126 58 161 22 q 75 142 92 94 q 58 250 58 191 q 68 354 58 302 q 100 453 79 406 q 153 540 121 500 q 225 610 184 581 q 317 656 266 640 q 427 673 368 673 q 522 661 479 673 q 593 624 564 648 q 639 568 623 601 q 655 494 655 534 z "},"ē":{"ha":672,"x_min":58,"x_max":673,"o":"m 293 907 l 673 907 l 649 794 l 269 794 l 293 907 m 115 657 m 494 494 q 476 532 494 516 q 422 549 458 549 q 367 538 395 549 q 314 506 339 527 q 270 453 290 484 q 239 382 250 422 q 359 392 311 382 q 438 417 408 401 q 481 453 468 433 q 494 494 494 473 m 655 494 q 628 395 655 439 q 549 320 602 351 q 420 273 497 290 q 244 257 344 257 q 215 258 233 257 l 215 254 q 225 191 215 218 q 256 147 236 164 q 304 122 276 130 q 368 115 333 115 q 479 127 421 115 q 581 162 538 140 l 552 21 q 456 -6 510 4 q 341 -17 402 -17 q 215 3 269 -17 q 126 58 161 22 q 75 142 92 94 q 58 250 58 191 q 68 354 58 302 q 100 453 79 406 q 153 540 121 500 q 225 610 184 581 q 317 656 266 640 q 427 673 368 673 q 522 661 479 673 q 593 624 564 648 q 639 568 623 601 q 655 494 655 534 z "},"ĕ":{"ha":672,"x_min":58,"x_max":724,"o":"m 462 852 q 532 880 502 852 q 580 968 562 909 l 724 968 q 688 876 712 918 q 628 804 664 834 q 547 756 593 773 q 445 739 500 739 q 351 756 391 739 q 290 803 311 773 q 262 866 268 833 q 257 917 256 899 q 262 968 257 941 l 393 968 q 391 933 391 950 q 408 874 391 897 q 462 852 425 852 m 113 657 m 494 494 q 476 532 494 516 q 422 549 458 549 q 367 538 395 549 q 314 506 339 527 q 270 453 290 484 q 239 382 250 422 q 359 392 311 382 q 438 417 408 401 q 481 453 468 433 q 494 494 494 473 m 655 494 q 628 395 655 439 q 549 320 602 351 q 420 273 497 290 q 244 257 344 257 q 215 258 233 257 l 215 254 q 225 191 215 218 q 256 147 236 164 q 304 122 276 130 q 368 115 333 115 q 479 127 421 115 q 581 162 538 140 l 552 21 q 456 -6 510 4 q 341 -17 402 -17 q 215 3 269 -17 q 126 58 161 22 q 75 142 92 94 q 58 250 58 191 q 68 354 58 302 q 100 453 79 406 q 153 540 121 500 q 225 610 184 581 q 317 656 266 640 q 427 673 368 673 q 522 661 479 673 q 593 624 564 648 q 639 568 623 601 q 655 494 655 534 z "},"ė":{"ha":672,"x_min":58,"x_max":655,"o":"m 368 808 l 403 982 l 571 982 l 536 808 l 368 808 m 115 657 m 494 494 q 476 532 494 516 q 422 549 458 549 q 367 538 395 549 q 314 506 339 527 q 270 453 290 484 q 239 382 250 422 q 359 392 311 382 q 438 417 408 401 q 481 453 468 433 q 494 494 494 473 m 655 494 q 628 395 655 439 q 549 320 602 351 q 420 273 497 290 q 244 257 344 257 q 215 258 233 257 l 215 254 q 225 191 215 218 q 256 147 236 164 q 304 122 276 130 q 368 115 333 115 q 479 127 421 115 q 581 162 538 140 l 552 21 q 456 -6 510 4 q 341 -17 402 -17 q 215 3 269 -17 q 126 58 161 22 q 75 142 92 94 q 58 250 58 191 q 68 354 58 302 q 100 453 79 406 q 153 540 121 500 q 225 610 184 581 q 317 656 266 640 q 427 673 368 673 q 522 661 479 673 q 593 624 564 648 q 639 568 623 601 q 655 494 655 534 z "},"ę":{"ha":672,"x_min":58,"x_max":655,"o":"m 494 494 q 476 532 494 516 q 422 549 458 549 q 367 538 395 549 q 314 506 339 527 q 270 453 290 484 q 239 382 250 422 q 359 392 311 382 q 438 417 408 401 q 481 453 468 433 q 494 494 494 473 m 227 -218 q 235 -165 227 -192 q 260 -112 244 -138 q 297 -62 275 -85 q 344 -18 318 -38 l 343 -17 q 216 3 270 -17 q 127 58 162 22 q 75 142 92 94 q 58 250 58 191 q 68 354 58 302 q 100 453 79 406 q 153 540 121 500 q 225 610 184 581 q 317 656 266 640 q 427 673 368 673 q 522 661 479 673 q 593 624 564 648 q 639 568 623 601 q 655 494 655 534 q 628 395 655 439 q 549 320 602 351 q 420 273 497 290 q 244 257 344 257 q 215 258 233 257 l 215 251 q 225 190 215 216 q 256 147 236 164 q 304 122 276 130 q 368 115 333 115 q 471 125 415 115 q 581 162 528 136 l 552 24 q 480 -23 514 3 q 419 -76 446 -49 q 378 -130 393 -103 q 362 -181 362 -157 q 374 -211 362 -201 q 407 -220 385 -220 q 442 -216 422 -220 q 477 -205 462 -212 l 454 -315 q 411 -327 437 -322 q 361 -332 385 -332 q 307 -325 332 -332 q 264 -303 282 -317 q 237 -267 247 -288 q 227 -218 227 -245 z "},"ĝ":{"ha":716,"x_min":-47,"x_max":703,"o":"m 434 999 l 574 999 l 667 762 l 546 762 l 490 906 l 488 906 l 372 762 l 242 762 l 434 999 m 123 657 m 425 73 q 346 5 391 28 q 250 -17 301 -17 q 170 -1 205 -17 q 111 45 135 16 q 73 117 86 75 q 60 211 60 159 q 70 321 60 266 q 97 428 79 377 q 141 524 115 479 q 203 602 168 569 q 282 654 239 635 q 377 673 326 673 q 466 654 424 673 q 539 592 508 634 l 542 592 l 566 657 l 703 657 l 565 -7 q 516 -151 548 -90 q 438 -253 485 -212 q 326 -313 391 -293 q 177 -332 261 -332 q 61 -323 119 -332 q -47 -294 3 -314 l -20 -162 q 69 -190 22 -179 q 164 -201 116 -201 q 264 -187 222 -201 q 334 -145 305 -173 q 381 -76 363 -117 q 412 21 400 -34 q 427 73 420 54 l 425 73 m 509 491 q 493 509 503 500 q 470 525 483 518 q 440 537 456 532 q 406 542 425 542 q 348 527 374 542 q 301 486 321 511 q 265 428 280 460 q 241 359 250 395 q 227 290 231 324 q 222 227 222 256 q 240 142 222 169 q 292 115 258 115 q 358 135 325 115 q 417 193 391 156 q 477 344 457 248 l 509 491 z "},"ğ":{"ha":716,"x_min":-47,"x_max":735,"o":"m 473 852 q 543 880 513 852 q 591 968 573 909 l 735 968 q 699 876 723 918 q 639 804 675 834 q 557 756 604 773 q 456 739 511 739 q 362 756 401 739 q 300 803 322 773 q 273 866 279 833 q 268 917 267 899 q 273 968 268 941 l 404 968 q 401 933 401 950 q 419 874 401 897 q 473 852 436 852 m 124 657 m 425 73 q 346 5 391 28 q 250 -17 301 -17 q 170 -1 205 -17 q 111 45 135 16 q 73 117 86 75 q 60 211 60 159 q 70 321 60 266 q 97 428 79 377 q 141 524 115 479 q 203 602 168 569 q 282 654 239 635 q 377 673 326 673 q 466 654 424 673 q 539 592 508 634 l 542 592 l 566 657 l 703 657 l 565 -7 q 516 -151 548 -90 q 438 -253 485 -212 q 326 -313 391 -293 q 177 -332 261 -332 q 61 -323 119 -332 q -47 -294 3 -314 l -20 -162 q 69 -190 22 -179 q 164 -201 116 -201 q 264 -187 222 -201 q 334 -145 305 -173 q 381 -76 363 -117 q 412 21 400 -34 q 427 73 420 54 l 425 73 m 509 491 q 493 509 503 500 q 470 525 483 518 q 440 537 456 532 q 406 542 425 542 q 348 527 374 542 q 301 486 321 511 q 265 428 280 460 q 241 359 250 395 q 227 290 231 324 q 222 227 222 256 q 240 142 222 169 q 292 115 258 115 q 358 135 325 115 q 417 193 391 156 q 477 344 457 248 l 509 491 z "},"ġ":{"ha":716,"x_min":-47,"x_max":703,"o":"m 387 808 l 422 982 l 590 982 l 555 808 l 387 808 m 134 657 m 425 73 q 346 5 391 28 q 250 -17 301 -17 q 170 -1 205 -17 q 111 45 135 16 q 73 117 86 75 q 60 211 60 159 q 70 321 60 266 q 97 428 79 377 q 141 524 115 479 q 203 602 168 569 q 282 654 239 635 q 377 673 326 673 q 466 654 424 673 q 539 592 508 634 l 542 592 l 566 657 l 703 657 l 565 -7 q 516 -151 548 -90 q 438 -253 485 -212 q 326 -313 391 -293 q 177 -332 261 -332 q 61 -323 119 -332 q -47 -294 3 -314 l -20 -162 q 69 -190 22 -179 q 164 -201 116 -201 q 264 -187 222 -201 q 334 -145 305 -173 q 381 -76 363 -117 q 412 21 400 -34 q 427 73 420 54 l 425 73 m 509 491 q 493 509 503 500 q 470 525 483 518 q 440 537 456 532 q 406 542 425 542 q 348 527 374 542 q 301 486 321 511 q 265 428 280 460 q 241 359 250 395 q 227 290 231 324 q 222 227 222 256 q 240 142 222 169 q 292 115 258 115 q 358 135 325 115 q 417 193 391 156 q 477 344 457 248 l 509 491 z "},"ģ":{"ha":716,"x_min":-47,"x_max":714,"o":"m 479 892 q 524 855 479 855 l 500 741 q 479 740 488 740 q 417 748 443 740 q 376 770 392 755 q 352 803 359 784 q 345 846 345 823 q 365 922 345 884 q 419 999 385 960 l 544 999 q 519 970 531 985 q 499 943 508 956 q 484 916 490 929 q 479 892 479 903 m 714 657 m 425 73 q 346 5 391 28 q 250 -17 301 -17 q 170 -1 205 -17 q 111 45 135 16 q 73 117 86 75 q 60 211 60 159 q 70 321 60 266 q 97 428 79 377 q 141 524 115 479 q 203 602 168 569 q 282 654 239 635 q 377 673 326 673 q 466 654 424 673 q 539 592 508 634 l 542 592 l 566 657 l 703 657 l 565 -7 q 516 -151 548 -90 q 438 -253 485 -212 q 326 -313 391 -293 q 177 -332 261 -332 q 61 -323 119 -332 q -47 -294 3 -314 l -20 -162 q 69 -190 22 -179 q 164 -201 116 -201 q 264 -187 222 -201 q 334 -145 305 -173 q 381 -76 363 -117 q 412 21 400 -34 q 427 73 420 54 l 425 73 m 509 491 q 493 509 503 500 q 470 525 483 518 q 440 537 456 532 q 406 542 425 542 q 348 527 374 542 q 301 486 321 511 q 265 428 280 460 q 241 359 250 395 q 227 290 231 324 q 222 227 222 256 q 240 142 222 169 q 292 115 258 115 q 358 135 325 115 q 417 193 391 156 q 477 344 457 248 l 509 491 z "},"ĥ":{"ha":755,"x_min":-12,"x_max":714,"o":"m 541 400 q 547 438 545 421 q 549 466 549 454 q 530 519 549 500 q 471 538 511 538 q 378 511 421 538 q 307 438 336 484 q 297 419 302 429 q 287 396 292 409 q 278 367 282 383 q 269 328 273 350 l 201 0 l 41 0 l 244 982 l 404 982 l 340 675 q 313 574 333 636 l 316 574 q 354 612 332 594 q 403 644 376 630 q 460 665 429 657 q 525 673 491 673 q 598 662 564 673 q 658 629 632 651 q 699 576 684 608 q 714 505 714 545 q 709 449 714 479 q 699 388 705 418 l 618 0 l 458 0 l 541 400 m 291 1198 l 431 1198 l 543 1031 l 407 1031 l 350 1116 l 347 1116 l 254 1031 l 110 1031 l 291 1198 m -12 983 z "},"ħ":{"ha":755,"x_min":41,"x_max":714,"o":"m 541 400 q 547 438 545 421 q 549 466 549 454 q 530 519 549 500 q 471 538 511 538 q 378 511 420 538 q 307 438 336 484 q 297 419 302 429 q 287 396 292 409 q 278 367 282 383 q 269 328 273 350 l 201 0 l 41 0 l 196 750 l 87 750 l 113 876 l 222 876 l 244 982 l 404 982 l 382 876 l 561 876 l 535 750 l 356 750 l 340 675 q 313 574 330 625 l 316 574 q 354 612 332 594 q 403 644 376 630 q 460 665 429 657 q 525 673 491 673 q 598 662 564 673 q 658 629 632 651 q 699 576 684 608 q 714 505 714 545 q 709 449 714 479 q 699 388 705 418 l 618 0 l 458 0 l 541 400 z "},"ì":{"ha":340,"x_min":-98,"x_max":348,"o":"m 34 0 l 171 657 l 331 657 l 194 0 l 34 0 m 317 999 l 348 762 l 229 762 l 166 999 l 317 999 m -98 657 z "},"í":{"ha":340,"x_min":-24,"x_max":488,"o":"m 34 0 l 171 657 l 331 657 l 194 0 l 34 0 m 488 999 l 327 762 l 198 762 l 328 999 l 488 999 m -24 657 z "},"î":{"ha":340,"x_min":-65,"x_max":478,"o":"m 34 0 l 171 657 l 331 657 l 194 0 l 34 0 m 245 999 l 385 999 l 478 762 l 357 762 l 302 906 l 299 906 l 184 762 l 54 762 l 245 999 m -65 657 z "},"ĩ":{"ha":340,"x_min":-41,"x_max":529,"o":"m 34 0 l 171 657 l 331 657 l 194 0 l 34 0 m 50 787 q 66 855 54 824 q 98 908 79 886 q 143 942 117 930 q 200 954 169 954 q 232 950 216 954 q 262 940 248 946 q 290 927 277 934 q 314 913 302 920 q 343 897 330 903 q 370 891 357 891 q 400 904 389 891 q 418 948 412 917 l 529 948 q 512 881 525 911 q 480 828 500 850 q 435 794 461 806 q 378 782 410 782 q 347 786 363 782 q 316 795 330 789 q 289 809 302 802 q 264 823 276 816 q 235 838 249 832 q 209 844 221 844 q 178 831 190 844 q 160 787 166 819 l 50 787 m -41 657 z "},"ï":{"ha":340,"x_min":-62,"x_max":523,"o":"m 34 0 l 171 657 l 331 657 l 194 0 l 34 0 m 97 958 l 245 958 l 213 808 l 65 808 l 97 958 m 375 958 l 523 958 l 491 808 l 343 808 l 375 958 m -62 657 z "},"ī":{"ha":340,"x_min":-72,"x_max":486,"o":"m 34 0 l 171 657 l 331 657 l 194 0 l 34 0 m 106 907 l 486 907 l 462 794 l 82 794 l 106 907 m -72 657 z "},"ĭ":{"ha":340,"x_min":-68,"x_max":543,"o":"m 34 0 l 171 657 l 331 657 l 194 0 l 34 0 m 281 852 q 351 880 321 852 q 399 968 381 909 l 543 968 q 507 876 531 918 q 447 804 483 834 q 366 756 412 773 q 264 739 319 739 q 170 756 210 739 q 109 803 130 773 q 81 866 87 833 q 76 917 75 899 q 81 968 76 941 l 212 968 q 210 933 210 950 q 227 874 210 897 q 281 852 244 852 m -68 657 z "},"į":{"ha":340,"x_min":-87,"x_max":401,"o":"m 198 808 l 233 982 l 401 982 l 366 808 l 198 808 m 171 657 l 331 657 l 194 0 q 137 -38 163 -16 q 91 -82 111 -59 q 60 -132 71 -106 q 49 -181 49 -157 q 60 -211 49 -202 q 94 -220 72 -220 q 129 -216 109 -220 q 163 -205 149 -212 l 141 -315 q 98 -327 123 -322 q 47 -332 72 -332 q -12 -323 14 -332 q -54 -298 -37 -314 q -79 -259 -71 -281 q -87 -211 -87 -237 q -75 -144 -87 -176 q -45 -85 -63 -112 q -6 -37 -28 -58 q 34 0 15 -15 l 171 657 z "},"ı":{"ha":340,"x_min":34,"x_max":331,"o":"m 34 0 l 171 657 l 331 657 l 194 0 l 34 0 z "},"ĳ":{"ha":699,"x_min":34,"x_max":761,"o":"m 198 808 l 233 982 l 401 982 l 366 808 l 198 808 m 34 0 l 171 657 l 331 657 l 194 0 l 34 0 m 530 657 l 690 657 l 532 -100 q 507 -189 522 -153 q 471 -252 493 -226 q 389 -312 439 -292 q 266 -332 339 -332 q 197 -326 233 -332 q 138 -311 162 -320 l 165 -182 q 262 -201 220 -201 q 308 -192 289 -201 q 341 -166 328 -184 q 364 -123 355 -149 q 380 -60 373 -96 l 530 657 m 557 808 l 593 982 l 761 982 l 726 808 l 557 808 z "},"ĵ":{"ha":365,"x_min":-203,"x_max":490,"o":"m 189 657 l 349 657 l 191 -100 q 166 -189 180 -153 q 130 -252 152 -226 q 48 -312 98 -292 q -75 -332 -2 -332 q -113 -330 -94 -332 q -149 -325 -132 -328 q -180 -318 -166 -322 q -203 -311 -194 -315 l -176 -182 q -79 -201 -121 -201 q -33 -192 -52 -201 q 0 -166 -14 -184 q 23 -123 14 -149 q 39 -60 32 -96 l 189 657 m 257 999 l 397 999 l 490 762 l 369 762 l 313 906 l 311 906 l 195 762 l 65 762 l 257 999 z "},"ķ":{"ha":724,"x_min":41,"x_max":728,"o":"m 201 0 l 41 0 l 244 982 l 404 982 l 304 500 q 280 395 296 456 l 285 395 l 532 657 l 728 657 l 425 343 l 425 340 q 438 311 433 329 q 450 272 444 293 q 461 230 455 252 q 475 188 467 208 q 513 135 489 155 q 576 115 536 115 q 616 120 592 115 l 589 -12 q 537 -16 562 -16 q 457 -3 490 -16 q 399 31 423 9 q 360 80 376 52 q 334 137 345 108 q 317 190 324 163 q 303 240 310 217 q 288 282 296 263 q 268 311 279 300 l 265 311 l 201 0 m 255 -225 q 210 -189 255 -189 l 233 -74 q 255 -73 245 -73 q 316 -81 291 -73 q 358 -103 342 -89 q 382 -137 374 -117 q 389 -179 389 -156 q 369 -257 389 -220 q 315 -332 349 -294 l 190 -332 q 214 -304 203 -318 q 235 -276 226 -290 q 250 -250 244 -262 q 255 -225 255 -237 z "},"ĸ":{"ha":674,"x_min":34,"x_max":722,"o":"m 194 0 l 34 0 l 171 657 l 331 657 l 298 500 q 292 473 295 487 q 286 444 289 458 q 279 415 282 429 q 272 389 275 401 l 277 389 l 526 657 l 722 657 l 416 336 l 416 334 q 430 304 425 322 q 441 267 436 287 q 453 225 447 246 q 468 184 459 204 q 484 157 475 170 q 505 135 493 144 q 532 120 517 125 q 568 115 548 115 q 609 120 585 115 l 582 -12 q 530 -16 555 -16 q 452 -4 485 -16 q 395 27 418 7 q 355 74 371 47 q 328 128 339 100 q 310 181 318 155 q 295 232 302 208 q 280 274 288 256 q 260 304 272 293 l 257 304 l 194 0 z "},"ĺ":{"ha":378,"x_min":54,"x_max":534,"o":"m 228 982 l 388 982 l 226 203 q 220 163 220 176 q 232 136 220 144 q 267 127 243 127 q 315 133 290 127 l 286 -1 q 245 -7 270 -5 q 199 -10 221 -10 q 91 22 127 -10 q 54 117 54 54 q 63 191 54 149 l 228 982 m 534 1198 l 371 1030 l 239 1030 l 368 1198 l 534 1198 z "},"ľ":{"ha":448,"x_min":54,"x_max":608,"o":"m 228 982 l 388 982 l 226 203 q 220 163 220 176 q 232 136 220 144 q 267 127 243 127 q 315 133 290 127 l 286 -1 q 245 -7 270 -5 q 199 -10 221 -10 q 91 22 127 -10 q 54 117 54 54 q 63 191 54 149 l 228 982 m 474 830 q 429 867 474 867 l 452 981 q 466 982 463 982 q 474 982 469 982 q 535 974 509 982 q 577 952 561 966 q 601 919 593 938 q 608 876 608 899 q 588 799 608 837 q 534 723 568 762 l 409 723 q 433 751 422 737 q 454 779 445 766 q 469 806 463 793 q 474 830 474 819 z "},"ļ":{"ha":378,"x_min":43,"x_max":388,"o":"m 228 982 l 388 982 l 226 203 q 220 163 220 176 q 232 136 220 144 q 267 127 243 127 q 315 133 290 127 l 286 -1 q 245 -7 270 -5 q 199 -10 221 -10 q 91 22 127 -10 q 54 117 54 54 q 63 191 54 149 l 228 982 m 109 -225 q 63 -189 109 -189 l 87 -74 q 109 -73 98 -73 q 170 -81 144 -73 q 212 -103 195 -89 q 235 -137 228 -117 q 243 -179 243 -156 q 223 -257 243 -220 q 168 -332 203 -294 l 43 -332 q 68 -304 56 -318 q 89 -276 79 -290 q 103 -250 98 -262 q 109 -225 109 -237 z "},"ł":{"ha":378,"x_min":9,"x_max":426,"o":"m 392 511 l 278 453 l 226 203 q 220 163 220 176 q 232 136 220 144 q 267 127 243 127 q 315 133 291 127 l 286 -1 q 246 -7 270 -5 q 199 -10 222 -10 q 90 22 126 -10 q 54 117 54 54 q 63 191 54 149 l 100 367 l 9 321 l 43 484 l 134 530 l 228 982 l 388 982 l 312 616 l 426 673 l 392 511 z "},"ŀ":{"ha":519,"x_min":54,"x_max":597,"o":"m 228 982 l 388 982 l 226 203 q 220 163 220 176 q 232 136 220 144 q 267 127 243 127 q 315 133 290 127 l 286 -1 q 245 -7 270 -5 q 199 -10 221 -10 q 91 22 127 -10 q 54 117 54 54 q 63 191 54 149 l 228 982 m 394 382 l 429 556 l 597 556 l 562 382 l 394 382 z "},"ń":{"ha":748,"x_min":34,"x_max":730,"o":"m 194 0 l 34 0 l 170 657 l 307 657 l 307 574 l 309 574 q 348 612 326 594 q 396 644 370 630 q 453 665 422 657 q 518 673 484 673 q 591 662 557 673 q 651 629 625 651 q 692 576 677 608 q 707 505 707 545 q 703 449 707 479 q 692 388 698 418 l 611 0 l 451 0 l 534 400 q 540 438 538 421 q 543 466 543 454 q 523 519 543 500 q 464 538 504 538 q 372 511 414 538 q 300 438 329 484 q 290 419 295 429 q 280 396 285 409 q 271 367 275 383 q 262 328 267 350 l 194 0 m 730 999 l 569 762 l 440 762 l 570 999 l 730 999 m 218 657 z "},"ň":{"ha":748,"x_min":34,"x_max":748,"o":"m 194 0 l 34 0 l 170 657 l 307 657 l 307 574 l 309 574 q 348 612 326 594 q 396 644 370 630 q 453 665 422 657 q 518 673 484 673 q 591 662 557 673 q 651 629 625 651 q 692 576 677 608 q 707 505 707 545 q 703 449 707 479 q 692 388 698 418 l 611 0 l 451 0 l 534 400 q 540 438 538 421 q 543 466 543 454 q 523 519 543 500 q 464 538 504 538 q 372 511 414 538 q 300 438 329 484 q 290 419 295 429 q 280 396 285 409 q 271 367 275 383 q 262 328 267 350 l 194 0 m 556 762 l 416 762 l 323 999 l 444 999 l 499 855 l 502 855 l 617 999 l 748 999 l 556 762 m 155 657 z "},"ñ":{"ha":748,"x_min":34,"x_max":733,"o":"m 194 0 l 34 0 l 170 657 l 307 657 l 307 574 l 309 574 q 348 612 326 594 q 396 644 370 630 q 453 665 422 657 q 518 673 484 673 q 591 662 557 673 q 651 629 625 651 q 692 576 677 608 q 707 505 707 545 q 703 449 707 479 q 692 388 698 418 l 611 0 l 451 0 l 534 400 q 540 438 538 421 q 543 466 543 454 q 523 519 543 500 q 464 538 504 538 q 372 511 414 538 q 300 438 329 484 q 290 419 295 429 q 280 396 285 409 q 271 367 275 383 q 262 328 267 350 l 194 0 m 254 787 q 270 855 258 824 q 302 908 283 886 q 347 942 321 930 q 404 954 373 954 q 436 950 420 954 q 467 940 452 946 q 494 927 481 934 q 518 913 507 920 q 548 897 534 903 q 574 891 562 891 q 605 904 593 891 q 623 948 616 917 l 733 948 q 716 881 729 911 q 685 828 704 850 q 640 794 665 806 q 583 782 614 782 q 551 786 567 782 q 520 795 534 789 q 493 809 506 802 q 469 823 480 816 q 439 838 453 832 q 413 844 425 844 q 382 831 394 844 q 364 787 370 819 l 254 787 m 163 657 z "},"ņ":{"ha":748,"x_min":34,"x_max":707,"o":"m 194 0 l 34 0 l 170 657 l 307 657 l 307 574 l 309 574 q 348 612 326 594 q 396 644 370 630 q 453 665 422 657 q 518 673 484 673 q 591 662 557 673 q 651 629 625 651 q 692 576 677 608 q 707 505 707 545 q 703 449 707 479 q 692 388 698 418 l 611 0 l 451 0 l 534 400 q 540 438 538 421 q 543 466 543 454 q 523 519 543 500 q 464 538 504 538 q 372 511 414 538 q 300 438 329 484 q 290 419 295 429 q 280 396 285 409 q 271 367 275 383 q 262 328 267 350 l 194 0 m 287 -225 q 241 -189 287 -189 l 265 -74 q 287 -73 277 -73 q 348 -81 323 -73 q 390 -103 374 -89 q 414 -137 406 -117 q 421 -179 421 -156 q 401 -257 421 -220 q 347 -332 381 -294 l 222 -332 q 246 -304 235 -318 q 267 -276 258 -290 q 281 -250 276 -262 q 287 -225 287 -237 z "},"ŉ":{"ha":748,"x_min":-3,"x_max":707,"o":"m 194 0 l 34 0 l 170 657 l 307 657 l 307 574 l 309 574 q 348 612 326 594 q 396 644 370 630 q 453 665 422 657 q 518 673 484 673 q 591 662 557 673 q 651 629 625 651 q 692 576 677 608 q 707 505 707 545 q 703 449 707 479 q 692 388 698 418 l 611 0 l 451 0 l 534 400 q 540 438 538 421 q 543 466 543 454 q 523 519 543 500 q 464 538 504 538 q 372 511 414 538 q 300 438 329 484 q 290 419 295 429 q 280 396 285 409 q 271 367 275 383 q 262 328 267 350 l 194 0 m 132 830 q 86 867 132 867 l 110 981 q 123 982 121 982 q 132 982 126 982 q 193 974 167 982 q 235 952 218 966 q 258 919 251 938 q 266 876 266 899 q 246 799 266 837 q 191 723 226 762 l 66 723 q 91 751 79 737 q 112 779 102 766 q 126 806 121 793 q 132 830 132 819 m -3 657 z "},"ò":{"ha":711,"x_min":58,"x_max":684,"o":"m 414 542 q 354 529 381 542 q 305 493 327 516 q 268 441 283 471 q 241 377 252 411 q 224 307 230 342 q 219 236 219 271 q 245 147 219 180 q 328 115 271 115 q 387 127 360 115 q 436 163 414 140 q 474 216 458 186 q 501 280 490 245 q 517 350 511 314 q 522 421 522 387 q 496 509 522 477 q 414 542 469 542 m 427 673 q 533 658 486 673 q 613 611 580 642 q 665 533 647 581 q 684 424 684 486 q 660 257 684 337 q 590 117 636 178 q 474 19 543 56 q 314 -17 405 -17 q 209 -1 256 -17 q 128 45 161 14 q 76 123 94 76 q 58 233 58 170 q 81 399 58 319 q 152 540 105 479 q 267 637 198 601 q 427 673 336 673 m 478 999 l 509 762 l 390 762 l 328 999 l 478 999 m 64 657 z "},"ó":{"ha":711,"x_min":58,"x_max":684,"o":"m 414 542 q 354 529 381 542 q 305 493 327 516 q 268 441 283 471 q 241 377 252 411 q 224 307 230 342 q 219 236 219 271 q 245 147 219 180 q 328 115 271 115 q 387 127 360 115 q 436 163 414 140 q 474 216 458 186 q 501 280 490 245 q 517 350 511 314 q 522 421 522 387 q 496 509 522 477 q 414 542 469 542 m 427 673 q 533 658 486 673 q 613 611 580 642 q 665 533 647 581 q 684 424 684 486 q 660 257 684 337 q 590 117 636 178 q 474 19 543 56 q 314 -17 405 -17 q 209 -1 256 -17 q 128 45 161 14 q 76 123 94 76 q 58 233 58 170 q 81 399 58 319 q 152 540 105 479 q 267 637 198 601 q 427 673 336 673 m 680 999 l 518 762 l 389 762 l 519 999 l 680 999 m 168 657 z "},"ô":{"ha":711,"x_min":58,"x_max":684,"o":"m 414 542 q 354 529 381 542 q 305 493 327 516 q 268 441 283 471 q 241 377 252 411 q 224 307 230 342 q 219 236 219 271 q 245 147 219 180 q 328 115 271 115 q 387 127 360 115 q 436 163 414 140 q 474 216 458 186 q 501 280 490 245 q 517 350 511 314 q 522 421 522 387 q 496 509 522 477 q 414 542 469 542 m 427 673 q 533 658 486 673 q 613 611 580 642 q 665 533 647 581 q 684 424 684 486 q 660 257 684 337 q 590 117 636 178 q 474 19 543 56 q 314 -17 405 -17 q 209 -1 256 -17 q 128 45 161 14 q 76 123 94 76 q 58 233 58 170 q 81 399 58 319 q 152 540 105 479 q 267 637 198 601 q 427 673 336 673 m 430 999 l 570 999 l 663 762 l 542 762 l 486 906 l 484 906 l 368 762 l 238 762 l 430 999 m 119 657 z "},"õ":{"ha":711,"x_min":58,"x_max":707,"o":"m 414 542 q 354 529 381 542 q 305 493 327 516 q 268 441 283 471 q 241 377 252 411 q 224 307 230 342 q 219 236 219 271 q 245 147 219 180 q 328 115 271 115 q 387 127 360 115 q 436 163 414 140 q 474 216 458 186 q 501 280 490 245 q 517 350 511 314 q 522 421 522 387 q 496 509 522 477 q 414 542 469 542 m 427 673 q 533 658 486 673 q 613 611 580 642 q 665 533 647 581 q 684 424 684 486 q 660 257 684 337 q 590 117 636 178 q 474 19 543 56 q 314 -17 405 -17 q 209 -1 256 -17 q 128 45 161 14 q 76 123 94 76 q 58 233 58 170 q 81 399 58 319 q 152 540 105 479 q 267 637 198 601 q 427 673 336 673 m 227 787 q 244 855 231 824 q 276 908 256 886 q 321 942 295 930 q 378 954 347 954 q 410 950 393 954 q 440 940 426 946 q 467 927 454 934 q 492 913 480 920 q 521 897 507 903 q 547 891 535 891 q 578 904 566 891 q 596 948 590 917 l 707 948 q 690 881 703 911 q 658 828 677 850 q 613 794 639 806 q 556 782 587 782 q 524 786 541 782 q 494 795 508 789 q 467 809 479 802 q 442 823 454 816 q 413 838 427 832 q 387 844 399 844 q 356 831 368 844 q 338 787 344 819 l 227 787 m 137 657 z "},"ö":{"ha":711,"x_min":58,"x_max":711,"o":"m 414 542 q 354 529 381 542 q 305 493 327 516 q 268 441 283 471 q 241 377 252 411 q 224 307 230 342 q 219 236 219 271 q 245 147 219 180 q 328 115 271 115 q 387 127 360 115 q 436 163 414 140 q 474 216 458 186 q 501 280 490 245 q 517 350 511 314 q 522 421 522 387 q 496 509 522 477 q 414 542 469 542 m 427 673 q 533 658 486 673 q 613 611 580 642 q 665 533 647 581 q 684 424 684 486 q 660 257 684 337 q 590 117 636 178 q 474 19 543 56 q 314 -17 405 -17 q 209 -1 256 -17 q 128 45 161 14 q 76 123 94 76 q 58 233 58 170 q 81 399 58 319 q 152 540 105 479 q 267 637 198 601 q 427 673 336 673 m 286 958 l 433 958 l 401 808 l 254 808 l 286 958 m 564 958 l 711 958 l 680 808 l 532 808 l 564 958 m 127 657 z "},"ō":{"ha":711,"x_min":58,"x_max":684,"o":"m 414 542 q 354 529 381 542 q 305 493 327 516 q 268 441 283 471 q 241 377 252 411 q 224 307 230 342 q 219 236 219 271 q 245 147 219 180 q 328 115 271 115 q 387 127 360 115 q 436 163 414 140 q 474 216 458 186 q 501 280 490 245 q 517 350 511 314 q 522 421 522 387 q 496 509 522 477 q 414 542 469 542 m 427 673 q 533 658 486 673 q 613 611 580 642 q 665 533 647 581 q 684 424 684 486 q 660 257 684 337 q 590 117 636 178 q 474 19 543 56 q 314 -17 405 -17 q 209 -1 256 -17 q 128 45 161 14 q 76 123 94 76 q 58 233 58 170 q 81 399 58 319 q 152 540 105 479 q 267 637 198 601 q 427 673 336 673 m 294 907 l 673 907 l 650 794 l 270 794 l 294 907 m 116 657 z "},"ŏ":{"ha":711,"x_min":58,"x_max":724,"o":"m 414 542 q 354 529 381 542 q 305 493 327 516 q 268 441 283 471 q 241 377 252 411 q 224 307 230 342 q 219 236 219 271 q 245 147 219 180 q 328 115 271 115 q 387 127 360 115 q 436 163 414 140 q 474 216 458 186 q 501 280 490 245 q 517 350 511 314 q 522 421 522 387 q 496 509 522 477 q 414 542 469 542 m 427 673 q 533 658 486 673 q 613 611 580 642 q 665 533 647 581 q 684 424 684 486 q 660 257 684 337 q 590 117 636 178 q 474 19 543 56 q 314 -17 405 -17 q 209 -1 256 -17 q 128 45 161 14 q 76 123 94 76 q 58 233 58 170 q 81 399 58 319 q 152 540 105 479 q 267 637 198 601 q 427 673 336 673 m 461 852 q 531 880 501 852 q 579 968 562 909 l 724 968 q 687 876 711 918 q 628 804 663 834 q 546 756 592 773 q 444 739 500 739 q 350 756 390 739 q 289 803 311 773 q 261 866 267 833 q 256 917 256 899 q 261 968 256 941 l 392 968 q 390 933 390 950 q 407 874 390 897 q 461 852 425 852 m 113 657 z "},"ő":{"ha":711,"x_min":58,"x_max":789,"o":"m 414 542 q 354 529 381 542 q 305 493 327 516 q 268 441 283 471 q 241 377 252 411 q 224 307 230 342 q 219 236 219 271 q 245 147 219 180 q 328 115 271 115 q 387 127 360 115 q 436 163 414 140 q 474 216 458 186 q 501 280 490 245 q 517 350 511 314 q 522 421 522 387 q 496 509 522 477 q 414 542 469 542 m 427 673 q 533 658 486 673 q 613 611 580 642 q 665 533 647 581 q 684 424 684 486 q 660 257 684 337 q 590 117 636 178 q 474 19 543 56 q 314 -17 405 -17 q 209 -1 256 -17 q 128 45 161 14 q 76 123 94 76 q 58 233 58 170 q 81 399 58 319 q 152 540 105 479 q 267 637 198 601 q 427 673 336 673 m 567 999 l 406 762 l 285 762 l 415 999 l 567 999 m 789 999 l 613 762 l 488 762 l 633 999 l 789 999 m 180 657 z "},"ø":{"ha":711,"x_min":8,"x_max":734,"o":"m 734 595 l 666 531 q 684 424 684 484 q 660 257 684 337 q 590 117 636 178 q 474 19 543 56 q 314 -17 405 -17 q 216 -4 260 -17 q 138 35 172 9 l 83 -17 l 8 62 l 75 125 q 58 233 58 172 q 81 399 58 319 q 152 540 105 479 q 267 637 198 601 q 427 673 336 673 q 525 660 481 673 q 603 621 570 647 l 659 673 l 734 595 m 414 542 q 331 516 367 542 q 270 449 295 490 q 232 357 245 408 q 215 256 218 307 l 492 516 q 459 535 479 528 q 414 542 439 542 m 328 115 q 410 140 374 115 q 471 207 446 166 q 509 298 496 248 q 526 399 523 349 l 249 140 q 328 115 277 115 z "},"ǿ":{"ha":711,"x_min":8,"x_max":734,"o":"m 734 595 l 666 531 q 684 424 684 484 q 660 257 684 337 q 590 117 636 178 q 474 19 543 56 q 314 -17 405 -17 q 216 -4 260 -17 q 138 35 172 9 l 83 -17 l 8 62 l 75 125 q 58 233 58 172 q 81 399 58 319 q 152 540 105 479 q 267 637 198 601 q 427 673 336 673 q 525 660 481 673 q 603 621 570 647 l 659 673 l 734 595 m 414 542 q 331 516 367 542 q 270 449 295 490 q 232 357 245 408 q 215 256 218 307 l 492 516 q 459 535 479 528 q 414 542 439 542 m 328 115 q 410 140 374 115 q 471 207 446 166 q 509 298 496 248 q 526 399 523 349 l 249 140 q 328 115 277 115 m 676 999 l 515 762 l 386 762 l 516 999 l 676 999 m 164 657 z "},"œ":{"ha":1121,"x_min":58,"x_max":1104,"o":"m 559 119 q 513 64 538 90 q 456 21 488 39 q 387 -7 425 3 q 304 -17 349 -17 q 204 -1 250 -17 q 127 45 159 14 q 76 123 94 76 q 58 233 58 170 q 81 399 58 319 q 150 540 104 479 q 263 637 196 601 q 416 673 330 673 q 494 664 460 673 q 553 637 528 654 q 597 595 579 620 q 625 541 614 570 l 628 541 q 675 594 649 570 q 734 636 702 618 q 803 664 766 654 q 884 673 841 673 q 974 661 933 673 q 1043 624 1014 648 q 1088 568 1072 601 q 1104 494 1104 534 q 1077 395 1104 439 q 998 320 1050 351 q 869 273 946 290 q 693 257 793 257 q 664 258 686 257 l 664 252 q 674 190 664 216 q 705 147 685 164 q 753 122 725 130 q 817 115 782 115 q 922 126 865 115 q 1030 162 980 138 l 1001 21 q 905 -6 959 4 q 790 -17 851 -17 q 704 -7 741 -17 q 639 21 667 3 q 592 64 611 39 q 562 119 573 90 l 559 119 m 414 542 q 354 529 381 542 q 305 493 327 516 q 268 441 283 471 q 241 377 252 411 q 224 307 230 342 q 219 236 219 271 q 245 147 219 180 q 328 115 271 115 q 387 127 360 115 q 436 163 414 140 q 474 216 458 186 q 501 280 490 245 q 517 350 511 314 q 522 421 522 387 q 496 509 522 477 q 414 542 470 542 m 943 494 q 925 532 943 516 q 871 549 907 549 q 816 538 844 549 q 763 506 788 527 q 719 453 739 484 q 688 382 699 422 q 808 392 760 382 q 887 417 857 401 q 930 453 917 433 q 943 494 943 473 z "},"ŕ":{"ha":498,"x_min":34,"x_max":592,"o":"m 592 999 l 431 762 l 302 762 l 432 999 l 592 999 m 80 657 m 528 519 q 471 526 498 526 q 422 521 447 526 q 373 503 397 515 q 328 471 349 491 q 292 421 307 451 q 277 387 284 407 q 262 330 270 366 l 194 0 l 34 0 l 170 657 l 307 657 l 307 574 l 309 574 q 395 647 348 621 q 507 673 443 673 q 559 669 532 673 l 528 519 z "},"ř":{"ha":498,"x_min":34,"x_max":637,"o":"m 446 762 l 306 762 l 213 999 l 333 999 l 389 855 l 391 855 l 507 999 l 637 999 l 446 762 m 45 657 m 528 519 q 471 526 498 526 q 422 521 447 526 q 373 503 397 515 q 328 471 349 491 q 292 421 307 451 q 277 387 284 407 q 262 330 270 366 l 194 0 l 34 0 l 170 657 l 307 657 l 307 574 l 309 574 q 395 647 348 621 q 507 673 443 673 q 559 669 532 673 l 528 519 z "},"ŗ":{"ha":498,"x_min":-19,"x_max":559,"o":"m 46 -225 q 1 -189 46 -189 l 24 -74 q 46 -73 36 -73 q 107 -81 82 -73 q 149 -103 133 -89 q 173 -137 165 -117 q 180 -179 180 -156 q 160 -257 180 -220 q 106 -332 140 -294 l -19 -332 q 5 -304 -6 -318 q 26 -276 17 -290 q 41 -250 35 -262 q 46 -225 46 -237 m 528 519 q 471 526 498 526 q 422 521 447 526 q 373 503 397 515 q 328 471 349 491 q 292 421 307 451 q 277 387 284 407 q 262 330 270 366 l 194 0 l 34 0 l 170 657 l 307 657 l 307 574 l 309 574 q 395 647 348 621 q 507 673 443 673 q 559 669 532 673 l 528 519 z "},"ś":{"ha":581,"x_min":20,"x_max":597,"o":"m 597 999 l 435 762 l 307 762 l 437 999 l 597 999 m 85 657 m 368 199 q 355 233 368 220 q 322 255 342 245 q 276 273 302 265 q 223 292 250 281 q 176 314 199 301 q 135 346 153 327 q 107 392 117 366 q 96 456 96 418 q 117 552 96 511 q 174 620 138 593 q 256 660 209 647 q 354 673 302 673 q 413 670 383 673 q 470 660 442 666 q 524 645 498 653 q 571 626 550 636 l 545 500 q 445 532 494 522 q 353 543 396 543 q 280 524 306 543 q 255 475 255 505 q 264 444 255 456 q 289 422 273 431 q 324 405 304 412 q 366 389 344 397 q 422 367 393 379 q 473 335 450 355 q 511 286 496 315 q 526 212 526 256 q 504 113 526 156 q 444 41 483 71 q 350 -2 404 12 q 229 -17 296 -17 q 159 -13 192 -17 q 99 -3 125 -9 q 52 10 72 3 q 20 22 32 17 l 47 151 q 137 123 92 133 q 230 113 183 113 q 333 136 298 113 q 368 199 368 159 z "},"ŝ":{"ha":581,"x_min":20,"x_max":585,"o":"m 353 999 l 492 999 l 585 762 l 465 762 l 409 906 l 406 906 l 291 762 l 161 762 l 353 999 m 42 657 m 368 199 q 355 233 368 220 q 322 255 342 245 q 276 273 302 265 q 223 292 250 281 q 176 314 199 301 q 135 346 153 327 q 107 392 117 366 q 96 456 96 418 q 117 552 96 511 q 174 620 138 593 q 256 660 209 647 q 354 673 302 673 q 413 670 383 673 q 470 660 442 666 q 524 645 498 653 q 571 626 550 636 l 545 500 q 445 532 494 522 q 353 543 396 543 q 280 524 306 543 q 255 475 255 505 q 264 444 255 456 q 289 422 273 431 q 324 405 304 412 q 366 389 344 397 q 422 367 393 379 q 473 335 450 355 q 511 286 496 315 q 526 212 526 256 q 504 113 526 156 q 444 41 483 71 q 350 -2 404 12 q 229 -17 296 -17 q 159 -13 192 -17 q 99 -3 125 -9 q 52 10 72 3 q 20 22 32 17 l 47 151 q 137 123 92 133 q 230 113 183 113 q 333 136 298 113 q 368 199 368 159 z "},"š":{"ha":581,"x_min":20,"x_max":640,"o":"m 448 762 l 309 762 l 216 999 l 336 999 l 391 855 l 394 855 l 509 999 l 640 999 l 448 762 m 47 657 m 368 199 q 355 233 368 220 q 322 255 342 245 q 276 273 302 265 q 223 292 250 281 q 176 314 199 301 q 135 346 153 327 q 107 392 117 366 q 96 456 96 418 q 117 552 96 511 q 174 620 138 593 q 256 660 209 647 q 354 673 302 673 q 413 670 383 673 q 470 660 442 666 q 524 645 498 653 q 571 626 550 636 l 545 500 q 445 532 494 522 q 353 543 396 543 q 280 524 306 543 q 255 475 255 505 q 264 444 255 456 q 289 422 273 431 q 324 405 304 412 q 366 389 344 397 q 422 367 393 379 q 473 335 450 355 q 511 286 496 315 q 526 212 526 256 q 504 113 526 156 q 444 41 483 71 q 350 -2 404 12 q 229 -17 296 -17 q 159 -13 192 -17 q 99 -3 125 -9 q 52 10 72 3 q 20 22 32 17 l 47 151 q 137 123 92 133 q 230 113 183 113 q 333 136 298 113 q 368 199 368 159 z "},"ş":{"ha":581,"x_min":20,"x_max":571,"o":"m 368 199 q 355 233 368 220 q 322 255 342 245 q 276 273 302 264 q 223 292 250 281 q 176 314 199 301 q 135 346 153 327 q 107 392 117 366 q 96 456 96 418 q 117 552 96 511 q 174 620 138 593 q 256 660 209 647 q 354 673 302 673 q 413 670 383 673 q 470 660 442 666 q 524 645 498 653 q 571 626 550 636 l 545 500 q 445 532 494 522 q 353 543 396 543 q 280 524 306 543 q 255 475 255 505 q 264 444 255 456 q 289 422 273 431 q 323 405 304 412 q 366 389 342 397 q 422 367 394 379 q 473 335 450 355 q 511 286 496 315 q 526 212 526 256 q 508 121 526 161 q 456 52 490 81 q 377 6 423 23 q 273 -15 330 -10 l 249 -80 q 304 -92 281 -83 q 340 -115 326 -101 q 360 -146 354 -129 q 367 -184 367 -164 q 351 -243 367 -216 q 306 -290 335 -271 q 236 -321 277 -310 q 144 -332 195 -332 q 91 -328 118 -332 q 49 -318 63 -324 l 68 -222 q 142 -232 98 -232 q 214 -218 188 -232 q 239 -183 239 -203 q 124 -146 239 -145 l 173 -14 q 78 2 118 -9 q 20 22 39 13 l 47 151 q 137 123 92 133 q 230 113 183 113 q 333 136 298 113 q 368 199 368 159 z "},"ș":{"ha":581,"x_min":20,"x_max":571,"o":"m 191 -225 q 145 -189 191 -189 l 169 -74 q 191 -73 180 -73 q 252 -81 227 -73 q 294 -103 277 -89 q 317 -137 310 -117 q 325 -179 325 -156 q 305 -257 325 -220 q 250 -332 285 -294 l 125 -332 q 150 -304 138 -318 q 171 -276 161 -290 q 185 -250 180 -262 q 191 -225 191 -237 m 368 199 q 355 233 368 220 q 322 255 342 245 q 276 273 302 265 q 223 292 250 281 q 176 314 199 301 q 135 346 153 327 q 107 392 117 366 q 96 456 96 418 q 117 552 96 511 q 174 620 138 593 q 256 660 209 647 q 354 673 302 673 q 413 670 383 673 q 470 660 442 666 q 524 645 498 653 q 571 626 550 636 l 545 500 q 445 532 494 522 q 353 543 396 543 q 280 524 306 543 q 255 475 255 505 q 264 444 255 456 q 289 422 273 431 q 324 405 304 412 q 366 389 344 397 q 422 367 393 379 q 473 335 450 355 q 511 286 496 315 q 526 212 526 256 q 504 113 526 156 q 444 41 483 71 q 350 -2 404 12 q 229 -17 296 -17 q 159 -13 192 -17 q 99 -3 125 -9 q 52 10 72 3 q 20 22 32 17 l 47 151 q 137 123 92 133 q 230 113 183 113 q 333 136 298 113 q 368 199 368 159 z "},"ß":{"ha":880,"x_min":-217,"x_max":822,"o":"m 817 804 q 809 743 817 770 q 786 693 800 716 q 754 651 772 670 q 717 614 736 631 q 678 581 697 597 q 643 548 659 564 q 619 514 628 531 q 610 477 610 496 q 618 443 610 458 q 640 417 627 429 q 672 394 654 405 q 709 372 690 384 q 750 345 730 360 q 786 310 770 330 q 812 262 802 290 q 822 197 822 235 q 803 109 822 149 q 749 42 785 70 q 662 -2 713 14 q 543 -17 610 -17 q 484 -14 512 -17 q 430 -5 456 -11 q 385 6 405 0 q 352 20 366 13 l 378 148 q 458 122 419 130 q 541 113 498 113 q 634 136 604 113 q 665 196 665 158 q 654 233 665 218 q 627 260 644 248 q 589 283 610 273 q 546 307 568 294 q 511 332 528 318 q 481 363 494 345 q 460 404 468 380 q 452 458 452 427 q 464 528 452 497 q 495 583 476 558 q 536 629 513 608 q 581 669 559 650 q 611 697 597 684 q 636 725 625 711 q 653 756 647 740 q 660 790 660 772 q 632 847 660 826 q 553 867 605 867 q 495 859 524 867 q 444 832 467 851 q 402 782 420 813 q 374 702 385 750 l 214 -73 q 190 -159 203 -123 q 157 -222 176 -195 q 50 -308 115 -283 q -92 -332 -14 -332 q -162 -326 -129 -332 q -217 -312 -196 -320 l -190 -184 q -143 -197 -167 -193 q -100 -201 -119 -201 q -35 -191 -62 -201 q 10 -159 -9 -180 q 41 -106 28 -138 q 62 -31 53 -75 l 217 715 q 265 846 233 792 q 340 934 296 900 q 438 984 384 968 q 554 999 492 999 q 669 983 620 999 q 751 941 718 968 q 801 879 784 915 q 817 804 817 844 z "},"ſ":{"ha":426,"x_min":-203,"x_max":594,"o":"m 191 -100 q 166 -189 180 -153 q 130 -252 152 -226 q 48 -312 98 -292 q -75 -332 -2 -332 q -146 -326 -111 -332 q -203 -311 -182 -320 l -176 -182 q -79 -201 -121 -201 q -33 -192 -52 -201 q 0 -166 -14 -184 q 23 -123 14 -149 q 39 -60 32 -96 l 211 763 q 254 880 226 834 q 319 952 283 926 q 397 989 356 979 q 477 999 438 999 q 542 993 510 999 q 594 980 574 987 l 568 855 q 533 864 551 861 q 495 867 515 867 q 453 862 473 867 q 416 842 433 856 q 388 806 400 829 q 368 749 376 783 l 191 -100 z "},"ť":{"ha":519,"x_min":64,"x_max":663,"o":"m 518 525 l 347 525 l 282 208 q 277 182 279 193 q 275 163 275 171 q 289 128 275 138 q 336 118 302 118 q 395 123 359 118 q 460 135 431 128 l 433 1 q 362 -12 401 -7 q 290 -17 324 -17 q 210 -7 243 -17 q 154 21 176 3 q 121 66 132 39 q 111 125 111 92 q 112 153 111 137 q 118 191 113 169 l 187 525 l 64 525 l 92 657 l 214 657 l 253 841 l 413 841 l 375 657 l 546 657 l 518 525 m 529 830 q 484 867 529 867 l 507 981 q 521 982 518 982 q 529 982 524 982 q 590 974 564 982 q 632 952 616 966 q 656 919 648 938 q 663 876 663 899 q 643 799 663 837 q 589 723 623 762 l 464 723 q 488 751 477 737 q 509 779 500 766 q 524 806 518 793 q 529 830 529 819 m 395 657 z "},"ţ":{"ha":519,"x_min":64,"x_max":546,"o":"m 518 525 l 347 525 l 282 208 q 277 182 279 193 q 275 163 275 171 q 289 128 275 138 q 336 118 302 118 q 395 123 359 118 q 460 135 431 128 l 433 1 q 362 -12 401 -7 q 290 -17 324 -17 q 210 -7 243 -17 q 154 21 176 3 q 121 66 132 39 q 111 125 111 92 q 112 153 111 137 q 118 191 113 169 l 187 525 l 64 525 l 92 657 l 214 657 l 253 841 l 413 841 l 375 657 l 546 657 l 518 525 m 189 -225 q 143 -189 189 -189 l 167 -74 q 189 -73 178 -73 q 250 -81 224 -73 q 292 -103 275 -89 q 315 -137 308 -117 q 323 -179 323 -156 q 303 -257 323 -220 q 248 -332 283 -294 l 123 -332 q 148 -304 136 -318 q 169 -276 159 -290 q 183 -250 178 -262 q 189 -225 189 -237 z "},"ŧ":{"ha":519,"x_min":17,"x_max":546,"o":"m 518 525 l 347 525 l 321 397 l 459 397 l 432 270 l 294 270 l 282 208 q 277 182 279 193 q 275 163 275 171 q 289 128 275 138 q 336 118 302 118 q 393 123 358 118 q 460 135 428 127 l 433 1 q 364 -12 404 -7 q 290 -17 324 -17 q 210 -7 243 -17 q 154 21 176 3 q 121 66 132 39 q 111 125 111 92 q 112 153 111 137 q 118 191 113 169 l 134 270 l 17 270 l 44 397 l 161 397 l 187 525 l 64 525 l 92 657 l 214 657 l 253 841 l 413 841 l 375 657 l 546 657 l 518 525 z "},"ù":{"ha":729,"x_min":71,"x_max":722,"o":"m 317 -17 q 205 -2 252 -17 q 129 39 159 12 q 85 102 99 65 q 71 183 71 139 q 74 216 71 197 q 81 262 76 234 l 163 657 l 323 657 l 240 257 q 235 227 237 241 q 234 201 234 213 q 256 138 234 161 q 329 115 279 115 q 390 124 364 115 q 433 153 415 134 q 461 198 450 172 q 479 258 473 225 l 562 657 l 722 657 l 631 214 q 601 128 621 170 q 545 54 581 86 q 452 2 508 22 q 317 -17 397 -17 m 491 999 l 522 762 l 403 762 l 340 999 l 491 999 m 77 657 z "},"ú":{"ha":729,"x_min":71,"x_max":722,"o":"m 317 -17 q 205 -2 252 -17 q 129 39 159 12 q 85 102 99 65 q 71 183 71 139 q 74 216 71 197 q 81 262 76 234 l 163 657 l 323 657 l 240 257 q 235 227 237 241 q 234 201 234 213 q 256 138 234 161 q 329 115 279 115 q 390 124 364 115 q 433 153 415 134 q 461 198 450 172 q 479 258 473 225 l 562 657 l 722 657 l 631 214 q 601 128 621 170 q 545 54 581 86 q 452 2 508 22 q 317 -17 397 -17 m 674 999 l 513 762 l 384 762 l 514 999 l 674 999 m 162 657 z "},"û":{"ha":729,"x_min":71,"x_max":722,"o":"m 317 -17 q 205 -2 252 -17 q 129 39 159 12 q 85 102 99 65 q 71 183 71 139 q 74 216 71 197 q 81 262 76 234 l 163 657 l 323 657 l 240 257 q 235 227 237 241 q 234 201 234 213 q 256 138 234 161 q 329 115 279 115 q 390 124 364 115 q 433 153 415 134 q 461 198 450 172 q 479 258 473 225 l 562 657 l 722 657 l 631 214 q 601 128 621 170 q 545 54 581 86 q 452 2 508 22 q 317 -17 397 -17 m 434 999 l 574 999 l 667 762 l 546 762 l 490 906 l 488 906 l 372 762 l 242 762 l 434 999 m 123 657 z "},"ũ":{"ha":729,"x_min":71,"x_max":722,"o":"m 317 -17 q 205 -2 252 -17 q 129 39 159 12 q 85 102 99 65 q 71 183 71 139 q 74 216 71 197 q 81 262 76 234 l 163 657 l 323 657 l 240 257 q 235 227 237 241 q 234 201 234 213 q 256 138 234 161 q 329 115 279 115 q 390 124 364 115 q 433 153 415 134 q 461 198 450 172 q 479 258 473 225 l 562 657 l 722 657 l 631 214 q 601 128 621 170 q 545 54 581 86 q 452 2 508 22 q 317 -17 397 -17 m 242 787 q 259 855 246 824 q 291 908 271 886 q 336 942 310 930 q 393 954 361 954 q 425 950 408 954 q 455 940 441 946 q 482 927 469 934 q 507 913 495 920 q 536 897 522 903 q 562 891 550 891 q 593 904 581 891 q 611 948 605 917 l 722 948 q 705 881 718 911 q 673 828 692 850 q 628 794 654 806 q 571 782 602 782 q 539 786 555 782 q 509 795 523 789 q 481 809 494 802 q 457 823 469 816 q 428 838 441 832 q 401 844 414 844 q 371 831 382 844 q 353 787 359 819 l 242 787 m 152 657 z "},"ü":{"ha":729,"x_min":71,"x_max":722,"o":"m 317 -17 q 205 -2 252 -17 q 129 39 159 12 q 85 102 99 65 q 71 183 71 139 q 74 216 71 197 q 81 262 76 234 l 163 657 l 323 657 l 240 257 q 235 227 237 241 q 234 201 234 213 q 256 138 234 161 q 329 115 279 115 q 390 124 364 115 q 433 153 415 134 q 461 198 450 172 q 479 258 473 225 l 562 657 l 722 657 l 631 214 q 601 128 621 170 q 545 54 581 86 q 452 2 508 22 q 317 -17 397 -17 m 281 958 l 429 958 l 397 808 l 249 808 l 281 958 m 559 958 l 707 958 l 675 808 l 527 808 l 559 958 m 122 657 z "},"ū":{"ha":729,"x_min":71,"x_max":722,"o":"m 317 -17 q 205 -2 252 -17 q 129 39 159 12 q 85 102 99 65 q 71 183 71 139 q 74 216 71 197 q 81 262 76 234 l 163 657 l 323 657 l 240 257 q 235 227 237 241 q 234 201 234 213 q 256 138 234 161 q 329 115 279 115 q 390 124 364 115 q 433 153 415 134 q 461 198 450 172 q 479 258 473 225 l 562 657 l 722 657 l 631 214 q 601 128 621 170 q 545 54 581 86 q 452 2 508 22 q 317 -17 397 -17 m 300 907 l 680 907 l 656 794 l 277 794 l 300 907 m 123 657 z "},"ŭ":{"ha":729,"x_min":71,"x_max":730,"o":"m 317 -17 q 205 -2 252 -17 q 129 39 159 12 q 85 102 99 65 q 71 183 71 139 q 74 216 71 197 q 81 262 76 234 l 163 657 l 323 657 l 240 257 q 235 227 237 241 q 234 201 234 213 q 256 138 234 161 q 329 115 279 115 q 390 124 364 115 q 433 153 415 134 q 461 198 450 172 q 479 258 473 225 l 562 657 l 722 657 l 631 214 q 601 128 621 170 q 545 54 581 86 q 452 2 508 22 q 317 -17 397 -17 m 468 852 q 538 880 508 852 q 586 968 568 909 l 730 968 q 694 876 718 918 q 634 804 670 834 q 553 756 599 773 q 451 739 507 739 q 357 756 397 739 q 296 803 317 773 q 268 866 274 833 q 263 917 262 899 q 268 968 263 941 l 399 968 q 397 933 397 950 q 414 874 397 897 q 468 852 431 852 m 119 657 z "},"ů":{"ha":729,"x_min":71,"x_max":722,"o":"m 317 -17 q 205 -2 252 -17 q 129 39 159 12 q 85 102 99 65 q 71 183 71 139 q 74 216 71 197 q 81 262 76 234 l 163 657 l 323 657 l 240 257 q 235 227 237 241 q 234 201 234 213 q 256 138 234 161 q 329 115 279 115 q 390 124 364 115 q 433 153 415 134 q 461 198 450 172 q 479 258 473 225 l 562 657 l 722 657 l 631 214 q 601 128 621 170 q 545 54 581 86 q 452 2 508 22 q 317 -17 397 -17 m 494 1017 q 606 984 567 1017 q 645 897 645 951 q 633 841 645 869 q 598 790 621 813 q 539 753 574 768 q 458 739 505 739 q 346 772 385 739 q 307 860 307 805 q 319 916 307 888 q 354 966 331 943 q 413 1003 378 989 q 494 1017 448 1017 m 489 941 q 454 935 469 941 q 428 918 439 928 q 412 893 417 907 q 406 864 406 880 q 420 829 406 842 q 463 816 434 816 q 498 822 483 816 q 524 839 513 828 q 541 864 535 850 q 546 892 546 878 q 532 927 546 914 q 489 941 518 941 m 123 657 z "},"ű":{"ha":729,"x_min":71,"x_max":789,"o":"m 317 -17 q 205 -2 252 -17 q 129 39 159 12 q 85 102 99 65 q 71 183 71 139 q 74 216 71 197 q 81 262 76 234 l 163 657 l 323 657 l 240 257 q 235 227 237 241 q 234 201 234 213 q 256 138 234 161 q 329 115 279 115 q 390 124 364 115 q 433 153 415 134 q 461 198 450 172 q 479 258 473 225 l 562 657 l 722 657 l 631 214 q 601 128 621 170 q 545 54 581 86 q 452 2 508 22 q 317 -17 397 -17 m 566 999 l 405 762 l 284 762 l 414 999 l 566 999 m 789 999 l 612 762 l 488 762 l 633 999 l 789 999 m 179 657 z "},"ų":{"ha":729,"x_min":71,"x_max":722,"o":"m 307 -16 q 201 -1 245 -16 q 127 41 156 14 q 85 104 98 67 q 71 183 71 140 q 74 216 71 197 q 81 262 76 234 l 163 657 l 323 657 l 240 257 q 235 228 237 242 q 234 201 234 213 q 256 138 234 161 q 329 115 279 115 q 390 124 364 115 q 433 153 415 134 q 461 198 450 172 q 479 258 473 225 l 562 657 l 722 657 l 631 214 q 607 141 622 172 q 572 85 591 109 q 531 44 553 62 q 489 14 509 26 q 422 -30 456 -7 q 363 -76 389 -52 q 320 -127 336 -100 q 303 -181 303 -153 q 315 -211 303 -201 q 348 -220 326 -220 q 383 -216 363 -220 q 418 -205 403 -212 l 395 -315 q 352 -327 378 -322 q 302 -332 326 -332 q 248 -325 273 -332 q 205 -303 223 -317 q 178 -267 188 -288 q 168 -218 168 -245 q 178 -163 168 -191 q 207 -109 189 -136 q 251 -60 226 -83 q 307 -18 277 -37 l 307 -16 z "},"ẁ":{"ha":1015,"x_min":68,"x_max":1086,"o":"m 562 0 l 542 268 q 532 463 536 366 l 528 463 q 460 273 505 389 l 351 0 l 195 0 l 68 657 l 229 657 l 273 394 q 298 201 289 296 l 302 201 q 369 387 332 293 l 480 657 l 641 657 l 661 411 q 673 199 668 317 l 677 199 q 778 416 731 326 l 906 657 l 1086 657 l 713 0 l 562 0 m 612 999 l 644 762 l 524 762 l 462 999 l 612 999 m 198 657 z "},"ẃ":{"ha":1015,"x_min":68,"x_max":1086,"o":"m 562 0 l 542 268 q 532 463 536 366 l 528 463 q 460 273 505 389 l 351 0 l 195 0 l 68 657 l 229 657 l 273 394 q 298 201 289 296 l 302 201 q 369 387 332 293 l 480 657 l 641 657 l 661 411 q 673 199 668 317 l 677 199 q 778 416 731 326 l 906 657 l 1086 657 l 713 0 l 562 0 m 808 999 l 647 762 l 518 762 l 648 999 l 808 999 m 296 657 z "},"ŵ":{"ha":1015,"x_min":68,"x_max":1086,"o":"m 562 0 l 542 268 q 532 463 536 366 l 528 463 q 460 273 505 389 l 351 0 l 195 0 l 68 657 l 229 657 l 273 394 q 298 201 289 296 l 302 201 q 369 387 332 293 l 480 657 l 641 657 l 661 411 q 673 199 668 317 l 677 199 q 778 416 731 326 l 906 657 l 1086 657 l 713 0 l 562 0 m 553 999 l 692 999 l 785 762 l 665 762 l 609 906 l 606 906 l 491 762 l 361 762 l 553 999 m 242 657 z "},"ẅ":{"ha":1015,"x_min":68,"x_max":1086,"o":"m 562 0 l 542 268 q 532 463 536 366 l 528 463 q 460 273 505 389 l 351 0 l 195 0 l 68 657 l 229 657 l 273 394 q 298 201 289 296 l 302 201 q 369 387 332 293 l 480 657 l 641 657 l 661 411 q 673 199 668 317 l 677 199 q 778 416 731 326 l 906 657 l 1086 657 l 713 0 l 562 0 m 403 958 l 551 958 l 519 808 l 371 808 l 403 958 m 681 958 l 829 958 l 797 808 l 649 808 l 681 958 m 244 657 z "},"ỳ":{"ha":682,"x_min":-109,"x_max":753,"o":"m 66 657 l 229 657 l 290 369 q 322 195 309 274 l 326 195 q 410 359 364 273 l 572 657 l 753 657 l 368 -22 q 290 -147 329 -90 q 205 -245 251 -204 q 103 -309 159 -286 q -23 -332 47 -332 q -109 -323 -75 -332 l -81 -196 q -29 -201 -56 -201 q 41 -188 9 -201 q 101 -148 73 -174 q 155 -82 129 -121 q 211 12 182 -42 l 66 657 m 450 999 l 481 762 l 361 762 l 299 999 l 450 999 m 35 657 z "},"ý":{"ha":682,"x_min":-109,"x_max":753,"o":"m 66 657 l 229 657 l 290 369 q 322 195 309 274 l 326 195 q 410 359 364 273 l 572 657 l 753 657 l 368 -22 q 290 -147 329 -90 q 205 -245 251 -204 q 103 -309 159 -286 q -23 -332 47 -332 q -109 -323 -75 -332 l -81 -196 q -29 -201 -56 -201 q 41 -188 9 -201 q 101 -148 73 -174 q 155 -82 129 -121 q 211 12 182 -42 l 66 657 m 632 999 l 471 762 l 342 762 l 472 999 l 632 999 m 120 657 z "},"ŷ":{"ha":682,"x_min":-109,"x_max":753,"o":"m 66 657 l 229 657 l 290 369 q 322 195 309 274 l 326 195 q 410 359 364 273 l 572 657 l 753 657 l 368 -22 q 290 -147 329 -90 q 205 -245 251 -204 q 103 -309 159 -286 q -23 -332 47 -332 q -109 -323 -75 -332 l -81 -196 q -29 -201 -56 -201 q 41 -188 9 -201 q 101 -148 73 -174 q 155 -82 129 -121 q 211 12 182 -42 l 66 657 m 385 999 l 524 999 l 617 762 l 496 762 l 441 906 l 438 906 l 323 762 l 193 762 l 385 999 m 74 657 z "},"ÿ":{"ha":682,"x_min":-109,"x_max":753,"o":"m 66 657 l 229 657 l 290 369 q 322 195 309 274 l 326 195 q 410 359 364 273 l 572 657 l 753 657 l 368 -22 q 290 -147 329 -90 q 205 -245 251 -204 q 103 -309 159 -286 q -23 -332 47 -332 q -109 -323 -75 -332 l -81 -196 q -29 -201 -56 -201 q 41 -188 9 -201 q 101 -148 73 -174 q 155 -82 129 -121 q 211 12 182 -42 l 66 657 m 239 958 l 387 958 l 355 808 l 208 808 l 239 958 m 517 958 l 665 958 l 633 808 l 486 808 l 517 958 m 81 657 z "},"ź":{"ha":633,"x_min":-3,"x_max":637,"o":"m 399 525 l 105 525 l 133 657 l 637 657 l 616 557 l 239 132 l 560 132 l 533 0 l -3 0 l 16 91 l 399 525 m 614 999 l 452 762 l 323 762 l 454 999 l 614 999 m 102 657 z "},"ž":{"ha":633,"x_min":-3,"x_max":661,"o":"m 399 525 l 105 525 l 133 657 l 637 657 l 616 557 l 239 132 l 560 132 l 533 0 l -3 0 l 16 91 l 399 525 m 469 762 l 330 762 l 237 999 l 357 999 l 412 855 l 415 855 l 530 999 l 661 999 l 469 762 m 68 657 z "},"ż":{"ha":633,"x_min":-3,"x_max":637,"o":"m 399 525 l 105 525 l 133 657 l 637 657 l 616 557 l 239 132 l 560 132 l 533 0 l -3 0 l 16 91 l 399 525 m 319 808 l 355 982 l 523 982 l 488 808 l 319 808 m 67 657 z "},"ŋ":{"ha":748,"x_min":34,"x_max":707,"o":"m 337 -149 q 381 -140 363 -149 q 412 -114 399 -132 q 433 -70 425 -97 q 450 -7 442 -43 l 534 400 q 541 438 538 421 q 543 466 543 454 q 524 519 543 500 q 464 538 505 538 q 371 511 414 538 q 300 438 329 484 q 290 419 295 429 q 280 396 285 409 q 271 367 275 383 q 262 328 267 350 l 194 0 l 34 0 l 170 657 l 307 657 l 307 574 l 309 574 q 348 612 326 594 q 396 644 370 630 q 453 665 422 657 q 518 673 484 673 q 591 662 557 673 q 651 629 625 651 q 692 576 677 608 q 707 505 707 545 q 703 449 707 479 q 692 388 698 418 l 600 -52 q 578 -131 592 -91 q 536 -205 564 -172 q 461 -259 508 -238 q 346 -280 415 -280 q 306 -278 326 -280 q 273 -272 286 -276 l 300 -144 q 337 -149 317 -149 z "},"ð":{"ha":712,"x_min":58,"x_max":730,"o":"m 730 816 l 597 787 q 659 626 635 713 q 684 435 684 538 q 659 254 684 338 q 587 111 634 171 q 471 16 540 50 q 314 -18 402 -18 q 210 -2 257 -18 q 129 44 163 13 q 76 123 95 75 q 58 235 58 170 q 82 392 58 319 q 149 519 106 465 q 250 604 192 573 q 375 635 308 635 q 448 622 415 635 q 505 588 481 610 l 507 589 q 477 674 495 633 q 436 754 459 715 l 269 719 l 242 833 l 366 859 q 312 923 340 893 q 256 982 284 954 l 456 982 q 530 893 494 944 l 705 930 l 730 816 m 410 503 q 328 479 363 503 q 268 416 292 454 q 231 331 243 378 q 219 239 219 284 q 328 114 219 114 q 411 138 374 114 q 472 201 447 163 q 509 287 496 239 q 522 380 522 334 q 493 472 522 441 q 410 503 464 503 z "},"þ":{"ha":711,"x_min":-34,"x_max":684,"o":"m 484 673 q 568 656 531 673 q 631 608 606 640 q 671 533 657 577 q 684 435 684 490 q 674 329 684 383 q 644 225 664 275 q 595 131 624 175 q 527 54 566 87 q 441 2 489 21 q 339 -17 394 -17 q 260 -4 296 -17 q 201 30 225 9 l 198 30 l 126 -315 l -34 -315 l 235 982 l 395 982 l 334 697 q 309 598 326 661 l 312 598 q 342 625 324 612 q 382 650 360 639 q 430 667 404 661 q 484 673 456 673 m 439 542 q 387 532 414 542 q 336 498 360 522 q 292 435 312 474 q 261 339 273 396 l 223 153 q 266 125 241 136 q 323 115 291 115 q 381 129 354 115 q 430 166 408 142 q 469 220 452 189 q 498 286 486 251 q 517 358 511 321 q 523 429 523 395 q 504 512 523 482 q 439 542 484 542 z "},"ⁿ":{"ha":613,"x_min":78,"x_max":627,"o":"m 226 348 l 78 348 l 180 841 l 310 841 l 310 775 l 313 775 q 341 804 325 790 q 378 829 357 819 q 422 847 398 840 q 473 853 446 853 q 539 842 511 853 q 587 811 568 831 q 616 764 606 791 q 627 705 627 737 q 625 675 627 690 q 620 646 623 661 l 558 348 l 410 348 l 467 618 q 474 655 472 643 q 475 674 475 667 q 471 702 475 691 q 459 720 467 713 q 442 729 452 726 q 421 732 432 732 q 354 710 386 732 q 301 653 322 688 q 293 639 297 646 q 286 622 290 632 q 279 598 283 612 q 271 564 275 584 l 226 348 z "},"ﬀ":{"ha":792,"x_min":-207,"x_max":1063,"o":"m 375 657 l 623 657 l 640 739 q 662 821 649 787 q 694 882 675 855 q 740 934 714 912 q 796 970 766 956 q 858 992 825 985 q 924 999 890 999 q 1001 992 964 999 q 1063 977 1039 985 l 1038 852 q 981 864 1006 860 q 937 867 956 867 q 876 855 902 867 q 832 817 850 843 q 813 781 821 802 q 799 733 804 760 l 783 657 l 959 657 l 931 525 l 755 525 l 625 -100 q 594 -201 613 -158 q 543 -274 574 -245 q 468 -318 512 -303 q 361 -332 423 -332 q 303 -328 332 -332 q 255 -316 275 -323 l 282 -188 q 318 -198 299 -195 q 353 -201 337 -201 q 401 -192 381 -201 q 434 -166 420 -184 q 457 -123 448 -149 q 473 -60 466 -96 l 595 525 l 348 525 l 224 -73 q 200 -159 214 -123 q 168 -222 186 -195 q 60 -308 125 -283 q -82 -332 -4 -332 q -152 -326 -119 -332 q -207 -312 -186 -320 l -180 -184 q -133 -197 -157 -193 q -90 -201 -109 -201 q -25 -191 -52 -201 q 20 -159 1 -180 q 51 -106 39 -138 q 72 -31 63 -75 l 188 525 l 70 525 l 98 657 l 215 657 l 237 763 q 331 940 262 882 q 502 999 400 999 q 608 983 556 999 l 583 858 q 518 867 547 867 q 436 836 465 867 q 395 749 407 805 l 375 657 z "},"ﬁ":{"ha":792,"x_min":-207,"x_max":783,"o":"m 227 715 q 276 846 243 792 q 353 934 308 900 q 452 984 397 968 q 569 999 507 999 q 735 975 656 999 l 709 849 q 645 862 678 857 q 583 867 612 867 q 516 860 548 867 q 459 832 485 852 q 414 782 433 813 q 385 702 395 750 l 375 657 l 783 657 l 646 0 l 486 0 l 595 525 l 348 525 l 224 -73 q 200 -159 214 -123 q 168 -222 186 -195 q 60 -308 125 -283 q -82 -332 -4 -332 q -152 -326 -119 -332 q -207 -312 -186 -320 l -180 -184 q -133 -197 -157 -193 q -90 -201 -109 -201 q -25 -191 -52 -201 q 20 -159 1 -180 q 51 -106 39 -138 q 72 -31 63 -75 l 188 525 l 70 525 l 98 657 l 215 657 l 227 715 z "},"ﬃ":{"ha":1200,"x_min":-207,"x_max":1190,"o":"m 783 657 l 1190 657 l 1053 0 l 893 0 l 1003 525 l 755 525 l 625 -100 q 594 -201 613 -158 q 543 -274 574 -245 q 468 -318 512 -303 q 361 -332 423 -332 q 303 -328 332 -332 q 255 -316 275 -323 l 282 -188 q 318 -198 299 -195 q 353 -201 337 -201 q 401 -192 381 -201 q 434 -166 420 -184 q 457 -123 448 -149 q 473 -60 466 -96 l 595 525 l 348 525 l 224 -73 q 200 -159 214 -123 q 168 -222 186 -195 q 60 -308 125 -283 q -82 -332 -4 -332 q -152 -326 -119 -332 q -207 -312 -186 -320 l -180 -184 q -133 -197 -157 -193 q -90 -201 -109 -201 q -25 -191 -52 -201 q 20 -159 1 -180 q 51 -106 39 -138 q 72 -31 63 -75 l 188 525 l 70 525 l 98 657 l 215 657 l 237 763 q 331 940 262 882 q 502 999 400 999 q 608 983 555 999 l 583 858 q 518 867 548 867 q 437 837 467 867 q 395 749 408 807 l 375 657 l 623 657 l 635 715 q 683 846 651 792 q 760 934 715 900 q 860 984 805 968 q 977 999 915 999 q 1060 993 1018 999 q 1143 975 1103 987 l 1117 849 q 1053 862 1086 857 q 991 867 1021 867 q 924 860 956 867 q 867 832 892 852 q 822 782 841 813 q 792 702 802 750 l 783 657 z "},"ﬂ":{"ha":840,"x_min":-207,"x_max":846,"o":"m 846 959 l 688 203 q 683 163 683 176 q 695 136 683 144 q 729 127 707 127 q 752 129 739 127 q 777 133 766 130 l 748 -1 q 661 -10 705 -10 q 553 22 589 -10 q 517 117 517 54 q 526 191 517 149 l 665 859 q 585 867 626 867 q 527 861 557 867 q 469 837 496 855 q 418 787 441 819 q 385 705 396 755 l 375 657 l 529 657 l 501 525 l 348 525 l 224 -73 q 200 -159 214 -123 q 168 -222 186 -195 q 60 -308 125 -283 q -82 -332 -4 -332 q -152 -326 -119 -332 q -207 -312 -186 -320 l -180 -184 q -133 -197 -157 -193 q -90 -201 -109 -201 q -25 -191 -52 -201 q 20 -159 1 -180 q 51 -106 39 -138 q 72 -31 63 -75 l 188 525 l 70 525 l 98 657 l 215 657 l 227 712 q 260 814 239 770 q 311 890 282 859 q 374 943 340 922 q 444 976 408 964 q 518 994 480 989 q 591 999 555 999 q 729 987 659 999 q 846 959 799 976 z "},"ﬄ":{"ha":1248,"x_min":-207,"x_max":1253,"o":"m 993 867 q 935 861 965 867 q 876 837 904 855 q 826 787 848 819 q 793 705 804 755 l 783 657 l 937 657 l 909 525 l 755 525 l 625 -100 q 594 -201 613 -158 q 543 -274 574 -245 q 468 -318 512 -303 q 361 -332 423 -332 q 304 -328 333 -332 q 255 -316 275 -323 l 282 -188 q 318 -198 299 -195 q 353 -201 337 -201 q 401 -192 381 -201 q 434 -166 420 -184 q 457 -123 448 -149 q 473 -60 466 -96 l 595 525 l 348 525 l 224 -73 q 200 -159 214 -123 q 168 -222 186 -195 q 60 -308 125 -283 q -82 -332 -4 -332 q -152 -326 -119 -332 q -207 -312 -186 -320 l -180 -184 q -133 -197 -157 -193 q -90 -201 -109 -201 q -25 -191 -52 -201 q 20 -159 1 -180 q 51 -106 39 -138 q 72 -31 63 -75 l 188 525 l 70 525 l 98 657 l 215 657 l 237 763 q 331 940 262 882 q 502 999 400 999 q 553 995 524 999 q 608 983 581 991 l 583 858 q 548 865 566 863 q 520 867 531 867 q 437 837 467 867 q 395 749 407 806 l 375 657 l 623 657 l 634 712 q 668 814 646 770 q 719 890 690 859 q 781 943 747 922 q 851 976 815 964 q 925 994 888 989 q 998 999 963 999 q 1136 987 1066 999 q 1253 959 1206 976 l 1096 203 q 1090 163 1090 176 q 1102 136 1090 144 q 1137 127 1114 127 q 1160 129 1146 127 q 1185 133 1174 130 l 1156 -1 q 1069 -10 1112 -10 q 960 22 996 -10 q 924 117 924 54 q 933 191 924 149 l 1072 859 q 993 867 1034 867 z "},"&":{"ha":990,"x_min":76,"x_max":917,"o":"m 739 734 q 720 640 739 681 q 670 567 701 599 q 598 509 639 534 q 513 462 557 484 q 583 381 544 427 q 665 286 622 336 q 724 379 699 329 q 762 484 749 429 l 917 484 q 863 322 903 401 q 759 176 822 243 q 807 120 784 146 q 851 70 831 93 q 887 29 871 47 q 914 0 903 12 l 711 0 q 684 32 701 12 q 644 77 666 52 q 502 8 578 33 q 343 -17 425 -17 q 224 2 274 -17 q 141 53 174 22 q 92 126 108 85 q 76 210 76 167 q 93 309 76 266 q 137 387 109 353 q 202 447 165 420 q 279 495 239 473 q 224 582 245 536 q 203 677 203 627 q 225 781 203 735 q 286 859 247 827 q 379 907 326 890 q 496 924 433 924 q 595 911 551 924 q 672 874 640 899 q 722 814 704 850 q 739 734 739 779 m 241 220 q 273 141 241 167 q 359 115 304 115 q 458 132 408 115 q 553 181 507 149 q 506 236 530 208 q 459 290 482 263 q 413 342 435 317 q 372 389 391 368 q 320 356 344 373 q 278 318 296 338 q 251 273 260 297 q 241 220 241 249 m 367 681 q 383 617 367 645 q 422 563 399 589 q 483 594 454 578 q 531 629 511 610 q 564 669 552 647 q 576 718 576 690 q 551 775 576 758 q 486 793 525 793 q 398 763 429 793 q 367 681 367 734 z "},"`":{"ha":543,"x_min":0,"x_max":446,"o":"m 414 999 l 446 762 l 326 762 l 264 999 l 414 999 m 0 657 z "},"̀":{"ha":0,"x_min":-631,"x_max":-186,"o":"m -217 999 l -186 762 l -305 762 l -368 999 l -217 999 m -631 657 z "},"´":{"ha":543,"x_min":0,"x_max":512,"o":"m 512 999 l 351 762 l 222 762 l 352 999 l 512 999 m 0 657 z "},"́":{"ha":543,"x_min":-545,"x_max":-33,"o":"m -33 999 l -194 762 l -323 762 l -193 999 l -33 999 m -545 657 z "},"ˆ":{"ha":543,"x_min":0,"x_max":543,"o":"m 311 999 l 450 999 l 543 762 l 422 762 l 367 906 l 364 906 l 249 762 l 119 762 l 311 999 m 0 657 z "},"̂":{"ha":0,"x_min":-585,"x_max":-41,"o":"m -274 999 l -134 999 l -41 762 l -162 762 l -218 906 l -220 906 l -336 762 l -466 762 l -274 999 m -585 657 z "},"ˇ":{"ha":543,"x_min":0,"x_max":593,"o":"m 401 762 l 261 762 l 168 999 l 288 999 l 344 855 l 347 855 l 462 999 l 593 999 l 401 762 m 0 657 z "},"̌":{"ha":0,"x_min":-592,"x_max":1,"o":"m -191 762 l -331 762 l -424 999 l -304 999 l -248 855 l -245 855 l -130 999 l 1 999 l -191 762 m -592 657 z "},"̕":{"ha":129,"x_min":0,"x_max":269,"o":"m 134 830 q 89 867 134 867 l 113 981 q 126 982 123 982 q 134 982 129 982 q 195 974 170 982 q 237 952 221 966 q 261 919 254 938 q 269 876 269 899 q 249 799 269 837 q 194 723 229 762 l 69 723 q 94 751 82 737 q 114 779 105 766 q 129 806 123 793 q 134 830 134 819 m 0 657 z "},"˜":{"ha":543,"x_min":0,"x_max":570,"o":"m 90 787 q 107 855 94 824 q 139 908 119 886 q 184 942 158 930 q 241 954 210 954 q 273 950 256 954 q 303 940 289 946 q 330 927 317 934 q 355 913 343 920 q 384 897 370 903 q 410 891 398 891 q 441 904 429 891 q 459 948 453 917 l 570 948 q 553 881 566 911 q 521 828 541 850 q 476 794 502 806 q 419 782 450 782 q 387 786 404 782 q 357 795 371 789 q 330 809 342 802 q 305 823 317 816 q 276 838 290 832 q 250 844 262 844 q 219 831 231 844 q 201 787 207 819 l 90 787 m 0 657 z "},"̃":{"ha":0,"x_min":-555,"x_max":14,"o":"m -465 787 q -449 855 -461 824 q -417 908 -436 886 q -372 942 -397 930 q -315 954 -346 954 q -283 950 -299 954 q -252 940 -267 946 q -225 927 -238 934 q -201 913 -212 920 q -171 897 -185 903 q -145 891 -157 891 q -114 904 -126 891 q -96 948 -102 917 l 14 948 q -2 881 10 911 q -34 828 -15 850 q -79 794 -54 806 q -136 782 -105 782 q -168 786 -152 782 q -199 795 -184 789 q -226 809 -213 802 q -250 823 -239 816 q -280 838 -266 832 q -306 844 -294 844 q -337 831 -325 844 q -355 787 -349 819 l -465 787 m -555 657 z "},"¨":{"ha":543,"x_min":0,"x_max":585,"o":"m 159 958 l 307 958 l 275 808 l 127 808 l 159 958 m 437 958 l 585 958 l 553 808 l 405 808 l 437 958 m 0 657 z "},"̈":{"ha":0,"x_min":-583,"x_max":1,"o":"m -425 958 l -277 958 l -309 808 l -456 808 l -425 958 m -146 958 l 1 958 l -31 808 l -178 808 l -146 958 m -583 657 z "},"¯":{"ha":543,"x_min":0,"x_max":557,"o":"m 178 907 l 557 907 l 534 794 l 154 794 l 178 907 m 0 657 z "},"̄":{"ha":0,"x_min":-586,"x_max":-28,"o":"m -408 907 l -28 907 l -52 794 l -432 794 l -408 907 m -586 657 z "},"˘":{"ha":543,"x_min":0,"x_max":611,"o":"m 349 852 q 419 880 389 852 q 467 968 449 909 l 611 968 q 575 876 599 918 q 515 804 551 834 q 433 756 479 773 q 332 739 387 739 q 238 756 277 739 q 176 803 198 773 q 149 866 155 833 q 144 917 143 899 q 149 968 144 941 l 279 968 q 277 933 277 950 q 295 874 277 897 q 349 852 312 852 m 0 657 z "},"̆":{"ha":0,"x_min":-574,"x_max":37,"o":"m -226 852 q -156 880 -186 852 q -108 968 -125 909 l 37 968 q 0 876 24 918 q -59 804 -24 834 q -141 756 -95 773 q -243 739 -187 739 q -337 756 -297 739 q -398 803 -376 773 q -426 866 -420 833 q -431 917 -431 899 q -426 968 -431 941 l -295 968 q -297 933 -297 950 q -280 874 -297 897 q -226 852 -262 852 m -574 657 z "},"˚":{"ha":543,"x_min":0,"x_max":522,"o":"m 372 1017 q 483 984 444 1017 q 522 897 522 951 q 510 841 522 869 q 475 790 498 813 q 417 753 452 768 q 335 739 382 739 q 223 772 262 739 q 184 860 184 805 q 196 916 184 888 q 232 966 208 943 q 290 1003 255 989 q 372 1017 325 1017 m 366 941 q 331 935 347 941 q 305 918 316 928 q 289 893 294 907 q 283 864 283 880 q 297 829 283 842 q 340 816 311 816 q 375 822 360 816 q 401 839 391 828 q 418 864 412 850 q 423 892 423 878 q 409 927 423 914 q 366 941 395 941 m 0 657 z "},"̊":{"ha":0,"x_min":-593,"x_max":-71,"o":"m -222 1017 q -110 984 -149 1017 q -71 897 -71 951 q -83 841 -71 869 q -118 790 -95 813 q -177 753 -142 768 q -258 739 -212 739 q -370 772 -331 739 q -409 860 -409 805 q -397 916 -409 888 q -362 966 -385 943 q -303 1003 -338 989 q -222 1017 -269 1017 m -227 941 q -262 935 -247 941 q -288 918 -277 928 q -304 893 -299 907 q -310 864 -310 880 q -296 829 -310 842 q -253 816 -282 816 q -218 822 -233 816 q -192 839 -203 828 q -176 864 -181 850 q -170 892 -170 878 q -184 927 -170 914 q -227 941 -198 941 m -593 657 z "},"˝":{"ha":543,"x_min":0,"x_max":610,"o":"m 387 999 l 226 762 l 105 762 l 235 999 l 387 999 m 610 999 l 433 762 l 309 762 l 454 999 l 610 999 m 0 657 z "},"̋":{"ha":0,"x_min":-562,"x_max":48,"o":"m -174 999 l -336 762 l -456 762 l -326 999 l -174 999 m 48 999 l -128 762 l -253 762 l -108 999 l 48 999 m -562 657 z "},"˙":{"ha":543,"x_min":0,"x_max":456,"o":"m 252 808 l 288 982 l 456 982 l 420 808 l 252 808 m 0 657 z "},"̇":{"ha":0,"x_min":-596,"x_max":-140,"o":"m -344 808 l -309 982 l -140 982 l -176 808 l -344 808 m -596 657 z "},"¸":{"ha":543,"x_min":6,"x_max":324,"o":"m 138 6 l 239 6 l 206 -80 q 261 -92 239 -83 q 297 -115 283 -101 q 318 -146 311 -129 q 324 -184 324 -164 q 308 -243 324 -216 q 263 -290 292 -271 q 193 -321 234 -310 q 102 -332 152 -332 q 48 -328 75 -332 q 6 -318 20 -324 l 26 -222 q 99 -232 56 -232 q 173 -217 150 -232 q 197 -183 197 -201 q 81 -146 197 -146 l 138 6 z "},"̧":{"ha":0,"x_min":-534,"x_max":-216,"o":"m -401 6 l -301 6 l -334 -80 q -279 -92 -301 -83 q -242 -115 -256 -101 q -222 -146 -229 -129 q -216 -184 -216 -164 q -232 -243 -216 -216 q -277 -290 -248 -271 q -347 -321 -306 -310 q -438 -332 -388 -332 q -492 -328 -465 -332 q -534 -318 -519 -324 l -514 -222 q -441 -232 -484 -232 q -367 -217 -390 -232 q -343 -183 -343 -201 q -458 -146 -343 -146 l -401 6 z "},"˛":{"ha":543,"x_min":13,"x_max":344,"o":"m 344 20 q 272 -25 307 0 q 209 -77 237 -50 q 165 -130 182 -103 q 149 -181 149 -157 q 160 -211 149 -201 q 193 -220 172 -220 q 229 -216 209 -220 q 263 -205 248 -212 l 241 -315 q 197 -327 223 -322 q 147 -332 172 -332 q 93 -325 118 -332 q 51 -303 68 -317 q 23 -267 33 -288 q 13 -218 13 -245 q 27 -153 13 -187 q 64 -86 41 -119 q 121 -26 88 -54 q 191 20 153 1 l 344 20 z "},"̨":{"ha":0,"x_min":-527,"x_max":-196,"o":"m -196 20 q -268 -25 -233 0 q -331 -77 -303 -50 q -375 -130 -358 -103 q -391 -181 -391 -157 q -380 -211 -391 -201 q -347 -220 -368 -220 q -311 -216 -331 -220 q -277 -205 -292 -212 l -299 -315 q -342 -327 -317 -322 q -393 -332 -368 -332 q -447 -325 -422 -332 q -489 -303 -471 -317 q -517 -267 -507 -288 q -527 -218 -527 -245 q -513 -153 -527 -187 q -475 -86 -499 -119 q -419 -26 -452 -54 q -349 20 -387 1 l -196 20 z "},"̦":{"ha":543,"x_min":85,"x_max":284,"o":"m 150 -225 q 104 -189 150 -189 l 128 -74 q 150 -73 140 -73 q 211 -81 186 -73 q 253 -103 237 -89 q 277 -137 269 -117 q 284 -179 284 -156 q 264 -257 284 -220 q 210 -332 244 -294 l 85 -332 q 109 -304 98 -318 q 130 -276 121 -290 q 144 -250 139 -262 q 150 -225 150 -237 z "},"̒":{"ha":0,"x_min":-370,"x_max":0,"o":"m -235 892 q -190 855 -235 855 l -214 741 q -235 740 -226 740 q -297 748 -271 740 q -338 770 -322 755 q -362 803 -355 784 q -370 846 -370 823 q -350 922 -370 884 q -295 999 -330 960 l -170 999 q -195 970 -183 985 q -215 943 -206 956 q -230 916 -224 929 q -235 892 -235 903 m 0 657 z "},",":{"ha":446,"x_min":3,"x_max":362,"o":"m 174 181 l 362 181 l 170 -279 l 3 -279 l 174 181 z "},";":{"ha":436,"x_min":3,"x_max":425,"o":"m 243 610 l 425 610 l 387 429 l 205 429 l 243 610 m 174 181 l 362 181 l 170 -279 l 3 -279 l 174 181 z "},":":{"ha":420,"x_min":100,"x_max":410,"o":"m 138 181 l 320 181 l 283 0 l 100 0 l 138 181 m 227 610 l 410 610 l 372 429 l 189 429 l 227 610 z "},".":{"ha":417,"x_min":100,"x_max":320,"o":"m 138 181 l 320 181 l 283 0 l 100 0 l 138 181 z "},"…":{"ha":1322,"x_min":60,"x_max":1162,"o":"m 98 181 l 280 181 l 243 0 l 60 0 l 98 181 m 538 181 l 721 181 l 684 0 l 501 0 l 538 181 m 979 181 l 1162 181 l 1124 0 l 942 0 l 979 181 z "},"-":{"ha":462,"x_min":68,"x_max":397,"o":"m 98 412 l 397 412 l 367 267 l 68 267 l 98 412 z "},"!":{"ha":406,"x_min":47,"x_max":417,"o":"m 417 907 l 279 326 l 132 326 l 237 907 l 417 907 m 85 181 l 267 181 l 230 0 l 47 0 l 85 181 z "},"¡":{"ha":406,"x_min":-11,"x_max":361,"o":"m -11 -262 l 130 332 l 277 332 l 169 -262 l -11 -262 m 324 476 l 142 476 l 179 657 l 361 657 l 324 476 z "},"?":{"ha":624,"x_min":107,"x_max":658,"o":"m 658 729 q 644 651 658 685 q 609 590 631 617 q 558 541 587 563 q 500 500 530 519 q 447 465 473 482 q 397 429 420 448 q 359 388 375 410 q 337 338 343 366 l 334 326 l 184 326 q 204 408 187 372 q 247 472 221 444 q 303 524 272 501 q 365 568 334 547 q 414 602 391 585 q 456 635 438 618 q 485 673 474 653 q 496 715 496 692 q 487 750 496 736 q 464 774 479 765 q 428 788 449 783 q 382 792 407 792 q 270 777 330 792 q 154 736 210 762 l 182 873 q 288 911 229 898 q 412 924 347 924 q 512 911 467 924 q 590 873 557 899 q 640 812 623 848 q 658 729 658 776 m 144 181 l 327 181 l 290 0 l 107 0 l 144 181 z "},"¿":{"ha":624,"x_min":-5,"x_max":549,"o":"m -5 -85 q 12 1 -5 -37 q 54 67 28 38 q 113 121 80 97 q 178 168 146 145 q 226 200 203 184 q 268 235 249 217 q 300 274 286 254 q 319 319 313 295 l 321 332 l 471 332 q 451 248 469 285 q 408 181 433 212 q 350 127 382 151 q 288 80 319 102 q 238 44 262 62 q 197 8 215 26 q 168 -30 179 -10 q 157 -74 157 -50 q 189 -131 157 -113 q 271 -148 220 -148 q 384 -133 323 -148 q 499 -92 444 -117 l 471 -229 q 365 -267 424 -254 q 241 -280 307 -280 q 141 -267 186 -280 q 63 -229 96 -254 q 13 -168 31 -204 q -5 -85 -5 -132 m 511 476 l 329 476 l 366 657 l 549 657 l 511 476 z "},"‘":{"ha":337,"x_min":156,"x_max":350,"o":"m 156 907 l 296 907 l 350 534 l 182 534 l 156 907 z "},"’":{"ha":337,"x_min":82,"x_max":440,"o":"m 264 907 l 440 907 l 231 534 l 82 534 l 264 907 z "},"“":{"ha":628,"x_min":156,"x_max":641,"o":"m 156 907 l 296 907 l 350 534 l 182 534 l 156 907 m 426 907 l 572 907 l 641 534 l 467 534 l 426 907 z "},"”":{"ha":636,"x_min":82,"x_max":739,"o":"m 264 907 l 440 907 l 231 534 l 82 534 l 264 907 m 557 907 l 739 907 l 514 534 l 360 534 l 557 907 z "},"‚":{"ha":337,"x_min":-100,"x_max":258,"o":"m 82 168 l 258 168 l 49 -205 l -100 -205 l 82 168 z "},"„":{"ha":636,"x_min":-100,"x_max":557,"o":"m 82 168 l 258 168 l 49 -205 l -100 -205 l 82 168 m 376 168 l 557 168 l 332 -205 l 178 -205 l 376 168 z "},"‹":{"ha":407,"x_min":49,"x_max":412,"o":"m 49 321 l 261 583 l 412 583 l 209 321 l 300 60 l 169 60 l 49 321 z "},"›":{"ha":407,"x_min":4,"x_max":367,"o":"m 367 321 l 155 60 l 4 60 l 207 321 l 116 583 l 247 583 l 367 321 z "},"«":{"ha":694,"x_min":49,"x_max":699,"o":"m 49 321 l 272 583 l 422 583 l 209 321 l 311 60 l 180 60 l 49 321 m 336 321 l 549 583 l 699 583 l 496 321 l 587 60 l 456 60 l 336 321 z "},"»":{"ha":694,"x_min":4,"x_max":654,"o":"m 654 321 l 431 60 l 281 60 l 494 321 l 393 583 l 524 583 l 654 321 m 367 321 l 155 60 l 4 60 l 207 321 l 116 583 l 247 583 l 367 321 z "},"/":{"ha":409,"x_min":-78,"x_max":551,"o":"m -78 -169 l 404 907 l 551 907 l 69 -169 l -78 -169 z "},"|":{"ha":329,"x_min":95,"x_max":234,"o":"m 234 -315 l 95 -315 l 95 982 l 234 982 l 234 -315 z "},"–":{"ha":678,"x_min":-13,"x_max":691,"o":"m 13 399 l 691 399 l 665 273 l -13 273 l 13 399 z "},"—":{"ha":1153,"x_min":-13,"x_max":1166,"o":"m 13 399 l 1166 399 l 1139 273 l -13 273 l 13 399 z "},"―":{"ha":1153,"x_min":-13,"x_max":1166,"o":"m 13 399 l 1166 399 l 1139 273 l -13 273 l 13 399 z "},"•":{"ha":616,"x_min":123,"x_max":549,"o":"m 123 452 q 139 537 123 498 q 184 604 155 576 q 251 649 212 633 q 336 665 290 665 q 420 649 381 665 q 488 604 459 633 q 532 537 516 576 q 549 452 549 498 q 532 368 549 407 q 488 300 516 329 q 420 256 459 272 q 336 239 381 239 q 251 256 290 239 q 184 300 212 272 q 139 368 155 329 q 123 452 123 407 z "},"·":{"ha":406,"x_min":145,"x_max":365,"o":"m 182 424 l 365 424 l 328 243 l 145 243 l 182 424 z "},"(":{"ha":425,"x_min":78,"x_max":513,"o":"m 235 -228 q 181 -168 209 -205 q 131 -77 153 -130 q 93 42 108 -25 q 78 191 78 109 q 107 425 78 314 q 186 629 136 535 q 300 800 235 724 q 437 932 366 877 l 513 848 q 393 718 447 789 q 300 561 338 646 q 240 379 261 476 q 218 173 218 282 q 243 -7 218 73 q 315 -144 268 -86 l 235 -228 z "},")":{"ha":425,"x_min":-60,"x_max":374,"o":"m 218 932 q 271 871 243 909 q 322 781 299 833 q 360 662 345 729 q 374 513 374 595 q 345 279 374 390 q 267 75 316 169 q 152 -96 217 -20 q 15 -228 87 -173 l -60 -144 q 60 -14 5 -85 q 153 143 114 58 q 213 325 191 228 q 234 531 234 422 q 209 711 234 631 q 138 848 184 790 l 218 932 z "},"[":{"ha":438,"x_min":-21,"x_max":509,"o":"m 211 907 l 509 907 l 484 790 l 325 790 l 142 -86 l 302 -86 l 277 -203 l -21 -203 l 211 907 z "},"]":{"ha":438,"x_min":-72,"x_max":458,"o":"m 227 -203 l -72 -203 l -47 -86 l 113 -86 l 295 790 l 136 790 l 161 907 l 458 907 l 227 -203 z "},"{":{"ha":424,"x_min":21,"x_max":514,"o":"m 215 350 q 236 340 223 348 q 260 319 248 333 q 280 287 272 306 q 289 241 289 267 q 282 193 289 216 q 266 149 276 170 q 243 108 256 127 q 218 71 231 89 q 183 14 198 41 q 168 -39 168 -12 q 199 -89 168 -75 q 289 -103 230 -103 l 308 -103 l 283 -220 l 244 -220 q 77 -180 134 -220 q 21 -68 21 -140 q 28 -20 21 -43 q 45 25 35 3 q 70 67 56 47 q 97 108 83 88 q 138 174 120 142 q 156 241 156 206 q 132 285 156 273 q 53 297 108 297 l 75 407 q 181 432 149 404 q 213 519 213 459 q 208 559 213 541 q 197 598 203 578 q 183 647 190 622 q 176 703 176 672 q 198 794 176 753 q 258 864 219 835 q 352 909 298 893 q 473 924 407 924 l 514 924 l 490 807 l 471 807 q 361 781 399 807 q 323 696 323 755 q 327 663 323 680 q 336 627 330 646 q 345 587 341 608 q 349 541 349 566 q 339 477 349 507 q 312 422 330 447 q 270 380 294 397 q 216 353 245 362 l 215 350 z "},"}":{"ha":424,"x_min":-69,"x_max":424,"o":"m 230 354 q 209 363 222 356 q 185 385 197 371 q 164 417 173 398 q 156 463 156 437 q 162 511 156 488 q 179 555 169 534 q 202 596 189 576 q 227 633 214 615 q 262 690 247 663 q 277 743 277 716 q 246 793 277 779 q 156 807 215 807 l 137 807 l 161 924 l 201 924 q 368 884 311 924 q 424 772 424 844 q 417 724 424 747 q 399 679 410 701 q 375 636 389 657 q 348 596 361 616 q 307 530 325 562 q 289 463 289 498 q 313 419 289 431 q 392 407 337 407 l 370 297 q 264 272 296 300 q 232 185 232 245 q 237 144 232 163 q 248 106 241 125 q 262 57 255 82 q 269 1 269 32 q 247 -90 269 -49 q 186 -160 226 -131 q 93 -205 147 -189 q -28 -220 38 -220 l -69 -220 l -45 -103 l -26 -103 q 84 -77 46 -103 q 122 7 122 -52 q 118 41 122 24 q 109 77 115 58 q 100 117 104 96 q 96 163 96 138 q 105 227 96 197 q 133 282 115 257 q 175 324 151 307 q 229 351 199 342 l 230 354 z "},"*":{"ha":733,"x_min":140,"x_max":728,"o":"m 472 646 l 589 694 l 710 713 l 728 586 l 608 568 l 480 581 l 479 578 l 561 480 l 618 362 l 503 305 l 446 425 l 421 549 l 416 550 l 350 441 l 256 349 l 167 442 l 261 533 l 372 597 l 372 600 l 248 631 l 140 690 l 201 803 l 308 743 l 401 658 l 405 661 l 395 787 l 418 914 l 544 892 l 522 765 l 470 649 l 472 646 z "},"†":{"ha":659,"x_min":117,"x_max":665,"o":"m 488 779 l 431 655 l 433 652 l 552 683 l 665 683 l 640 563 l 527 563 l 420 593 l 417 591 l 422 467 l 313 87 l 245 87 l 294 467 l 351 591 l 349 593 l 231 563 l 117 563 l 142 683 l 256 683 l 361 652 l 365 655 l 359 779 l 387 907 l 515 907 l 488 779 z "},"‡":{"ha":659,"x_min":47,"x_max":665,"o":"m 417 440 l 360 317 l 362 314 l 481 345 l 595 345 l 570 224 l 456 224 l 350 255 l 347 252 l 352 129 l 326 0 l 197 0 l 224 129 l 281 252 l 279 255 l 160 224 l 47 224 l 72 345 l 185 345 l 291 314 l 294 317 l 289 440 l 295 467 l 352 591 l 350 593 l 231 563 l 117 563 l 142 683 l 256 683 l 362 652 l 366 655 l 360 779 l 387 907 l 515 907 l 488 779 l 431 655 l 433 652 l 552 683 l 665 683 l 640 563 l 527 563 l 421 593 l 418 591 l 423 467 l 417 440 z "},"§":{"ha":624,"x_min":3,"x_max":634,"o":"m 211 547 q 220 459 211 502 q 243 377 229 417 q 276 299 258 337 q 311 225 294 262 q 339 166 326 195 q 362 108 352 137 q 378 49 372 79 q 385 -10 385 20 q 382 -50 385 -30 q 372 -90 379 -70 l 382 -90 q 402 -49 393 -72 q 416 -1 410 -26 q 424 48 421 23 q 427 97 427 74 q 419 177 427 138 q 399 252 412 216 q 372 323 387 288 q 340 391 356 358 q 308 458 323 425 q 280 523 292 490 q 260 588 268 555 q 253 654 253 621 q 256 694 253 674 q 265 734 258 714 l 256 734 q 236 693 244 716 q 222 646 227 670 q 214 596 216 621 q 211 547 211 571 m 189 -280 q 87 -270 135 -280 q 3 -242 40 -259 l 31 -111 q 108 -136 69 -127 q 183 -144 147 -144 q 265 -115 238 -144 q 292 -39 292 -86 q 272 44 292 1 q 227 136 253 87 q 186 214 207 173 q 148 301 165 254 q 119 399 130 347 q 109 510 109 451 q 132 670 109 595 q 198 802 155 746 q 305 891 242 859 q 449 924 368 924 q 550 914 503 924 q 634 886 597 903 l 607 755 q 529 780 568 771 q 454 789 490 789 q 373 760 400 789 q 346 684 346 731 q 352 641 346 663 q 368 595 358 618 q 392 546 378 571 q 419 494 405 521 q 458 419 438 458 q 493 335 477 379 q 519 240 509 290 q 529 134 529 191 q 506 -26 529 50 q 439 -158 483 -102 q 332 -247 395 -214 q 189 -280 269 -280 z "},"¶":{"ha":804,"x_min":37,"x_max":840,"o":"m 61 -133 q 111 -151 85 -144 q 159 -158 137 -158 q 245 -118 212 -158 q 296 12 277 -79 l 336 202 q 241 243 281 216 q 175 307 201 271 q 137 387 149 342 q 125 479 125 431 q 160 647 125 569 q 267 783 195 726 q 446 874 338 841 q 706 907 555 907 l 840 907 l 651 5 q 595 -137 633 -82 q 506 -224 557 -193 q 391 -268 454 -256 q 259 -280 328 -280 q 180 -276 216 -280 q 115 -266 144 -272 q 67 -254 87 -260 q 37 -243 47 -248 l 61 -133 m 688 781 q 583 772 627 781 l 427 28 q 407 -48 418 -16 q 382 -104 395 -81 q 355 -144 370 -128 q 324 -170 340 -160 l 324 -173 q 406 -153 371 -168 q 465 -112 440 -137 q 504 -54 489 -87 q 528 22 519 -20 l 688 781 z "},"Α":{"ha":899,"x_min":-41,"x_max":804,"o":"m 591 231 l 269 231 l 144 0 l -41 0 l 465 907 l 620 907 l 804 0 l 635 0 l 591 231 m 345 370 l 566 370 l 547 468 q 511 686 525 585 l 507 686 q 403 476 459 578 l 345 370 z "},"Β":{"ha":845,"x_min":41,"x_max":804,"o":"m 437 534 q 505 537 477 534 q 551 549 532 541 q 616 598 593 566 q 638 675 638 630 q 625 722 638 701 q 578 756 611 744 q 538 766 562 762 q 481 769 513 769 l 366 769 l 317 534 l 437 534 m 288 395 l 235 139 l 321 139 q 494 162 435 139 q 578 223 553 184 q 604 304 604 261 q 589 354 604 333 q 541 385 574 374 q 504 393 525 391 q 450 395 482 395 l 288 395 m 804 688 q 763 553 804 607 q 644 467 721 499 l 644 464 q 698 440 674 456 q 738 402 722 424 q 762 355 754 381 q 770 300 770 328 q 715 139 770 209 q 550 32 660 68 q 439 8 501 16 q 298 0 377 0 l 41 0 l 229 907 l 481 907 q 578 901 536 907 q 654 884 621 895 q 766 806 727 858 q 804 688 804 755 z "},"Γ":{"ha":770,"x_min":60,"x_max":865,"o":"m 60 0 l 248 907 l 865 907 l 837 768 l 385 768 l 225 0 l 60 0 z "},"Δ":{"ha":922,"x_min":-3,"x_max":814,"o":"m 472 907 l 635 907 l 814 108 l 792 0 l -3 0 l 19 108 l 472 907 m 572 429 q 524 692 540 585 l 520 692 q 397 450 486 610 l 225 139 l 632 139 l 572 429 z "},"Ε":{"ha":757,"x_min":41,"x_max":798,"o":"m 235 139 l 663 139 l 634 0 l 41 0 l 229 907 l 798 907 l 768 768 l 366 768 l 317 534 l 663 534 l 634 395 l 288 395 l 235 139 z "},"Ζ":{"ha":833,"x_min":0,"x_max":867,"o":"m 21 92 l 614 768 l 163 768 l 191 907 l 867 907 l 848 815 l 255 139 l 728 139 l 699 0 l 0 0 l 21 92 z "},"Η":{"ha":926,"x_min":41,"x_max":947,"o":"m 317 534 l 704 534 l 781 907 l 947 907 l 759 0 l 593 0 l 675 395 l 288 395 l 206 0 l 41 0 l 229 907 l 394 907 l 317 534 z "},"Θ":{"ha":979,"x_min":85,"x_max":952,"o":"m 361 534 l 709 534 l 680 395 l 332 395 l 361 534 m 583 784 q 485 765 530 784 q 402 713 439 746 q 337 636 366 680 q 290 542 309 592 q 261 438 271 492 q 251 332 251 384 q 304 176 251 229 q 454 123 357 123 q 552 142 507 123 q 634 194 597 161 q 700 271 671 227 q 747 366 728 315 q 776 470 766 416 q 786 575 786 524 q 733 731 786 678 q 583 784 680 784 m 601 924 q 745 902 680 924 q 856 837 810 880 q 927 728 902 793 q 952 578 952 663 q 941 461 952 526 q 905 331 930 397 q 840 202 880 264 q 742 91 800 139 q 609 13 685 42 q 436 -17 533 -17 q 292 5 357 -17 q 181 71 227 27 q 110 179 135 115 q 85 329 85 244 q 96 446 85 382 q 132 577 107 511 q 197 706 157 643 q 295 817 237 768 q 428 895 352 865 q 601 924 504 924 z "},"Ι":{"ha":374,"x_min":41,"x_max":394,"o":"m 41 0 l 229 907 l 394 907 l 206 0 l 41 0 z "},"Κ":{"ha":826,"x_min":41,"x_max":894,"o":"m 41 0 l 229 907 l 394 907 l 311 504 l 313 504 l 689 907 l 894 907 l 460 451 l 749 0 l 558 0 l 296 419 l 293 419 l 206 0 l 41 0 z "},"Λ":{"ha":879,"x_min":-41,"x_max":784,"o":"m 144 0 l -41 0 l 456 907 l 612 907 l 784 0 l 614 0 l 536 453 q 502 680 512 589 l 498 680 q 385 454 462 597 l 144 0 z "},"Μ":{"ha":1107,"x_min":41,"x_max":1128,"o":"m 539 245 q 747 632 587 349 l 903 907 l 1128 907 l 940 0 l 774 0 l 871 433 q 933 690 896 541 l 928 690 q 667 206 861 547 l 548 0 l 437 0 l 365 490 q 338 690 350 589 l 333 690 q 298 452 324 590 l 206 0 l 41 0 l 229 907 l 442 907 l 483 654 q 535 245 508 495 l 539 245 z "},"Ν":{"ha":962,"x_min":41,"x_max":982,"o":"m 633 0 l 447 402 q 338 663 378 549 l 334 663 q 290 405 321 551 l 206 0 l 41 0 l 229 907 l 389 907 l 576 505 q 685 244 644 359 l 689 244 q 732 503 698 333 l 817 907 l 982 907 l 794 0 l 633 0 z "},"Ξ":{"ha":857,"x_min":7,"x_max":877,"o":"m 197 534 l 749 534 l 721 395 l 168 395 l 197 534 m 227 907 l 877 907 l 848 768 l 197 768 l 227 907 m 36 139 l 743 139 l 715 0 l 7 0 l 36 139 z "},"Ο":{"ha":979,"x_min":85,"x_max":952,"o":"m 589 784 q 488 765 534 784 q 405 713 442 746 q 338 636 367 680 q 290 542 309 592 q 261 438 271 492 q 251 332 251 384 q 264 242 251 281 q 303 176 278 203 q 366 137 329 150 q 448 123 402 123 q 549 142 503 123 q 632 194 595 161 q 699 271 670 227 q 747 366 728 315 q 776 470 766 416 q 786 575 786 524 q 733 731 786 678 q 589 784 681 784 m 601 924 q 745 902 680 924 q 856 837 810 880 q 927 728 902 793 q 952 578 952 663 q 941 461 952 526 q 905 331 930 397 q 840 202 880 264 q 742 91 800 139 q 609 13 685 42 q 436 -17 533 -17 q 292 5 357 -17 q 181 71 227 27 q 110 179 135 115 q 85 329 85 244 q 96 446 85 382 q 132 577 107 511 q 197 706 157 643 q 295 817 237 768 q 428 895 352 865 q 601 924 504 924 z "},"Π":{"ha":918,"x_min":41,"x_max":938,"o":"m 938 907 l 750 0 l 585 0 l 744 768 l 366 768 l 206 0 l 41 0 l 229 907 l 938 907 z "},"Ρ":{"ha":814,"x_min":41,"x_max":808,"o":"m 206 0 l 41 0 l 229 907 l 456 907 q 653 884 584 907 q 771 802 734 857 q 808 674 808 747 q 780 544 808 603 q 697 441 751 484 q 564 375 644 399 q 382 351 485 351 q 281 358 330 351 l 206 0 m 309 496 q 389 490 344 490 q 500 503 453 490 q 579 539 548 516 q 626 595 610 562 q 642 667 642 628 q 625 721 642 699 q 579 754 608 743 q 534 765 562 762 q 467 768 507 768 l 366 768 l 309 496 z "},"Σ":{"ha":859,"x_min":7,"x_max":899,"o":"m 370 227 q 314 178 340 200 q 268 140 288 155 l 268 137 q 391 139 345 139 l 761 139 l 732 0 l 7 0 l 29 108 l 457 496 l 192 800 l 214 907 l 899 907 l 871 768 l 551 768 q 412 770 454 768 l 412 768 q 444 732 425 753 q 485 685 462 711 l 657 487 l 370 227 z "},"Τ":{"ha":787,"x_min":119,"x_max":882,"o":"m 410 0 l 244 0 l 404 768 l 119 768 l 146 907 l 882 907 l 854 768 l 569 768 l 410 0 z "},"Υ":{"ha":854,"x_min":136,"x_max":949,"o":"m 315 907 q 370 798 345 855 q 414 685 395 741 q 446 575 433 628 q 463 477 459 522 l 467 477 q 510 571 483 519 q 574 678 537 622 q 656 792 611 734 q 755 907 702 850 l 949 907 q 774 707 850 799 q 643 528 699 614 q 550 355 587 441 q 493 172 513 269 l 458 0 l 292 0 l 317 121 q 335 220 327 169 q 344 320 344 271 q 333 433 344 370 q 298 570 322 496 q 234 729 273 644 q 136 907 194 814 l 315 907 z "},"Φ":{"ha":1035,"x_min":85,"x_max":1008,"o":"m 248 395 q 292 262 248 312 q 409 198 336 213 l 519 729 q 397 685 448 718 q 313 606 346 652 q 264 505 280 560 q 248 395 248 450 m 733 966 l 711 862 q 836 824 781 850 q 929 758 891 798 q 987 661 967 717 q 1008 533 1008 604 q 978 358 1008 441 q 890 212 949 276 q 746 107 832 148 q 545 58 659 66 l 524 -43 l 359 -43 l 381 62 q 257 100 312 74 q 163 167 201 126 q 105 264 125 208 q 85 391 85 320 q 114 566 85 484 q 202 712 144 648 q 347 817 260 777 q 547 867 433 858 l 568 966 l 733 966 m 844 530 q 801 662 844 612 q 684 726 757 711 l 574 195 q 695 239 644 206 q 780 318 747 272 q 829 419 813 364 q 844 530 844 475 z "},"Χ":{"ha":880,"x_min":-41,"x_max":989,"o":"m 500 587 l 503 587 l 786 907 l 989 907 l 577 447 l 790 0 l 612 0 l 458 336 l 455 336 l 161 0 l -41 0 l 380 475 l 175 907 l 352 907 l 500 587 z "},"Ψ":{"ha":1055,"x_min":153,"x_max":1082,"o":"m 370 0 l 424 261 q 218 346 283 273 q 153 547 153 418 q 169 705 153 613 q 210 907 186 797 l 372 907 q 330 704 347 789 q 314 557 314 618 q 351 445 314 479 q 454 408 387 411 l 557 907 l 723 907 l 618 404 q 723 431 678 408 q 804 511 768 454 q 866 664 839 568 q 918 907 894 760 l 1082 907 q 1043 693 1065 787 q 991 527 1021 599 q 924 405 962 456 q 838 322 886 355 q 727 275 789 290 q 589 257 665 259 l 535 0 l 370 0 z "},"Ω":{"ha":1029,"x_min":34,"x_max":989,"o":"m 282 401 q 291 314 282 355 q 316 237 300 273 q 354 167 332 200 q 402 102 376 134 l 382 0 l 34 0 l 62 139 l 158 139 q 239 136 184 139 l 239 139 q 193 197 215 165 q 155 266 172 229 q 129 347 138 303 q 119 439 119 390 q 153 627 119 539 q 250 782 186 715 q 404 886 313 848 q 606 924 494 924 q 777 899 705 924 q 896 828 849 873 q 966 721 943 783 q 989 587 989 659 q 967 443 989 510 q 911 320 946 376 q 829 219 876 264 q 734 139 783 174 l 734 136 q 811 139 779 139 l 903 139 l 875 0 l 517 0 l 538 102 q 636 187 586 138 q 728 297 687 237 q 796 428 770 358 q 823 576 823 498 q 805 672 823 632 q 758 736 788 711 q 686 772 727 761 q 598 784 645 784 q 466 756 524 784 q 366 677 407 728 q 304 556 326 626 q 282 401 282 486 z "},"Ά":{"ha":899,"x_min":-41,"x_max":804,"o":"m 288 907 l 162 650 l 25 650 l 138 907 l 288 907 m 591 231 l 269 231 l 144 0 l -41 0 l 465 907 l 620 907 l 804 0 l 635 0 l 591 231 m 345 370 l 566 370 l 547 468 q 511 686 525 585 l 507 686 q 403 476 459 578 l 345 370 z "},"Έ":{"ha":869,"x_min":-17,"x_max":910,"o":"m 245 907 l 120 650 l -17 650 l 96 907 l 245 907 m 347 139 l 775 139 l 747 0 l 153 0 l 341 907 l 910 907 l 881 768 l 478 768 l 429 534 l 775 534 l 747 395 l 401 395 l 347 139 z "},"Ή":{"ha":1040,"x_min":-17,"x_max":1059,"o":"m 245 907 l 120 650 l -17 650 l 96 907 l 245 907 m 429 534 l 817 534 l 894 907 l 1059 907 l 871 0 l 706 0 l 788 395 l 401 395 l 319 0 l 153 0 l 341 907 l 507 907 l 429 534 z "},"Ί":{"ha":486,"x_min":-17,"x_max":507,"o":"m 245 907 l 120 650 l -17 650 l 96 907 l 245 907 m 153 0 l 341 907 l 507 907 l 319 0 l 153 0 z "},"Ϊ":{"ha":374,"x_min":-15,"x_max":572,"o":"m 41 0 l 229 907 l 394 907 l 206 0 l 41 0 m 141 1135 l 293 1135 l 261 982 l 109 982 l 141 1135 m 420 1135 l 572 1135 l 541 982 l 389 982 l 420 1135 m -15 907 z "},"Ό":{"ha":1068,"x_min":-17,"x_max":1041,"o":"m 245 907 l 120 650 l -17 650 l 96 907 l 245 907 m 678 784 q 577 765 623 784 q 493 713 531 746 q 427 636 456 680 q 379 542 398 592 q 350 438 359 492 q 340 332 340 384 q 353 242 340 281 q 392 176 367 203 q 454 137 418 150 q 536 123 491 123 q 637 142 591 123 q 721 194 684 161 q 788 271 759 227 q 836 366 817 315 q 865 470 855 416 q 875 575 875 524 q 822 731 875 678 q 678 784 770 784 m 690 924 q 834 902 769 924 q 945 837 899 880 q 1016 728 991 793 q 1041 578 1041 663 q 1030 461 1041 526 q 994 331 1019 397 q 928 202 968 264 q 831 91 888 139 q 698 13 774 42 q 525 -17 622 -17 q 381 5 446 -17 q 270 71 316 27 q 199 179 224 115 q 174 329 174 244 q 185 446 174 382 q 221 577 196 511 q 286 706 246 643 q 384 817 326 768 q 517 895 441 865 q 690 924 593 924 z "},"Ύ":{"ha":1027,"x_min":-17,"x_max":1122,"o":"m 245 907 l 120 650 l -17 650 l 96 907 l 245 907 m 488 907 q 543 798 517 855 q 587 685 568 741 q 619 575 606 628 q 636 477 632 522 l 640 477 q 683 571 656 519 q 747 678 710 622 q 829 792 784 734 q 928 907 875 850 l 1122 907 q 947 707 1023 799 q 816 528 871 614 q 723 355 760 441 q 666 172 686 269 l 631 0 l 465 0 l 490 121 q 508 220 500 169 q 517 320 517 271 q 506 433 517 370 q 471 570 495 496 q 407 729 446 644 q 309 907 367 814 l 488 907 z "},"Ϋ":{"ha":854,"x_min":136,"x_max":949,"o":"m 315 907 q 370 798 345 855 q 414 685 395 741 q 446 575 433 628 q 463 477 459 522 l 467 477 q 510 571 483 519 q 574 678 537 622 q 656 792 611 734 q 755 907 702 850 l 949 907 q 774 707 850 799 q 643 528 699 614 q 550 355 587 441 q 493 172 513 269 l 458 0 l 292 0 l 317 121 q 335 220 327 169 q 344 320 344 271 q 333 433 344 370 q 298 570 322 496 q 234 729 273 644 q 136 907 194 814 l 315 907 m 360 1135 l 512 1135 l 480 982 l 328 982 l 360 1135 m 640 1135 l 791 1135 l 760 982 l 608 982 l 640 1135 m 204 907 z "},"Ώ":{"ha":1112,"x_min":-17,"x_max":1071,"o":"m 245 907 l 120 650 l -17 650 l 96 907 l 245 907 m 364 401 q 373 314 364 355 q 398 237 382 273 q 436 167 414 200 q 484 102 458 134 l 464 0 l 116 0 l 144 139 l 240 139 q 321 136 267 139 l 321 139 q 275 197 297 165 q 237 266 254 229 q 211 347 220 303 q 201 439 201 390 q 235 627 201 539 q 332 782 269 715 q 486 886 395 848 q 688 924 576 924 q 859 899 787 924 q 978 828 931 873 q 1048 721 1025 783 q 1071 587 1071 659 q 1049 443 1071 510 q 993 320 1028 376 q 911 219 958 264 q 816 139 865 174 l 816 136 q 893 139 861 139 l 985 139 l 957 0 l 599 0 l 620 102 q 719 187 668 138 q 810 297 769 237 q 878 428 852 358 q 905 576 905 498 q 887 672 905 632 q 840 736 870 711 q 768 772 809 761 q 680 784 727 784 q 548 756 606 784 q 448 677 489 728 q 386 556 408 626 q 364 401 364 486 z "},"α":{"ha":812,"x_min":61,"x_max":812,"o":"m 61 245 q 71 352 61 300 q 99 453 81 405 q 144 542 117 501 q 205 611 171 582 q 279 657 239 640 q 366 673 319 673 q 444 660 410 673 q 505 623 479 647 q 548 563 530 598 q 575 485 565 528 l 578 485 q 656 657 613 562 l 812 657 q 615 302 713 464 q 622 220 617 253 q 637 166 627 186 q 662 137 646 146 q 699 127 677 127 q 745 134 719 127 l 718 -1 q 683 -7 703 -5 q 648 -9 663 -9 q 589 2 612 -9 q 550 34 565 13 q 527 87 535 56 q 514 159 519 119 l 511 159 q 462 88 488 120 q 406 32 436 56 q 341 -4 376 9 q 263 -17 306 -17 q 180 0 217 -17 q 116 51 142 18 q 75 133 90 84 q 61 245 61 182 m 222 243 q 241 149 222 179 q 292 118 260 118 q 351 136 323 118 q 404 183 378 153 q 452 252 429 213 q 494 334 474 291 q 478 417 488 379 q 454 481 469 454 q 420 524 440 509 q 374 538 401 538 q 314 513 342 538 q 266 446 286 488 q 234 351 245 404 q 222 243 222 298 z "},"β":{"ha":731,"x_min":68,"x_max":721,"o":"m 696 347 q 668 201 696 268 q 594 85 641 134 q 483 10 547 37 q 345 -17 418 -17 q 222 4 275 -17 q 136 64 170 24 q 85 163 102 104 q 68 298 68 222 q 82 455 68 375 q 125 615 97 535 q 194 764 153 694 q 286 886 234 833 q 400 968 337 938 q 532 999 463 999 q 606 988 571 999 q 667 955 642 977 q 707 900 692 932 q 721 823 721 867 q 713 761 721 793 q 688 692 705 728 q 645 620 671 656 q 583 546 619 583 l 583 543 q 629 511 608 530 q 665 466 650 491 q 688 411 680 441 q 696 347 696 380 m 345 115 q 425 133 390 115 q 485 181 460 151 q 522 252 509 212 q 535 335 535 292 q 530 375 535 357 q 515 408 524 393 q 495 433 507 422 q 473 452 484 444 q 361 382 422 415 q 226 321 300 349 q 224 276 224 296 q 233 202 224 233 q 257 152 241 171 q 296 123 273 132 q 345 115 318 115 m 567 817 q 553 854 567 840 q 512 867 540 867 q 432 835 473 867 q 352 747 390 802 q 284 621 315 692 q 239 470 254 549 l 241 470 q 374 546 314 502 q 477 639 434 591 q 543 734 519 687 q 567 817 567 781 z "},"γ":{"ha":669,"x_min":61,"x_max":723,"o":"m 146 -94 q 156 -13 153 -55 q 159 76 159 30 q 152 228 159 149 q 132 382 144 306 q 101 528 119 458 q 61 657 83 599 l 229 657 q 253 565 241 619 q 275 449 265 511 q 290 319 284 387 q 296 188 296 252 q 295 150 296 170 l 298 150 q 354 270 323 210 q 417 394 385 331 q 482 523 450 457 q 544 657 515 588 l 723 657 q 626 469 671 554 q 539 312 580 385 q 462 177 498 239 q 396 59 427 115 q 341 -48 366 3 q 298 -151 317 -100 q 260 -315 283 -241 l 62 -315 q 105 -202 84 -256 q 146 -94 126 -149 z "},"δ":{"ha":739,"x_min":58,"x_max":776,"o":"m 219 253 q 227 196 219 222 q 251 153 235 171 q 291 124 267 134 q 348 115 315 115 q 420 129 387 115 q 479 173 454 144 q 518 245 504 202 q 533 345 533 288 q 528 404 533 377 q 513 453 523 430 q 491 496 504 476 q 462 534 477 516 q 366 491 410 517 q 289 430 321 465 q 238 351 256 395 q 219 253 219 307 m 425 827 q 436 793 425 812 q 467 752 448 774 q 510 705 486 730 q 559 650 534 680 q 609 588 585 621 q 652 516 633 554 q 683 437 671 479 q 694 348 694 395 q 671 204 694 271 q 601 88 647 138 q 488 11 555 39 q 338 -17 421 -17 q 221 1 273 -17 q 133 53 169 20 q 77 134 96 87 q 58 240 58 182 q 82 376 58 314 q 148 487 106 438 q 246 572 190 536 q 366 629 302 608 l 366 632 q 327 676 345 654 q 295 722 309 699 q 274 772 281 746 q 267 827 267 798 q 282 895 267 863 q 327 949 298 926 q 395 986 356 972 q 481 999 435 999 q 562 991 522 999 q 641 972 603 984 q 714 947 680 961 q 776 921 749 934 l 748 787 q 682 818 717 803 q 613 844 647 833 q 547 863 579 856 q 490 870 515 870 q 441 859 458 870 q 425 827 425 847 z "},"ε":{"ha":645,"x_min":37,"x_max":645,"o":"m 501 269 q 370 277 411 277 q 299 272 331 277 q 245 255 268 267 q 211 227 223 244 q 198 184 198 209 q 208 151 198 164 q 235 130 218 138 q 275 118 252 121 q 324 115 298 115 q 453 131 384 115 q 599 180 523 147 l 570 41 q 513 17 545 28 q 447 -1 481 7 q 377 -13 412 -9 q 307 -17 341 -17 q 175 0 227 -17 q 92 44 123 18 q 50 102 62 71 q 37 164 37 134 q 47 224 37 195 q 77 278 56 254 q 129 319 97 302 q 203 344 160 336 l 203 347 q 134 393 155 362 q 113 462 113 423 q 132 545 113 506 q 189 612 151 583 q 282 657 227 640 q 410 673 337 673 q 533 664 472 673 q 645 639 594 654 l 619 515 q 516 535 567 528 q 423 542 465 542 q 362 537 389 542 q 315 522 334 532 q 284 497 295 512 q 273 461 273 481 q 297 415 273 433 q 378 397 321 397 q 445 399 407 397 q 529 406 484 401 l 501 269 z "},"ζ":{"ha":613,"x_min":61,"x_max":742,"o":"m 222 309 q 236 249 222 273 q 272 207 250 224 q 323 177 294 189 q 381 153 351 164 q 444 126 413 140 q 498 93 474 113 q 536 44 522 73 q 551 -28 551 15 q 444 -272 551 -129 l 271 -272 q 382 -59 382 -127 q 368 -21 382 -37 q 332 5 355 -6 q 281 27 309 17 q 222 51 252 38 q 163 82 192 64 q 112 128 134 100 q 75 194 89 155 q 61 287 61 233 q 92 449 61 370 q 180 600 123 528 q 318 738 237 672 q 497 863 398 804 l 497 865 q 214 831 346 838 l 243 970 q 742 999 531 969 l 720 890 q 602 818 661 858 q 487 731 542 777 q 383 633 431 684 q 299 528 335 582 q 243 419 264 474 q 222 309 222 363 z "},"η":{"ha":765,"x_min":64,"x_max":724,"o":"m 323 566 q 362 605 340 586 q 413 640 385 625 q 473 664 441 655 q 542 673 506 673 q 614 662 581 673 q 672 629 647 651 q 710 576 696 608 q 724 505 724 545 q 720 449 724 479 q 709 388 715 418 l 562 -315 l 402 -315 l 551 403 q 560 466 560 444 q 541 520 560 502 q 481 538 522 538 q 391 509 432 538 q 323 429 349 480 q 307 388 314 411 q 294 334 300 366 l 224 0 l 64 0 l 159 457 q 165 496 165 484 q 153 524 165 515 q 119 532 142 532 q 71 527 95 532 l 99 659 q 182 667 149 667 q 321 566 304 667 l 323 566 z "},"θ":{"ha":799,"x_min":78,"x_max":785,"o":"m 623 595 q 625 634 625 615 q 615 730 625 685 q 584 807 605 775 q 536 853 563 839 q 481 867 509 867 q 440 859 458 867 q 408 834 421 850 q 388 797 395 819 q 381 750 381 776 q 394 689 381 717 q 435 642 406 662 q 510 610 464 622 q 623 595 556 597 m 117 154 q 121 201 117 178 q 128 244 124 224 q 136 280 132 264 q 139 308 139 297 q 131 325 139 319 q 110 331 123 331 q 78 326 97 331 l 108 463 q 187 471 151 471 q 271 445 241 471 q 301 376 301 418 q 297 334 301 357 q 288 287 293 311 q 279 237 283 262 q 275 191 275 212 q 282 153 275 168 q 301 130 290 138 q 328 118 313 121 q 359 115 342 115 q 452 142 411 115 q 525 218 494 170 q 577 329 556 266 q 608 465 597 393 q 436 490 509 469 q 316 547 363 511 q 244 633 268 583 q 221 743 221 682 q 239 840 221 793 q 290 922 256 886 q 372 978 323 957 q 481 999 420 999 q 609 975 553 999 q 705 903 666 951 q 765 786 744 856 q 785 623 785 715 q 774 466 785 544 q 741 316 764 387 q 683 184 718 245 q 598 79 647 123 q 485 8 549 34 q 340 -17 420 -17 q 243 -4 285 -17 q 173 31 201 8 q 131 84 145 53 q 117 154 117 116 z "},"ι":{"ha":371,"x_min":54,"x_max":323,"o":"m 160 657 l 320 657 l 226 203 q 220 163 220 176 q 232 136 220 144 q 267 127 244 127 q 323 133 289 127 l 294 -1 q 251 -8 275 -5 q 203 -10 227 -10 q 93 23 132 -10 q 54 119 54 56 q 63 191 54 149 l 160 657 z "},"κ":{"ha":721,"x_min":34,"x_max":751,"o":"m 194 0 l 34 0 l 171 657 l 332 657 l 290 463 q 271 382 286 441 l 273 382 q 376 493 330 446 q 461 571 422 539 q 533 624 500 604 q 596 655 566 644 q 656 670 627 666 q 715 673 684 673 q 733 673 722 673 q 751 671 744 672 l 723 532 q 706 534 712 534 q 648 526 677 534 q 586 502 618 519 q 518 457 554 485 q 437 390 481 430 q 471 269 455 319 q 506 187 488 219 q 546 140 524 155 q 595 125 568 125 q 622 127 606 125 q 650 134 637 130 l 623 1 q 583 -6 604 -4 q 552 -8 562 -8 q 463 15 500 -8 q 399 77 425 38 q 354 167 373 117 q 317 271 335 217 l 315 271 q 234 187 269 224 l 194 0 z "},"λ":{"ha":695,"x_min":-23,"x_max":649,"o":"m 368 318 q 376 445 368 371 l 373 445 q 285 248 338 350 l 153 0 l -23 0 l 355 674 q 346 763 355 726 q 320 823 337 800 q 279 856 303 846 q 225 866 256 866 q 185 862 205 866 q 143 852 165 859 l 171 985 q 218 996 194 993 q 264 999 242 999 q 367 978 325 999 q 436 922 410 958 q 478 838 463 886 q 499 733 492 789 q 506 616 505 677 q 507 495 507 555 q 510 309 507 380 q 522 197 513 238 q 547 140 531 156 q 593 125 564 125 q 649 134 617 125 l 621 1 q 582 -6 602 -4 q 551 -8 563 -8 q 458 16 494 -8 q 402 84 422 40 q 375 187 382 127 q 368 318 368 246 z "},"μ":{"ha":802,"x_min":-27,"x_max":755,"o":"m 515 95 q 478 47 500 68 q 429 12 456 26 q 374 -10 403 -3 q 318 -17 346 -17 q 247 -1 278 -17 q 201 51 216 16 l 199 51 q 164 -164 189 -41 l 133 -315 l -27 -315 l 174 657 l 334 657 l 252 261 q 247 230 249 243 q 245 208 245 217 q 270 144 245 163 q 330 124 294 124 q 373 130 351 124 q 416 150 395 136 q 458 187 437 164 q 495 243 478 210 q 517 299 507 267 q 536 375 527 331 l 595 657 l 755 657 l 660 199 q 656 175 657 186 q 654 158 654 164 q 665 131 654 138 q 692 124 675 124 q 740 128 713 124 l 712 -1 q 672 -7 694 -5 q 633 -9 651 -9 q 549 18 576 -9 q 517 95 522 45 l 515 95 z "},"ν":{"ha":700,"x_min":61,"x_max":680,"o":"m 228 657 q 272 559 252 614 q 306 442 292 504 q 327 315 319 380 q 334 187 334 250 l 337 187 q 405 275 373 228 q 462 373 437 323 q 501 474 486 423 q 515 573 515 526 q 513 607 515 585 q 503 657 511 629 l 664 657 q 675 616 671 640 q 680 570 680 593 q 656 437 680 507 q 588 294 633 367 q 479 147 544 221 q 332 0 415 73 l 201 0 q 188 193 197 104 q 164 359 180 281 q 123 511 149 438 q 61 657 98 583 l 228 657 z "},"ξ":{"ha":612,"x_min":54,"x_max":748,"o":"m 216 260 q 232 210 216 229 q 273 176 248 190 q 331 153 299 163 q 395 131 363 142 q 449 108 423 121 q 495 76 475 95 q 528 29 516 56 q 540 -35 540 2 q 433 -272 540 -139 l 258 -272 q 370 -59 370 -135 q 359 -24 370 -39 q 328 1 347 -9 q 283 20 309 12 q 231 39 258 29 q 168 63 199 50 q 111 99 136 77 q 70 152 85 121 q 54 229 54 183 q 74 323 54 279 q 129 401 94 366 q 212 463 163 436 q 317 508 260 490 l 317 511 q 269 531 290 519 q 232 556 248 542 q 209 589 217 571 q 201 631 201 608 q 219 707 201 672 q 273 772 237 741 q 360 829 309 802 q 479 882 412 857 l 479 885 q 245 854 324 859 l 272 984 q 748 999 580 984 l 724 883 q 576 838 644 864 q 461 781 509 812 q 387 715 414 749 q 361 646 361 681 q 406 588 361 604 q 538 571 451 571 q 618 573 575 571 l 591 444 q 546 446 569 446 q 426 434 485 446 q 320 397 366 421 q 244 339 273 374 q 216 260 216 304 z "}}}
